<svg xmlns="http://www.w3.org/2000/svg" xmlns:xlink="http://www.w3.org/1999/xlink" width="200" zoomAndPan="magnify" viewBox="0 0 150 149.999998" height="200" preserveAspectRatio="xMidYMid meet" version="1.0"><defs><clipPath id="17b96046d1"><path d="M 81 27.15625 L 88 27.15625 L 88 33 L 81 33 Z M 81 27.15625 " clip-rule="nonzero"/></clipPath><clipPath id="9c6c9da703"><path d="M 10.652344 30 L 143.402344 30 L 143.402344 117.90625 L 10.652344 117.90625 Z M 10.652344 30 " clip-rule="nonzero"/></clipPath><clipPath id="d351c9748f"><path d="M 65 116 L 67 116 L 67 117.90625 L 65 117.90625 Z M 65 116 " clip-rule="nonzero"/></clipPath><clipPath id="3fdc079344"><path d="M 56 116 L 65 116 L 65 117.90625 L 56 117.90625 Z M 56 116 " clip-rule="nonzero"/></clipPath></defs><rect x="-15" width="180" fill="#ffffff" y="-15" height="179.999997" fill-opacity="1"/><rect x="-15" width="180" fill="#ffffff" y="-15" height="179.999997" fill-opacity="1"/><g clip-path="url(#17b96046d1)"><path fill="#000000" d="M 84.648438 27.246094 C 83.917969 27.324219 83.136719 27.917969 82.714844 28.71875 C 82.488281 29.15625 82.453125 29.304688 82.453125 29.945312 C 82.453125 30.347656 82.496094 30.707031 82.539062 30.734375 C 82.707031 30.839844 82.628906 31.074219 82.257812 31.515625 C 82.046875 31.757812 81.855469 31.96875 81.820312 31.988281 C 81.707031 32.039062 81.742188 32.574219 81.855469 32.6875 C 82.117188 32.953125 82.425781 32.785156 83.023438 32.074219 L 83.277344 31.757812 L 83.65625 32.015625 C 83.859375 32.152344 84.078125 32.269531 84.15625 32.269531 C 84.226562 32.269531 84.316406 32.304688 84.339844 32.355469 C 84.410156 32.460938 85.648438 32.46875 85.859375 32.363281 C 85.941406 32.320312 86.132812 32.234375 86.273438 32.171875 C 86.625 32.015625 87.320312 31.304688 87.484375 30.945312 C 87.765625 30.296875 87.828125 29.910156 87.714844 29.4375 C 87.546875 28.707031 87.398438 28.445312 86.878906 27.929688 C 86.632812 27.683594 86.449219 27.570312 85.949219 27.367188 C 85.695312 27.261719 85.042969 27.199219 84.648438 27.246094 Z M 85.859375 29.015625 C 86.570312 29.734375 86.097656 30.953125 85.113281 30.953125 C 84.410156 30.953125 83.945312 30.515625 83.945312 29.855469 C 83.945312 29.496094 84.078125 29.242188 84.386719 28.964844 C 84.5625 28.804688 84.710938 28.761719 85.105469 28.761719 C 85.535156 28.761719 85.632812 28.796875 85.859375 29.015625 Z M 85.859375 29.015625 " fill-opacity="1" fill-rule="nonzero"/></g><g clip-path="url(#9c6c9da703)"><path fill="#000000" d="M 61.363281 30.460938 C 61.335938 30.488281 60.941406 30.550781 60.484375 30.601562 C 59.5 30.707031 58.746094 30.839844 57.59375 31.128906 C 57.375 31.179688 57.09375 31.25 56.953125 31.277344 C 56.820312 31.304688 56.6875 31.355469 56.664062 31.398438 C 56.636719 31.445312 56.523438 31.480469 56.40625 31.480469 C 56.292969 31.480469 56.171875 31.515625 56.144531 31.566406 C 56.117188 31.609375 56.011719 31.652344 55.914062 31.652344 C 55.828125 31.652344 55.679688 31.6875 55.589844 31.734375 C 55.511719 31.777344 55.34375 31.847656 55.222656 31.898438 C 54.6875 32.109375 53.351562 32.722656 53.289062 32.792969 C 53.246094 32.835938 52.640625 33.171875 52.261719 33.355469 C 52.148438 33.40625 52.058594 33.476562 52.058594 33.511719 C 52.058594 33.554688 52.015625 33.582031 51.964844 33.582031 C 51.859375 33.582031 51.058594 34.109375 51.023438 34.214844 C 51.003906 34.25 50.953125 34.285156 50.910156 34.285156 C 50.8125 34.285156 50.171875 34.765625 49.46875 35.363281 C 48.40625 36.273438 46.683594 38.0625 46.175781 38.789062 C 46.105469 38.894531 45.980469 39.054688 45.894531 39.140625 C 45.804688 39.238281 45.734375 39.359375 45.734375 39.421875 C 45.734375 39.484375 45.699219 39.542969 45.664062 39.5625 C 45.578125 39.597656 44.769531 40.796875 44.59375 41.167969 C 44.523438 41.304688 44.445312 41.445312 44.417969 41.472656 C 44.363281 41.527344 43.46875 43.347656 43.355469 43.636719 C 43.1875 44.066406 43.074219 44.332031 43.003906 44.472656 C 42.960938 44.558594 42.925781 44.707031 42.925781 44.796875 C 42.925781 44.890625 42.890625 44.996094 42.835938 45.023438 C 42.792969 45.050781 42.75 45.171875 42.75 45.285156 C 42.75 45.398438 42.714844 45.515625 42.667969 45.539062 C 42.625 45.566406 42.574219 45.699219 42.546875 45.828125 C 42.519531 45.96875 42.449219 46.242188 42.40625 46.445312 C 42.351562 46.652344 42.265625 46.988281 42.210938 47.1875 C 41.96875 48.179688 41.800781 49.335938 41.703125 50.765625 C 41.660156 51.371094 41.617188 51.90625 41.617188 51.957031 C 41.605469 52.019531 40.351562 52.046875 37.59375 52.046875 C 34.703125 52.046875 33.5 52.070312 33.332031 52.152344 C 33.121094 52.238281 33.085938 52.300781 33.085938 52.597656 C 33.085938 53.195312 32.917969 53.175781 37.496094 53.203125 C 39.753906 53.21875 41.605469 53.238281 41.617188 53.246094 C 41.617188 53.253906 41.652344 53.773438 41.703125 54.402344 C 41.816406 56.078125 41.984375 57.070312 42.398438 58.65625 C 42.441406 58.820312 42.503906 59.078125 42.539062 59.226562 C 42.574219 59.367188 42.625 59.523438 42.660156 59.574219 C 42.6875 59.621094 42.765625 59.839844 42.835938 60.058594 C 42.898438 60.277344 42.984375 60.488281 43.03125 60.539062 C 43.117188 60.636719 43.125 60.933594 43.039062 60.933594 C 43.011719 60.933594 42.84375 60.828125 42.667969 60.6875 C 42.328125 60.433594 41.976562 60.222656 41.5625 60.023438 C 40.84375 59.691406 40.457031 59.53125 40.339844 59.53125 C 40.269531 59.53125 40.183594 59.488281 40.15625 59.445312 C 40.132812 59.390625 39.992188 59.355469 39.859375 59.355469 C 39.726562 59.355469 39.585938 59.320312 39.535156 59.277344 C 39.382812 59.136719 38.691406 59.078125 37.214844 59.066406 C 36.320312 59.058594 35.582031 59.101562 35.28125 59.164062 C 35.019531 59.226562 34.667969 59.304688 34.507812 59.332031 C 34.351562 59.355469 34.203125 59.410156 34.175781 59.453125 C 34.148438 59.496094 34.050781 59.53125 33.957031 59.53125 C 33.867188 59.53125 33.71875 59.566406 33.628906 59.609375 C 33.550781 59.65625 33.210938 59.820312 32.867188 59.980469 C 31.898438 60.433594 30.820312 61.199219 30.039062 61.96875 C 29.328125 62.6875 28.519531 63.667969 28.519531 63.828125 C 28.519531 63.878906 28.492188 63.914062 28.457031 63.914062 C 28.414062 63.914062 28.34375 64.003906 28.289062 64.117188 C 28.238281 64.222656 28.0625 64.5625 27.902344 64.878906 C 27.746094 65.195312 27.578125 65.546875 27.535156 65.667969 C 27.480469 65.792969 27.410156 65.957031 27.367188 66.035156 C 27.324219 66.125 27.289062 66.273438 27.289062 66.359375 C 27.289062 66.457031 27.253906 66.5625 27.199219 66.589844 C 27.15625 66.617188 27.113281 66.71875 27.113281 66.816406 C 27.113281 66.992188 27.023438 66.992188 26.367188 66.800781 C 25.515625 66.554688 22.238281 66.703125 22.054688 66.992188 C 22.027344 67.035156 21.929688 67.070312 21.832031 67.070312 C 21.746094 67.070312 21.597656 67.105469 21.507812 67.148438 C 21.429688 67.195312 21.085938 67.359375 20.746094 67.519531 C 20.410156 67.675781 20.121094 67.84375 20.101562 67.878906 C 20.085938 67.914062 20.023438 67.949219 19.960938 67.949219 C 19.902344 67.949219 19.777344 68.019531 19.683594 68.097656 C 19.59375 68.183594 19.355469 68.367188 19.164062 68.519531 C 18.347656 69.121094 17.257812 70.515625 16.757812 71.585938 C 16.640625 71.824219 16.519531 72.09375 16.476562 72.171875 C 16.433594 72.261719 16.398438 72.410156 16.398438 72.496094 C 16.398438 72.59375 16.363281 72.699219 16.308594 72.726562 C 16.265625 72.753906 16.222656 72.855469 16.222656 72.945312 C 16.222656 73.226562 16.027344 73.558594 15.859375 73.558594 C 15.675781 73.558594 14.957031 73.726562 14.683594 73.820312 C 14.246094 73.988281 13.339844 74.460938 13.058594 74.679688 C 12.398438 75.1875 11.484375 76.207031 11.476562 76.425781 C 11.476562 76.488281 11.449219 76.539062 11.40625 76.539062 C 11.371094 76.539062 11.292969 76.671875 11.230469 76.820312 C 11.160156 76.976562 11.082031 77.1875 11.039062 77.285156 C 10.738281 78.003906 10.660156 78.492188 10.652344 79.609375 C 10.652344 80.582031 10.714844 81.125 10.863281 81.492188 C 10.898438 81.589844 10.984375 81.808594 11.046875 81.972656 C 11.109375 82.140625 11.230469 82.386719 11.320312 82.519531 C 11.40625 82.640625 11.476562 82.789062 11.476562 82.84375 C 11.476562 82.894531 11.519531 82.9375 11.566406 82.9375 C 11.617188 82.9375 11.652344 82.992188 11.652344 83.054688 C 11.652344 83.203125 12.796875 84.339844 12.945312 84.339844 C 13.007812 84.339844 13.058594 84.375 13.058594 84.421875 C 13.058594 84.464844 13.128906 84.515625 13.214844 84.542969 C 13.296875 84.570312 13.460938 84.648438 13.585938 84.71875 C 13.867188 84.886719 14.175781 85.007812 14.507812 85.105469 C 14.65625 85.140625 20.789062 85.164062 28.148438 85.164062 L 41.519531 85.15625 L 41.519531 86.613281 L 22.5 86.664062 L 21.984375 86.917969 C 20.621094 87.566406 19.753906 89.164062 20.007812 90.539062 C 20.21875 91.671875 20.921875 92.632812 21.972656 93.214844 L 22.5 93.503906 L 31.636719 93.519531 C 36.660156 93.527344 40.9375 93.539062 41.148438 93.546875 L 41.519531 93.546875 L 41.519531 95.195312 L 39.261719 95.230469 L 36.996094 95.257812 L 36.40625 95.546875 C 34.957031 96.246094 34.148438 97.738281 34.449219 99.15625 C 34.570312 99.734375 34.949219 100.523438 35.203125 100.753906 C 35.292969 100.832031 35.371094 100.917969 35.371094 100.945312 C 35.371094 100.972656 35.230469 101.171875 35.0625 101.390625 C 33.964844 102.832031 34.085938 104.511719 35.371094 105.828125 C 35.632812 106.089844 36.011719 106.390625 36.203125 106.46875 C 36.398438 106.554688 36.636719 106.667969 36.730469 106.722656 C 36.863281 106.800781 38.882812 106.820312 44.714844 106.800781 C 51.050781 106.785156 52.542969 106.792969 52.59375 106.890625 C 52.683594 107.019531 52.683594 112.621094 52.59375 113.621094 C 52.550781 114.183594 52.515625 114.289062 52.339844 114.375 C 51.832031 114.628906 51.355469 115.375 51.355469 115.917969 C 51.355469 116.558594 51.804688 117.304688 52.324219 117.539062 C 52.992188 117.839844 53.121094 117.863281 53.578125 117.742188 C 53.824219 117.679688 54.105469 117.558594 54.203125 117.46875 C 54.300781 117.375 54.40625 117.304688 54.441406 117.304688 C 54.464844 117.304688 54.605469 117.136719 54.746094 116.9375 C 54.957031 116.609375 54.992188 116.472656 54.992188 115.945312 C 54.992188 115.429688 54.957031 115.277344 54.78125 115.023438 C 54.519531 114.65625 54.300781 114.464844 53.9375 114.28125 L 53.660156 114.148438 L 53.625 110.578125 C 53.605469 108.609375 53.605469 106.949219 53.625 106.890625 C 53.648438 106.808594 54.28125 106.785156 56.371094 106.785156 L 59.085938 106.785156 L 59.085938 107.75 C 59.085938 108.90625 59.199219 109.238281 59.605469 109.238281 C 59.746094 109.238281 59.894531 109.1875 59.949219 109.125 C 60.007812 109.054688 60.0625 108.539062 60.070312 107.914062 L 60.097656 106.828125 L 62.847656 106.800781 L 65.585938 106.785156 L 65.585938 109.273438 C 65.585938 111.753906 65.585938 111.773438 65.78125 111.902344 C 66.042969 112.085938 66.21875 112.078125 66.449219 111.867188 C 66.640625 111.691406 66.640625 111.640625 66.640625 109.238281 L 66.640625 106.785156 L 69.980469 106.785156 C 72.273438 106.785156 73.386719 106.75 73.554688 106.6875 C 74.257812 106.398438 74.441406 106.292969 74.820312 105.933594 C 75.25 105.53125 75.511719 105.109375 75.734375 104.46875 C 75.882812 104.058594 75.910156 102.523438 75.777344 102.445312 C 75.734375 102.417969 75.6875 102.339844 75.6875 102.285156 C 75.6875 102.207031 77.5 102.191406 83.480469 102.207031 C 91.675781 102.234375 92.203125 102.214844 92.976562 101.847656 C 93.582031 101.566406 94.257812 100.894531 94.558594 100.269531 C 94.898438 99.570312 95.058594 98.839844 94.980469 98.351562 C 94.839844 97.535156 94.820312 97.5625 95.410156 97.554688 C 95.699219 97.554688 96.183594 97.554688 96.488281 97.5625 L 97.035156 97.578125 L 97.015625 101.628906 L 96.988281 105.6875 L 83.566406 105.6875 L 83.382812 105.363281 C 83.179688 105.003906 82.761719 104.679688 82.277344 104.511719 C 81.625 104.292969 80.589844 104.847656 80.273438 105.582031 C 80.027344 106.144531 80.203125 106.976562 80.667969 107.503906 C 81.011719 107.878906 82.25 108.1875 82.410156 107.921875 C 82.433594 107.871094 82.539062 107.835938 82.628906 107.835938 C 82.820312 107.835938 83.417969 107.167969 83.417969 106.941406 C 83.417969 106.792969 83.699219 106.785156 90.226562 106.785156 L 97.035156 106.785156 L 97.035156 109.292969 C 97.035156 111.746094 97 112.132812 96.746094 112.132812 C 96.605469 112.132812 96.234375 112.464844 95.980469 112.824219 C 95.8125 113.070312 95.769531 113.246094 95.769531 113.710938 C 95.761719 114.523438 96.015625 114.980469 96.726562 115.375 C 97.304688 115.699219 98 115.585938 98.753906 115.050781 C 99.152344 114.761719 99.363281 114.070312 99.265625 113.359375 C 99.210938 112.980469 99.140625 112.851562 98.816406 112.515625 C 98.597656 112.308594 98.351562 112.132812 98.253906 112.132812 C 98.160156 112.132812 98.070312 112.078125 98.042969 112.019531 C 97.984375 111.808594 97.914062 97.710938 97.984375 97.621094 C 98.019531 97.5625 98.738281 97.542969 100.003906 97.5625 L 101.953125 97.597656 L 101.953125 99.542969 C 101.953125 101.628906 101.96875 101.699219 102.390625 101.699219 C 102.882812 101.699219 102.917969 101.566406 102.917969 99.4375 L 102.917969 97.492188 L 104.273438 97.492188 C 105.019531 97.492188 105.652344 97.527344 105.675781 97.570312 C 105.738281 97.667969 105.746094 113.753906 105.695312 114.042969 C 105.640625 114.304688 105.5625 114.410156 105.429688 114.410156 C 105.253906 114.410156 104.589844 115.101562 104.589844 115.289062 C 104.589844 115.375 104.554688 115.480469 104.5 115.507812 C 104.351562 115.601562 104.402344 116.320312 104.597656 116.726562 C 104.789062 117.136719 105.292969 117.65625 105.5 117.65625 C 105.570312 117.65625 105.660156 117.691406 105.6875 117.742188 C 105.710938 117.792969 105.949219 117.828125 106.214844 117.828125 C 106.820312 117.828125 107.335938 117.558594 107.714844 117.039062 C 107.988281 116.679688 108.015625 116.59375 108.015625 116.007812 C 108.015625 115.171875 107.785156 114.804688 107.074219 114.453125 L 106.785156 114.3125 L 106.765625 106.714844 C 106.742188 98.445312 106.742188 97.585938 106.792969 97.554688 C 106.8125 97.542969 107.785156 97.542969 108.953125 97.5625 L 111.089844 97.585938 L 111.105469 102.164062 L 111.132812 106.738281 L 114.671875 106.765625 C 117.007812 106.773438 118.273438 106.757812 118.378906 106.695312 C 118.617188 106.574219 118.625 105.933594 118.40625 105.765625 C 118.28125 105.671875 117.589844 105.652344 115.148438 105.644531 L 112.054688 105.644531 L 112.074219 101.613281 L 112.097656 97.578125 L 115.523438 97.5625 C 117.929688 97.542969 119.003906 97.507812 119.125 97.429688 C 119.222656 97.378906 119.441406 97.273438 119.617188 97.191406 C 119.96875 97.042969 120.839844 96.210938 120.839844 96.027344 C 120.839844 95.964844 120.863281 95.914062 120.910156 95.914062 C 120.996094 95.914062 121.191406 95.476562 121.191406 95.289062 C 121.191406 95.203125 121.234375 95.105469 121.277344 95.082031 C 121.332031 95.054688 121.367188 94.722656 121.367188 94.351562 L 121.367188 93.679688 L 129.164062 93.679688 C 137.554688 93.679688 137.34375 93.6875 138.335938 93.1875 C 138.425781 93.144531 138.554688 93.109375 138.625 93.109375 C 138.695312 93.109375 138.757812 93.0625 138.757812 93.019531 C 138.757812 92.96875 138.835938 92.933594 138.933594 92.933594 C 139.03125 92.933594 139.109375 92.890625 139.109375 92.84375 C 139.109375 92.792969 139.164062 92.757812 139.222656 92.757812 C 139.285156 92.757812 139.425781 92.679688 139.53125 92.582031 C 139.636719 92.484375 139.75 92.40625 139.804688 92.40625 C 139.847656 92.40625 140.261719 92.039062 140.707031 91.589844 C 141.507812 90.8125 142.253906 89.828125 142.5625 89.144531 C 142.972656 88.234375 143.148438 87.707031 143.148438 87.402344 C 143.148438 87.277344 143.195312 87.136719 143.246094 87.085938 C 143.386719 86.945312 143.394531 84.148438 143.253906 83.726562 C 143.203125 83.5625 143.113281 83.246094 143.054688 83.027344 C 142.957031 82.640625 142.859375 82.386719 142.5625 81.730469 C 142.429688 81.429688 141.957031 80.675781 141.839844 80.570312 C 141.804688 80.546875 141.675781 80.378906 141.535156 80.1875 C 141.207031 79.757812 140.628906 79.179688 140.199219 78.855469 C 140.003906 78.714844 139.839844 78.574219 139.8125 78.546875 C 139.785156 78.511719 139.617188 78.40625 139.441406 78.300781 C 139.257812 78.203125 138.96875 78.039062 138.800781 77.941406 C 138.625 77.84375 138.433594 77.765625 138.363281 77.765625 C 138.292969 77.765625 138.230469 77.730469 138.230469 77.695312 C 138.230469 77.660156 138.046875 77.582031 137.816406 77.511719 C 137.582031 77.449219 137.316406 77.371094 137.222656 77.328125 C 136.871094 77.179688 136.402344 77.125 135.050781 77.089844 C 133.910156 77.066406 133.664062 77.03125 133.664062 76.925781 C 133.664062 76.855469 133.628906 76.730469 133.585938 76.644531 C 133.539062 76.566406 133.453125 76.371094 133.390625 76.234375 C 133.269531 75.96875 132.695312 75.074219 132.441406 74.757812 C 131.722656 73.867188 130.378906 72.796875 129.402344 72.339844 C 129.164062 72.226562 128.894531 72.101562 128.816406 72.058594 C 128.726562 72.015625 128.578125 71.980469 128.488281 71.980469 C 128.394531 71.980469 128.296875 71.945312 128.269531 71.902344 C 128.15625 71.726562 126.25 71.523438 125.390625 71.59375 L 124.710938 71.648438 L 124.667969 70.296875 C 124.625 68.808594 124.554688 68.125 124.429688 67.992188 C 124.386719 67.949219 124.351562 67.78125 124.351562 67.632812 C 124.351562 67.472656 124.316406 67.316406 124.265625 67.289062 C 124.21875 67.265625 124.175781 67.140625 124.175781 67.027344 C 124.175781 66.914062 124.140625 66.789062 124.089844 66.765625 C 124.042969 66.738281 124 66.640625 124 66.546875 C 124 66.457031 123.921875 66.222656 123.824219 66.027344 C 123.402344 65.167969 123.316406 64.992188 123.121094 64.660156 C 122.910156 64.292969 122.59375 63.808594 122.507812 63.738281 C 122.480469 63.714844 122.359375 63.554688 122.246094 63.390625 C 121.910156 62.898438 120.320312 61.355469 119.730469 60.960938 C 118.90625 60.398438 117.992188 59.898438 117.261719 59.609375 C 117.148438 59.566406 116.972656 59.496094 116.867188 59.453125 C 116.753906 59.410156 116.570312 59.347656 116.445312 59.3125 C 116.324219 59.285156 116.085938 59.214844 115.917969 59.164062 C 114.855469 58.855469 113.03125 58.707031 111.835938 58.820312 C 110.550781 58.953125 110.175781 59.015625 110.085938 59.101562 C 109.9375 59.242188 109.59375 59.191406 109.59375 59.03125 C 109.59375 58.867188 109.4375 58.339844 109.324219 58.113281 C 109.277344 58.023438 109.242188 57.894531 109.242188 57.824219 C 109.242188 57.753906 109.207031 57.621094 109.164062 57.535156 C 109.121094 57.453125 108.996094 57.183594 108.890625 56.945312 C 108.382812 55.804688 107.769531 54.84375 106.871094 53.796875 C 106.519531 53.386719 105.546875 52.457031 105.265625 52.265625 C 105.160156 52.195312 105.019531 52.082031 104.957031 52.019531 C 104.894531 51.957031 104.730469 51.84375 104.589844 51.757812 C 104.4375 51.667969 104.332031 51.582031 104.34375 51.546875 C 104.359375 51.511719 104.625 51.203125 104.941406 50.851562 C 105.253906 50.503906 105.5625 50.132812 105.632812 50.027344 C 105.703125 49.925781 105.828125 49.785156 105.90625 49.714844 C 105.976562 49.644531 106.257812 49.328125 106.519531 49.011719 C 106.785156 48.707031 107.179688 48.257812 107.390625 48.03125 C 107.601562 47.800781 107.839844 47.523438 107.917969 47.417969 C 107.988281 47.300781 108.261719 46.996094 108.507812 46.734375 C 108.761719 46.46875 109.078125 46.109375 109.207031 45.945312 C 109.664062 45.382812 109.859375 45.199219 109.859375 45.3125 C 109.859375 45.363281 109.910156 45.417969 109.972656 45.417969 C 110.027344 45.417969 110.175781 45.496094 110.296875 45.59375 C 110.421875 45.691406 110.621094 45.769531 110.753906 45.769531 C 110.886719 45.769531 111.019531 45.804688 111.042969 45.855469 C 111.132812 45.996094 111.898438 45.953125 112.378906 45.777344 C 113.066406 45.53125 113.800781 44.945312 113.8125 44.644531 C 113.8125 44.59375 113.855469 44.542969 113.898438 44.542969 C 113.953125 44.542969 113.988281 44.460938 113.988281 44.375 C 113.988281 44.277344 114.03125 44.171875 114.074219 44.148438 C 114.128906 44.121094 114.164062 43.761719 114.164062 43.347656 C 114.164062 42.777344 114.117188 42.523438 113.96875 42.210938 C 113.722656 41.675781 113.003906 40.945312 112.730469 40.945312 C 112.660156 40.945312 112.582031 40.921875 112.546875 40.886719 C 112.441406 40.78125 111.835938 40.597656 111.570312 40.597656 C 110.949219 40.597656 109.964844 41.050781 109.542969 41.542969 C 109.085938 42.058594 108.980469 42.402344 108.980469 43.347656 C 108.980469 43.925781 109.015625 44.277344 109.085938 44.347656 C 109.191406 44.453125 109.058594 44.628906 108.453125 45.242188 C 108.375 45.3125 108.101562 45.628906 107.839844 45.945312 C 107.574219 46.25 107.179688 46.699219 106.96875 46.925781 C 106.757812 47.152344 106.53125 47.425781 106.449219 47.53125 C 106.378906 47.636719 106.144531 47.90625 105.921875 48.125 C 105.710938 48.347656 105.429688 48.671875 105.308594 48.835938 C 105.175781 49.003906 105.011719 49.203125 104.941406 49.273438 C 104.773438 49.441406 104.289062 49.992188 103.851562 50.527344 C 103.65625 50.757812 103.457031 50.941406 103.402344 50.941406 C 103.316406 50.941406 102.71875 50.667969 102.023438 50.316406 C 101.9375 50.273438 101.785156 50.238281 101.699219 50.238281 C 101.601562 50.238281 101.496094 50.195312 101.46875 50.152344 C 101.445312 50.097656 101.320312 50.0625 101.207031 50.0625 C 101.09375 50.0625 100.976562 50.027344 100.953125 49.984375 C 100.925781 49.941406 100.75 49.890625 100.574219 49.863281 C 100.390625 49.835938 100.019531 49.765625 99.757812 49.703125 C 99.054688 49.5625 96.394531 49.503906 95.804688 49.625 C 94.652344 49.863281 94.425781 49.90625 94.136719 49.992188 C 93.96875 50.046875 93.75 50.117188 93.652344 50.152344 C 93.554688 50.195312 93.335938 50.265625 93.167969 50.328125 C 93.003906 50.386719 92.738281 50.492188 92.582031 50.554688 C 92.429688 50.625 92.28125 50.679688 92.253906 50.679688 C 92.230469 50.679688 92.203125 49.785156 92.203125 48.679688 C 92.203125 47.269531 92.167969 46.601562 92.089844 46.382812 C 91.878906 45.820312 91.632812 45.332031 91.570312 45.332031 C 91.527344 45.332031 91.5 45.277344 91.5 45.214844 C 91.5 44.996094 90.339844 44.101562 90.058594 44.101562 C 89.980469 44.101562 89.917969 44.066406 89.917969 44.023438 C 89.917969 43.980469 89.769531 43.925781 89.59375 43.902344 C 89.410156 43.875 89.144531 43.824219 89.003906 43.789062 C 88.875 43.761719 88.539062 43.777344 88.257812 43.839844 C 87.792969 43.9375 87.652344 43.988281 87.109375 44.214844 C 86.773438 44.367188 85.921875 45.261719 85.746094 45.644531 C 85.472656 46.269531 85.449219 46.339844 85.402344 46.734375 C 85.34375 47.222656 85.429688 47.371094 85.753906 47.328125 C 85.929688 47.3125 86.019531 47.25 86.035156 47.128906 C 86.1875 46.058594 86.757812 45.171875 87.519531 44.8125 C 87.652344 44.75 87.835938 44.664062 87.917969 44.621094 C 88.144531 44.507812 89.207031 44.523438 89.566406 44.65625 C 90.375 44.9375 91.050781 45.601562 91.273438 46.339844 C 91.316406 46.480469 91.367188 47.601562 91.386719 48.828125 C 91.421875 51.0625 91.421875 51.0625 91.21875 51.238281 C 91.105469 51.34375 90.910156 51.476562 90.78125 51.546875 C 90.640625 51.617188 90.535156 51.703125 90.535156 51.746094 C 90.535156 51.78125 90.480469 51.816406 90.429688 51.816406 C 90.367188 51.816406 90.199219 51.921875 90.050781 52.0625 C 89.53125 52.535156 88.882812 53.042969 88.792969 53.042969 C 88.75 53.042969 88.664062 52.984375 88.601562 52.914062 C 88.503906 52.800781 87.976562 52.527344 87.34375 52.265625 C 87.214844 52.210938 86.800781 52.167969 86.433594 52.167969 C 85.800781 52.167969 85.570312 52.210938 84.816406 52.484375 L 84.492188 52.597656 L 84.445312 51.617188 C 84.375 50.335938 84.246094 49.285156 83.953125 47.828125 C 83.753906 46.792969 83.347656 45.398438 83.15625 45.050781 C 83.101562 44.960938 83.066406 44.855469 83.066406 44.804688 C 83.066406 44.699219 82.8125 44.113281 82.445312 43.367188 C 82.1875 42.847656 82.128906 42.613281 82.257812 42.613281 C 82.292969 42.613281 82.398438 42.488281 82.488281 42.339844 C 82.671875 42.023438 83.101562 41.585938 83.566406 41.246094 C 83.753906 41.105469 83.917969 40.972656 83.945312 40.945312 C 83.972656 40.921875 84.269531 40.773438 84.605469 40.613281 C 84.945312 40.445312 85.359375 40.253906 85.527344 40.175781 C 85.710938 40.085938 85.84375 39.949219 85.859375 39.84375 C 85.894531 39.597656 85.5625 39.195312 85.324219 39.195312 C 85.21875 39.195312 84.816406 39.359375 84.429688 39.554688 C 84.042969 39.753906 83.636719 39.957031 83.53125 40.019531 C 83.417969 40.070312 83.332031 40.140625 83.332031 40.175781 C 83.332031 40.21875 83.277344 40.246094 83.214844 40.246094 C 83.09375 40.246094 82.382812 40.902344 81.996094 41.367188 C 81.695312 41.726562 81.6875 41.71875 81.207031 40.832031 C 81.144531 40.726562 81.074219 40.621094 81.046875 40.597656 C 81.019531 40.570312 80.96875 40.492188 80.914062 40.410156 C 80.75 40.140625 79.878906 38.886719 79.824219 38.84375 C 79.800781 38.816406 79.660156 38.648438 79.527344 38.476562 C 79.394531 38.300781 79.113281 37.957031 78.894531 37.730469 C 78.683594 37.5 78.5 37.257812 78.5 37.195312 C 78.5 37.0625 79.148438 36.300781 80.300781 35.097656 C 81.273438 34.074219 81.355469 33.933594 81.074219 33.609375 C 80.703125 33.207031 80.414062 33.277344 79.949219 33.890625 C 79.625 34.308594 79.308594 34.671875 78.65625 35.34375 C 78.480469 35.539062 78.191406 35.851562 78.023438 36.054688 L 77.710938 36.414062 L 77.199219 35.941406 C 76.917969 35.679688 76.609375 35.40625 76.515625 35.335938 C 76.425781 35.265625 76.171875 35.066406 75.953125 34.898438 C 75.734375 34.730469 75.539062 34.566406 75.511719 34.539062 C 75.441406 34.460938 73.898438 33.433594 73.476562 33.195312 C 73.273438 33.074219 72.71875 32.792969 72.261719 32.566406 C 71.804688 32.347656 71.277344 32.082031 71.09375 31.996094 C 70.902344 31.910156 70.699219 31.828125 70.628906 31.828125 C 70.558594 31.828125 70.425781 31.785156 70.332031 31.742188 C 70.234375 31.6875 70.074219 31.609375 69.980469 31.566406 C 69.882812 31.515625 69.722656 31.480469 69.636719 31.480469 C 69.539062 31.480469 69.433594 31.433594 69.410156 31.390625 C 69.382812 31.339844 69.242188 31.304688 69.101562 31.304688 C 68.960938 31.304688 68.828125 31.269531 68.800781 31.226562 C 68.777344 31.179688 68.625 31.128906 68.46875 31.101562 C 68.308594 31.074219 67.984375 31.003906 67.738281 30.953125 C 66.871094 30.761719 66.414062 30.679688 65.675781 30.59375 C 64.8125 30.496094 61.441406 30.390625 61.363281 30.460938 Z M 64.578125 32.277344 C 65.761719 32.363281 66.464844 32.453125 67.210938 32.617188 C 67.457031 32.671875 67.78125 32.742188 67.941406 32.769531 C 68.097656 32.792969 68.25 32.847656 68.273438 32.890625 C 68.300781 32.933594 68.398438 32.96875 68.496094 32.96875 C 68.582031 32.96875 68.730469 33.003906 68.820312 33.046875 C 68.898438 33.09375 69.128906 33.171875 69.320312 33.222656 C 69.511719 33.285156 69.757812 33.371094 69.875 33.417969 C 69.980469 33.460938 70.15625 33.53125 70.269531 33.574219 C 71.816406 34.171875 74.238281 35.589844 75.179688 36.457031 C 75.363281 36.625 75.601562 36.828125 75.707031 36.90625 C 76.003906 37.105469 77.253906 38.371094 77.710938 38.929688 C 77.929688 39.195312 78.121094 39.429688 78.148438 39.457031 C 78.375 39.683594 79.464844 41.253906 79.851562 41.921875 C 80.089844 42.332031 81.011719 44.191406 81.144531 44.515625 C 81.1875 44.628906 81.257812 44.804688 81.300781 44.910156 C 81.355469 45.023438 81.476562 45.382812 81.582031 45.726562 C 81.6875 46.058594 81.800781 46.417969 81.835938 46.515625 C 81.933594 46.777344 82.214844 47.820312 82.320312 48.355469 C 82.761719 50.492188 82.917969 53.984375 82.601562 54.796875 C 82.488281 55.105469 82.453125 55.480469 82.453125 56.480469 L 82.453125 57.777344 L 81.996094 57.789062 C 81.441406 57.796875 81.082031 57.980469 80.835938 58.390625 C 80.652344 58.699219 80.652344 58.75 80.679688 66.914062 L 80.703125 75.136719 L 75.511719 75.136719 L 75.511719 72.113281 C 75.511719 69.121094 75.511719 69.085938 75.300781 68.632812 C 74.871094 67.667969 74.230469 67.054688 73.28125 66.710938 C 72.949219 66.589844 72.597656 66.546875 71.894531 66.546875 L 70.945312 66.546875 L 70.945312 55.769531 C 70.945312 43.882812 70.980469 44.601562 70.390625 44.15625 C 70.214844 44.023438 69.980469 43.925781 69.820312 43.925781 L 69.539062 43.925781 L 69.539062 43.023438 C 69.539062 41.789062 69.320312 41.070312 68.777344 40.457031 C 68.539062 40.191406 67.863281 39.753906 67.5625 39.675781 C 67.421875 39.632812 65.84375 39.589844 64.050781 39.570312 C 60.492188 39.535156 60.308594 39.554688 59.5625 40.050781 C 59.027344 40.402344 58.804688 40.710938 58.480469 41.5 C 58.429688 41.628906 58.382812 42.210938 58.382812 42.777344 L 58.382812 43.824219 L 57.972656 43.882812 C 57.445312 43.960938 57.101562 44.199219 56.925781 44.609375 C 56.792969 44.910156 56.785156 46.144531 56.847656 57.664062 L 56.898438 70.402344 L 55.933594 70.402344 C 55.238281 70.402344 54.941406 70.367188 54.851562 70.28125 C 54.792969 70.21875 53.964844 69.359375 53.027344 68.378906 C 50.136719 65.351562 49.300781 64.527344 49.039062 64.398438 C 48.730469 64.238281 48.082031 64.230469 47.816406 64.363281 C 47.710938 64.414062 47.535156 64.546875 47.421875 64.652344 L 47.21875 64.835938 L 47.054688 64.617188 C 46.902344 64.421875 46.304688 63.449219 45.894531 62.730469 C 45.5 62.039062 44.847656 60.644531 44.671875 60.101562 C 44.609375 59.910156 44.523438 59.714844 44.488281 59.671875 C 44.453125 59.621094 44.417969 59.496094 44.417969 59.390625 C 44.417969 59.277344 44.382812 59.171875 44.339844 59.144531 C 44.292969 59.121094 44.242188 58.988281 44.214844 58.855469 C 44.1875 58.714844 44.117188 58.445312 44.074219 58.234375 C 44.023438 58.03125 43.933594 57.699219 43.882812 57.488281 C 43.503906 55.980469 43.417969 55 43.417969 52.605469 C 43.425781 50.433594 43.476562 49.667969 43.714844 48.484375 C 43.769531 48.222656 43.839844 47.855469 43.863281 47.671875 C 43.890625 47.496094 43.941406 47.320312 43.988281 47.292969 C 44.03125 47.269531 44.066406 47.164062 44.066406 47.066406 C 44.066406 46.863281 44.214844 46.355469 44.339844 46.101562 C 44.382812 46.015625 44.417969 45.875 44.417969 45.785156 C 44.417969 45.699219 44.453125 45.59375 44.488281 45.550781 C 44.523438 45.496094 44.609375 45.304688 44.671875 45.109375 C 44.867188 44.542969 45.953125 42.210938 46.085938 42.085938 C 46.113281 42.058594 46.183594 41.953125 46.246094 41.839844 C 46.515625 41.359375 46.578125 41.253906 46.726562 41.085938 C 46.808594 40.992188 46.878906 40.886719 46.878906 40.839844 C 46.878906 40.804688 47.125 40.445312 47.429688 40.050781 C 49.230469 37.675781 51.417969 35.792969 53.859375 34.511719 C 54.054688 34.40625 54.230469 34.308594 54.253906 34.285156 C 54.359375 34.179688 54.703125 34.019531 54.828125 34.019531 C 54.898438 34.019531 54.957031 33.976562 54.957031 33.933594 C 54.957031 33.882812 55.019531 33.847656 55.089844 33.847656 C 55.160156 33.847656 55.292969 33.8125 55.378906 33.765625 C 55.460938 33.722656 55.652344 33.644531 55.792969 33.582031 C 55.941406 33.523438 56.125 33.441406 56.207031 33.398438 C 56.292969 33.355469 56.425781 33.320312 56.496094 33.320312 C 56.566406 33.320312 56.699219 33.285156 56.785156 33.242188 C 57.074219 33.09375 57.375 32.976562 57.621094 32.933594 C 57.75 32.90625 57.960938 32.855469 58.101562 32.828125 C 58.234375 32.800781 58.417969 32.75 58.515625 32.707031 C 58.613281 32.664062 58.851562 32.609375 59.042969 32.574219 C 59.234375 32.546875 59.632812 32.488281 59.921875 32.433594 C 61.230469 32.214844 62.976562 32.152344 64.578125 32.277344 Z M 67.414062 41.316406 C 67.527344 41.394531 67.675781 41.535156 67.746094 41.628906 C 67.878906 41.816406 68.011719 43.339844 67.933594 43.671875 L 67.878906 43.882812 L 60.042969 43.882812 L 59.992188 43.683594 C 59.964844 43.578125 59.964844 43.101562 59.984375 42.640625 L 60.019531 41.796875 L 60.351562 41.507812 C 60.773438 41.148438 60.746094 41.148438 64.355469 41.15625 C 66.871094 41.167969 67.238281 41.183594 67.414062 41.316406 Z M 111.949219 42.246094 C 112.054688 42.28125 112.265625 42.417969 112.40625 42.550781 C 112.632812 42.769531 112.667969 42.867188 112.667969 43.242188 C 112.667969 43.753906 112.457031 44.101562 112.039062 44.3125 C 111.730469 44.472656 111.300781 44.496094 111.21875 44.367188 C 111.195312 44.3125 111.105469 44.277344 111.027344 44.277344 C 110.949219 44.277344 110.796875 44.171875 110.683594 44.03125 C 110.507812 43.839844 110.472656 43.699219 110.472656 43.261719 C 110.472656 42.796875 110.507812 42.691406 110.703125 42.5 C 110.992188 42.210938 111.464844 42.113281 111.949219 42.246094 Z M 68.792969 47.390625 L 63.8125 47.417969 L 58.824219 47.433594 L 58.824219 45.945312 L 68.847656 45.945312 Z M 60.933594 50.757812 C 60.933594 51.808594 60.914062 51.984375 60.78125 52.027344 C 60.703125 52.0625 60.132812 52.0625 59.507812 52.027344 L 58.382812 51.964844 L 58.382812 50.84375 C 58.382812 50.230469 58.402344 49.679688 58.429688 49.609375 C 58.464844 49.519531 58.746094 49.503906 59.703125 49.519531 L 60.933594 49.546875 Z M 64.101562 49.539062 L 65.410156 49.539062 L 65.410156 52.082031 L 63.945312 52.0625 L 62.46875 52.035156 L 62.441406 50.941406 C 62.417969 49.695312 62.460938 49.40625 62.652344 49.484375 C 62.730469 49.511719 63.382812 49.539062 64.101562 49.539062 Z M 69.417969 50.765625 C 69.425781 51.5625 69.398438 51.964844 69.328125 52.011719 C 69.277344 52.046875 68.714844 52.082031 68.074219 52.082031 L 66.914062 52.082031 L 66.886719 50.871094 C 66.871094 50.214844 66.871094 49.644531 66.886719 49.597656 C 66.90625 49.5625 67.476562 49.546875 68.160156 49.554688 L 69.410156 49.582031 Z M 99.625 51.722656 C 99.871094 51.765625 100.195312 51.835938 100.355469 51.871094 C 100.511719 51.894531 100.660156 51.957031 100.6875 52 C 100.714844 52.046875 100.8125 52.082031 100.90625 52.082031 C 100.996094 52.082031 101.144531 52.117188 101.234375 52.160156 C 101.3125 52.203125 101.664062 52.371094 101.996094 52.527344 C 102.339844 52.683594 102.777344 52.929688 102.980469 53.0625 C 103.183594 53.195312 103.386719 53.308594 103.4375 53.308594 C 103.488281 53.308594 103.535156 53.34375 103.535156 53.378906 C 103.535156 53.414062 103.664062 53.519531 103.816406 53.613281 C 104.226562 53.851562 105.359375 55.007812 105.886719 55.71875 C 106.511719 56.558594 107.214844 58.007812 107.46875 58.960938 C 107.671875 59.691406 107.6875 59.863281 107.722656 60.953125 C 107.75 61.664062 107.792969 62.074219 107.855469 62.074219 C 107.910156 62.074219 108.09375 61.996094 108.269531 61.90625 C 108.742188 61.664062 109.402344 61.371094 109.507812 61.371094 C 109.558594 61.371094 109.664062 61.339844 109.753906 61.292969 C 109.921875 61.207031 110.386719 61.082031 111.070312 60.945312 C 111.6875 60.820312 114.039062 60.820312 114.574219 60.945312 C 115.664062 61.199219 116.824219 61.558594 116.867188 61.652344 C 116.886719 61.699219 116.957031 61.722656 117.019531 61.722656 C 117.15625 61.722656 117.886719 62.09375 117.921875 62.179688 C 117.941406 62.222656 118.011719 62.25 118.082031 62.25 C 118.152344 62.25 118.203125 62.285156 118.203125 62.335938 C 118.203125 62.382812 118.265625 62.425781 118.335938 62.425781 C 118.40625 62.425781 118.46875 62.460938 118.46875 62.496094 C 118.46875 62.539062 118.574219 62.625 118.714844 62.695312 C 119.117188 62.898438 120.523438 64.363281 120.980469 65.054688 C 121.214844 65.414062 121.550781 65.984375 121.707031 66.324219 C 121.867188 66.660156 122.035156 67.011719 122.078125 67.089844 C 122.121094 67.175781 122.15625 67.324219 122.15625 67.414062 C 122.15625 67.507812 122.191406 67.605469 122.234375 67.632812 C 122.277344 67.660156 122.332031 67.808594 122.359375 67.964844 C 122.382812 68.125 122.464844 68.472656 122.523438 68.738281 C 122.65625 69.332031 122.664062 72.023438 122.523438 72.636719 C 122.472656 72.875 122.402344 73.214844 122.367188 73.382812 C 122.332031 73.550781 122.277344 73.726562 122.246094 73.777344 C 122.207031 73.820312 122.15625 74.015625 122.121094 74.191406 C 122.078125 74.445312 122.085938 74.523438 122.183594 74.523438 C 122.339844 74.523438 122.769531 74.320312 122.769531 74.234375 C 122.769531 74.199219 122.839844 74.171875 122.929688 74.171875 C 123.015625 74.171875 123.121094 74.136719 123.175781 74.101562 C 123.21875 74.058594 123.429688 73.980469 123.648438 73.917969 C 123.871094 73.847656 124.140625 73.769531 124.265625 73.726562 C 124.652344 73.601562 126.039062 73.550781 126.679688 73.636719 C 127.644531 73.769531 127.917969 73.839844 128.410156 74.09375 C 128.5 74.136719 128.628906 74.171875 128.699219 74.171875 C 128.769531 74.171875 128.832031 74.207031 128.832031 74.261719 C 128.832031 74.304688 128.875 74.347656 128.929688 74.347656 C 129.210938 74.347656 130.492188 75.460938 130.941406 76.101562 C 131.054688 76.265625 131.175781 76.425781 131.203125 76.453125 C 131.300781 76.539062 131.808594 77.644531 131.90625 77.984375 C 131.96875 78.179688 132.046875 78.460938 132.089844 78.609375 C 132.136719 78.757812 132.171875 79.054688 132.171875 79.273438 C 132.171875 79.484375 132.195312 79.6875 132.222656 79.722656 C 132.25 79.746094 132.398438 79.703125 132.546875 79.617188 C 132.707031 79.539062 133.003906 79.414062 133.222656 79.351562 C 133.445312 79.292969 133.734375 79.203125 133.875 79.160156 C 134.21875 79.054688 136 79.0625 136.359375 79.167969 C 136.519531 79.214844 136.800781 79.300781 136.984375 79.351562 C 137.617188 79.527344 138.273438 79.851562 138.617188 80.152344 C 138.714844 80.238281 138.828125 80.308594 138.882812 80.308594 C 138.925781 80.308594 139.242188 80.597656 139.582031 80.949219 C 140.171875 81.546875 140.332031 81.78125 140.789062 82.691406 C 140.894531 82.902344 141.007812 83.140625 141.050781 83.21875 C 141.09375 83.308594 141.128906 83.457031 141.128906 83.550781 C 141.128906 83.648438 141.164062 83.796875 141.207031 83.886719 C 141.253906 83.964844 141.332031 84.351562 141.394531 84.726562 C 141.59375 86.050781 141.164062 87.769531 140.304688 89.074219 C 140.03125 89.496094 138.828125 90.742188 138.695312 90.742188 C 138.652344 90.742188 138.539062 90.8125 138.441406 90.898438 C 138.230469 91.082031 137.589844 91.398438 137.175781 91.511719 C 136.226562 91.785156 135.875 91.792969 128.207031 91.792969 L 120.382812 91.792969 L 120.109375 91.601562 C 119.953125 91.496094 119.8125 91.382812 119.785156 91.335938 C 119.757812 91.300781 119.574219 91.207031 119.390625 91.117188 C 118.660156 90.800781 118.152344 90.757812 116 90.8125 L 113.917969 90.855469 L 113.863281 90.292969 C 113.785156 89.59375 113.6875 89.339844 113.265625 88.699219 C 112.625 87.75 111.640625 87.234375 110.457031 87.234375 L 109.859375 87.234375 L 109.910156 86.902344 C 109.980469 86.464844 109.816406 85.648438 109.542969 85.070312 C 109.253906 84.464844 108.558594 83.796875 107.875 83.464844 C 107.398438 83.238281 107.222656 83.203125 106.617188 83.203125 L 105.90625 83.203125 L 105.90625 78.160156 C 105.90625 72.683594 105.933594 72.960938 105.386719 72.4375 C 105.117188 72.171875 105.054688 72.15625 104.5 72.15625 L 103.910156 72.15625 L 103.867188 70.902344 C 103.839844 70.21875 103.78125 69.578125 103.734375 69.480469 C 103.683594 69.386719 103.550781 69.113281 103.4375 68.878906 C 102.796875 67.542969 100.933594 66.546875 99.574219 66.808594 C 98.5 67.019531 98.054688 67.230469 97.375 67.835938 C 96.488281 68.632812 96.21875 69.316406 96.15625 70.929688 L 96.113281 72.113281 L 95.539062 72.15625 C 94.925781 72.207031 94.722656 72.289062 94.433594 72.613281 C 94.054688 73.015625 94.039062 73.285156 94.046875 76.949219 C 94.054688 78.871094 94.054688 81.082031 94.054688 81.871094 L 94.046875 83.296875 L 92.160156 83.246094 L 92.148438 71.058594 C 92.148438 59.480469 92.140625 58.855469 91.984375 58.542969 C 91.726562 57.988281 91.359375 57.777344 90.699219 57.777344 L 90.136719 57.777344 L 90.121094 56.175781 L 90.09375 54.578125 L 90.472656 54.296875 C 90.675781 54.140625 90.964844 53.894531 91.121094 53.746094 C 91.28125 53.605469 91.429688 53.484375 91.464844 53.484375 C 91.5 53.484375 91.613281 53.402344 91.710938 53.316406 C 91.964844 53.089844 92.957031 52.535156 93.503906 52.335938 C 93.722656 52.246094 94.039062 52.117188 94.335938 52 C 94.539062 51.914062 94.769531 51.859375 95.539062 51.722656 C 95.804688 51.675781 96.042969 51.617188 96.058594 51.589844 C 96.136719 51.511719 99.167969 51.617188 99.625 51.722656 Z M 60.976562 54.027344 C 61 54.429688 61.011719 54.929688 60.992188 55.148438 L 60.964844 55.542969 L 58.429688 55.542969 L 58.375 53.308594 L 60.914062 53.308594 Z M 65.394531 59.945312 L 65.367188 66.589844 L 62.46875 66.589844 L 62.441406 59.945312 L 62.425781 53.308594 L 65.410156 53.308594 Z M 69.460938 55.585938 L 66.90625 55.585938 L 66.90625 53.300781 L 69.410156 53.351562 Z M 87.0625 53.746094 C 87.089844 53.789062 87.1875 53.832031 87.265625 53.832031 C 87.496094 53.832031 88.066406 54.34375 88.347656 54.789062 C 88.59375 55.175781 88.601562 55.210938 88.601562 56.464844 L 88.601562 57.742188 L 86.34375 57.734375 L 84.085938 57.734375 L 84.023438 57.515625 C 83.929688 57.164062 83.9375 56.105469 84.042969 55.542969 C 84.191406 54.710938 84.726562 54.097656 85.570312 53.78125 C 85.90625 53.648438 86.992188 53.632812 87.0625 53.746094 Z M 60.886719 56.910156 C 60.976562 57.007812 61.011719 58.777344 60.914062 58.890625 C 60.84375 58.972656 60.492188 59.007812 59.605469 59.007812 L 58.382812 59.007812 L 58.382812 57.972656 C 58.382812 57.402344 58.402344 56.910156 58.429688 56.882812 C 58.488281 56.824219 60.824219 56.847656 60.886719 56.910156 Z M 69.410156 58.960938 L 66.90625 59.015625 L 66.90625 56.859375 L 69.460938 56.910156 Z M 85.648438 60.425781 C 85.710938 61.363281 85.71875 90.757812 85.660156 90.933594 C 85.625 91.023438 85.28125 91.046875 84.050781 91.03125 L 82.496094 91.011719 L 82.453125 59.621094 L 85.589844 59.621094 Z M 90.226562 91.046875 L 88.671875 91.074219 L 87.109375 91.089844 L 87.109375 59.621094 L 90.269531 59.621094 Z M 61 61.074219 C 61.019531 61.496094 61 61.941406 60.976562 62.082031 L 60.914062 62.335938 L 58.382812 62.335938 L 58.382812 60.320312 L 60.976562 60.320312 Z M 69.410156 62.292969 L 66.90625 62.347656 L 66.90625 60.320312 L 69.460938 60.320312 Z M 38.839844 61.164062 C 39.183594 61.242188 39.558594 61.320312 39.699219 61.347656 C 39.832031 61.371094 39.964844 61.425781 39.992188 61.46875 C 40.015625 61.511719 40.105469 61.546875 40.191406 61.546875 C 40.386719 61.546875 41.519531 62.117188 42.097656 62.511719 C 42.679688 62.90625 43.335938 63.449219 43.714844 63.835938 C 44.636719 64.800781 45.480469 66.210938 45.832031 67.378906 C 46.035156 68.078125 46.21875 68.203125 46.457031 67.800781 C 46.535156 67.667969 47 67.140625 47.492188 66.640625 L 48.378906 65.730469 L 48.609375 65.941406 C 48.738281 66.054688 49.125 66.449219 49.460938 66.808594 C 50.277344 67.675781 52.023438 69.472656 53.34375 70.816406 L 54.394531 71.882812 L 56.847656 71.9375 L 56.847656 83.246094 L 52.980469 83.246094 L 52.9375 79.695312 C 52.894531 76.425781 52.886719 76.128906 52.726562 75.90625 C 52.480469 75.539062 52.050781 75.3125 51.59375 75.3125 L 51.199219 75.3125 L 51.164062 74.101562 C 51.128906 72.953125 51.121094 72.875 50.828125 72.289062 C 50.3125 71.21875 49.152344 70.246094 48.152344 70.035156 C 47.078125 69.804688 46.585938 69.867188 45.558594 70.351562 C 44.65625 70.769531 44.074219 71.445312 43.574219 72.636719 C 43.53125 72.734375 43.476562 73.367188 43.453125 74.039062 L 43.40625 75.269531 L 43.1875 75.277344 C 42.476562 75.292969 42.335938 75.328125 42.125 75.511719 C 41.992188 75.617188 41.808594 75.855469 41.703125 76.039062 C 41.527344 76.363281 41.519531 76.46875 41.519531 79.828125 L 41.519531 83.28125 L 28.195312 83.226562 C 20.746094 83.203125 14.824219 83.148438 14.78125 83.105469 C 14.726562 83.0625 14.621094 83.027344 14.535156 83.027344 C 14.445312 83.027344 14.375 82.984375 14.375 82.9375 C 14.375 82.886719 14.324219 82.851562 14.261719 82.851562 C 14.105469 82.851562 13.144531 81.914062 13.144531 81.753906 C 13.144531 81.683594 13.109375 81.625 13.058594 81.625 C 13.015625 81.625 12.972656 81.554688 12.972656 81.464844 C 12.972656 81.378906 12.945312 81.273438 12.910156 81.238281 C 12.636719 80.964844 12.503906 79.132812 12.714844 78.476562 C 12.847656 78.066406 13.15625 77.414062 13.320312 77.195312 C 13.613281 76.8125 14.246094 76.285156 14.632812 76.101562 C 14.851562 75.996094 15.097656 75.871094 15.175781 75.835938 C 15.449219 75.699219 16.527344 75.644531 17.054688 75.75 C 18.066406 75.941406 17.976562 76.023438 18.023438 74.898438 C 18.058594 73.902344 18.117188 73.585938 18.476562 72.683594 C 18.671875 72.207031 18.820312 71.929688 18.96875 71.769531 C 19.050781 71.671875 19.121094 71.570312 19.121094 71.523438 C 19.121094 71.382812 19.953125 70.492188 20.488281 70.050781 C 20.957031 69.675781 22.042969 69.085938 22.28125 69.085938 C 22.378906 69.085938 22.464844 69.050781 22.492188 69.007812 C 22.589844 68.867188 23.195312 68.796875 24.523438 68.796875 C 26.058594 68.796875 26.375 68.84375 27.042969 69.183594 C 27.128906 69.226562 27.261719 69.261719 27.332031 69.261719 C 27.402344 69.261719 27.464844 69.289062 27.464844 69.332031 C 27.464844 69.367188 27.597656 69.445312 27.753906 69.515625 C 27.902344 69.585938 28.175781 69.738281 28.34375 69.851562 C 28.816406 70.164062 28.871094 70.128906 28.84375 69.457031 C 28.824219 68.570312 29 67.40625 29.230469 66.964844 C 29.273438 66.878906 29.308594 66.753906 29.308594 66.695312 C 29.308594 66.527344 30.160156 64.851562 30.34375 64.652344 C 30.425781 64.554688 30.601562 64.34375 30.722656 64.179688 C 31.046875 63.738281 31.917969 62.890625 32.214844 62.714844 C 32.355469 62.625 32.472656 62.53125 32.472656 62.496094 C 32.472656 62.460938 32.515625 62.425781 32.566406 62.425781 C 32.621094 62.425781 32.824219 62.3125 33.023438 62.179688 C 33.375 61.953125 33.480469 61.898438 34.097656 61.636719 C 34.632812 61.40625 34.808594 61.355469 35.765625 61.128906 C 36.355469 60.988281 38.15625 61.003906 38.839844 61.164062 Z M 60.957031 64.238281 C 60.992188 64.574219 61.019531 65.222656 61.019531 65.6875 C 61.019531 66.710938 61.117188 66.652344 59.527344 66.617188 L 58.429688 66.589844 L 58.402344 65.117188 L 58.382812 63.652344 L 60.90625 63.652344 Z M 69.433594 65.109375 C 69.460938 66.78125 69.601562 66.632812 67.984375 66.632812 L 66.90625 66.632812 L 66.90625 63.644531 L 69.410156 63.695312 Z M 61 73.507812 C 61.019531 77.863281 61 79.039062 60.914062 79.097656 C 60.851562 79.132812 60.265625 79.152344 59.613281 79.125 L 58.429688 79.082031 L 58.402344 73.621094 C 58.394531 70.621094 58.402344 68.113281 58.429688 68.054688 C 58.453125 67.964844 58.769531 67.949219 59.71875 67.964844 L 60.976562 67.992188 Z M 65.394531 73.585938 L 65.410156 79.167969 L 63.945312 79.152344 L 62.46875 79.125 L 62.441406 73.644531 C 62.433594 70.628906 62.441406 68.113281 62.46875 68.054688 C 62.496094 67.964844 62.847656 67.949219 63.9375 67.964844 L 65.367188 67.992188 Z M 69.433594 73.53125 L 69.410156 79.125 L 66.90625 79.179688 L 66.90625 67.949219 L 69.453125 67.949219 Z M 73.019531 68.167969 C 73.34375 68.324219 73.597656 68.589844 73.835938 69.027344 C 74.019531 69.351562 74.019531 69.410156 74.019531 76.320312 L 74.019531 83.289062 L 70.945312 83.289062 L 70.945312 68.035156 L 71.851562 68.035156 C 72.484375 68.035156 72.84375 68.078125 73.019531 68.167969 Z M 101.058594 68.527344 C 101.425781 68.703125 102.128906 69.429688 102.128906 69.621094 C 102.128906 69.710938 102.171875 69.804688 102.214844 69.832031 C 102.269531 69.867188 102.304688 70.359375 102.304688 71.023438 L 102.304688 72.15625 L 97.632812 72.15625 L 97.667969 71.078125 C 97.691406 70.253906 97.738281 69.929688 97.867188 69.667969 C 98.175781 69.027344 98.859375 68.472656 99.492188 68.351562 C 99.863281 68.28125 100.777344 68.378906 101.058594 68.527344 Z M 47.878906 71.472656 C 48.34375 71.605469 48.925781 72 49.1875 72.359375 C 49.511719 72.8125 49.601562 73.199219 49.601562 74.242188 L 49.601562 75.214844 L 47.351562 75.242188 C 46.015625 75.257812 45.078125 75.234375 45.023438 75.1875 C 44.917969 75.074219 44.925781 73.917969 45.042969 73.234375 C 45.121094 72.769531 45.199219 72.613281 45.53125 72.242188 C 46.191406 71.507812 47.035156 71.226562 47.878906 71.472656 Z M 99.1875 75.179688 C 99.1875 76.039062 99.160156 76.320312 99.082031 76.3125 C 99.019531 76.300781 98.273438 76.292969 97.429688 76.285156 L 95.890625 76.277344 L 95.890625 75.199219 C 95.890625 74.601562 95.917969 74.085938 95.953125 74.050781 C 95.988281 74.023438 96.726562 74.003906 97.597656 74.015625 L 99.1875 74.039062 Z M 104.0625 76.277344 L 102.355469 76.277344 C 101.074219 76.277344 100.644531 76.25 100.609375 76.164062 C 100.554688 76.023438 100.546875 74.144531 100.609375 74.066406 C 100.625 74.023438 101.417969 73.996094 102.355469 73.996094 L 104.0625 73.996094 Z M 80.679688 80.125 C 80.695312 82.105469 80.679688 83.15625 80.617188 83.191406 C 80.5625 83.226562 79.414062 83.246094 78.042969 83.246094 L 75.558594 83.246094 L 75.53125 80.152344 L 75.511719 77.066406 L 78.078125 77.082031 L 80.652344 77.109375 Z M 46.480469 95.519531 L 43.40625 95.519531 L 43.363281 77.152344 L 46.527344 77.152344 Z M 51.109375 81.070312 C 51.128906 83.238281 51.128906 87.375 51.109375 90.277344 L 51.09375 95.5625 L 47.929688 95.5625 L 47.929688 77.152344 L 51.09375 77.152344 Z M 99.1875 79.914062 L 95.9375 79.914062 L 95.910156 78.871094 C 95.902344 78.292969 95.902344 77.773438 95.925781 77.714844 C 95.960938 77.625 96.367188 77.609375 97.578125 77.617188 L 99.1875 77.636719 Z M 104.0625 79.851562 L 103.339844 79.914062 C 102.9375 79.941406 102.15625 79.957031 101.601562 79.941406 L 100.589844 79.914062 L 100.539062 77.679688 L 104.0625 77.679688 Z M 60.976562 83.246094 L 58.429688 83.246094 L 58.375 80.484375 L 61.027344 80.484375 Z M 65.410156 83.289062 L 63.945312 83.273438 L 62.46875 83.246094 L 62.417969 80.484375 L 65.410156 80.484375 Z M 69.453125 83.289062 L 66.914062 83.289062 L 66.886719 81.921875 C 66.871094 81.167969 66.878906 80.535156 66.894531 80.519531 C 66.914062 80.5 67.503906 80.484375 68.195312 80.484375 L 69.453125 80.484375 Z M 99.160156 81.308594 C 99.265625 81.457031 99.238281 83.445312 99.140625 83.507812 C 99.089844 83.535156 98.34375 83.535156 97.472656 83.5 L 95.890625 83.4375 L 95.890625 81.167969 L 97.5 81.195312 C 98.511719 81.210938 99.125 81.246094 99.160156 81.308594 Z M 104.070312 83.457031 L 102.375 83.480469 C 101.3125 83.5 100.652344 83.472656 100.617188 83.421875 C 100.546875 83.332031 100.519531 81.324219 100.582031 81.265625 C 100.609375 81.246094 101.382812 81.230469 102.320312 81.230469 L 104.015625 81.230469 Z M 73.34375 84.683594 L 80.695312 84.691406 L 80.695312 87.9375 L 57.066406 87.9375 L 56.664062 87.75 C 55.566406 87.234375 55.371094 85.796875 56.292969 85.007812 C 56.742188 84.621094 56.566406 84.640625 61.941406 84.65625 C 64.164062 84.664062 69.292969 84.683594 73.34375 84.683594 Z M 107.3125 84.886719 C 107.511719 85 107.792969 85.210938 107.925781 85.359375 C 108.234375 85.710938 108.472656 86.472656 108.4375 86.972656 L 108.410156 87.355469 L 107.046875 87.355469 L 105.6875 87.367188 L 105.632812 84.691406 L 106.292969 84.691406 C 106.800781 84.691406 107.019531 84.734375 107.3125 84.886719 Z M 99.210938 86.035156 C 99.230469 87.058594 99.210938 87.242188 99.097656 87.289062 C 99.019531 87.320312 98.273438 87.3125 97.429688 87.277344 L 95.890625 87.21875 L 95.890625 84.78125 L 97.542969 84.796875 L 99.1875 84.824219 Z M 104.0625 87.226562 L 102.390625 87.253906 C 101.46875 87.269531 100.679688 87.261719 100.636719 87.253906 C 100.539062 87.21875 100.511719 84.9375 100.609375 84.839844 C 100.636719 84.804688 101.425781 84.78125 102.367188 84.78125 L 104.0625 84.78125 Z M 94.046875 90.917969 L 92.113281 90.917969 L 92.113281 85.042969 L 94.046875 85.042969 Z M 54.300781 85.324219 C 54.167969 85.734375 54.148438 86.636719 54.265625 87.042969 C 54.5625 88.144531 55.46875 89.039062 56.539062 89.304688 C 56.707031 89.347656 62.207031 89.382812 68.75 89.382812 L 80.652344 89.382812 L 80.652344 90.785156 L 67.125 90.871094 L 66.625 91.109375 C 65.789062 91.496094 65.191406 92.152344 64.832031 93.0625 C 64.796875 93.160156 64.742188 93.539062 64.71875 93.898438 L 64.664062 94.554688 L 52.980469 94.554688 L 52.957031 89.960938 C 52.945312 87.425781 52.957031 85.304688 52.972656 85.246094 C 53.007812 85.164062 53.21875 85.128906 53.695312 85.128906 C 54.351562 85.128906 54.359375 85.140625 54.300781 85.324219 Z M 41.5 90.074219 L 41.519531 91.730469 L 22.941406 91.652344 L 22.625 91.441406 C 22.125 91.109375 21.921875 90.722656 21.914062 90.09375 C 21.914062 89.207031 22.324219 88.707031 23.230469 88.488281 C 23.386719 88.453125 27.550781 88.417969 32.496094 88.417969 L 41.476562 88.417969 Z M 99.175781 88.691406 C 99.203125 88.769531 99.230469 89.339844 99.230469 89.960938 L 99.230469 91.089844 L 95.890625 91.089844 L 95.890625 89.882812 C 95.890625 89.214844 95.917969 88.636719 95.953125 88.609375 C 95.980469 88.574219 96.707031 88.550781 97.570312 88.550781 C 98.90625 88.550781 99.132812 88.566406 99.175781 88.691406 Z M 104.0625 91.089844 L 102.355469 91.089844 C 100.882812 91.089844 100.644531 91.074219 100.601562 90.953125 C 100.539062 90.785156 100.53125 88.691406 100.589844 88.621094 C 100.617188 88.601562 101.410156 88.566406 102.347656 88.558594 L 104.0625 88.539062 Z M 108.277344 88.769531 C 108.445312 88.820312 108.453125 88.898438 108.453125 89.917969 L 108.453125 91.003906 L 107.136719 91.011719 C 106.414062 91.023438 105.765625 91.03125 105.710938 91.039062 C 105.625 91.046875 105.589844 90.75 105.570312 89.910156 L 105.546875 88.761719 L 106.828125 88.734375 C 107.523438 88.726562 108.179688 88.734375 108.277344 88.769531 Z M 111.019531 88.828125 C 111.738281 89.039062 112.316406 89.820312 112.316406 90.566406 L 112.316406 91.003906 L 109.769531 91.003906 L 109.769531 88.726562 L 110.21875 88.726562 C 110.472656 88.726562 110.824219 88.769531 111.019531 88.828125 Z M 118.246094 92.496094 C 118.273438 92.539062 118.378906 92.582031 118.46875 92.582031 C 118.554688 92.582031 118.785156 92.757812 118.976562 92.976562 C 119.714844 93.808594 119.503906 95.132812 118.574219 95.527344 C 118.28125 95.648438 115.753906 95.660156 92.640625 95.625 C 78.5625 95.605469 66.964844 95.5625 66.886719 95.519531 C 66.800781 95.484375 66.730469 95.386719 66.730469 95.300781 C 66.730469 95.203125 66.695312 95.117188 66.648438 95.082031 C 66.605469 95.054688 66.535156 94.773438 66.507812 94.457031 C 66.414062 93.5625 66.71875 92.949219 67.476562 92.554688 C 67.714844 92.425781 70.15625 92.414062 92.96875 92.40625 C 109.691406 92.40625 118.210938 92.433594 118.246094 92.496094 Z M 92.308594 97.070312 C 92.886719 97.394531 93.167969 97.859375 93.167969 98.5 C 93.167969 99.210938 92.835938 99.796875 92.253906 100.078125 C 92.035156 100.191406 88.46875 100.210938 64.683594 100.210938 L 37.371094 100.210938 L 37.046875 100.023438 C 36.652344 99.804688 36.378906 99.421875 36.238281 98.875 C 36.003906 98 36.609375 97.125 37.566406 96.929688 C 37.6875 96.902344 50.003906 96.902344 64.945312 96.921875 C 86.878906 96.949219 92.140625 96.984375 92.308594 97.070312 Z M 73.625 102.242188 C 74.355469 103.050781 74.222656 104.171875 73.324219 104.777344 L 73.007812 104.988281 L 56.671875 105.011719 C 47.683594 105.03125 39.605469 105.011719 38.71875 104.976562 L 37.101562 104.925781 L 36.730469 104.558594 C 36.328125 104.144531 36.214844 103.742188 36.308594 103.023438 C 36.355469 102.714844 36.449219 102.550781 36.742188 102.261719 C 37.089844 101.910156 37.152344 101.882812 37.671875 101.847656 C 37.980469 101.832031 46.105469 101.820312 55.742188 101.820312 L 73.246094 101.832031 Z M 73.625 102.242188 " fill-opacity="1" fill-rule="nonzero"/></g><path fill="#000000" d="M 88.1875 39.148438 C 87.996094 39.367188 88.046875 39.929688 88.277344 40.140625 C 88.609375 40.457031 89.015625 40.34375 89.261719 39.867188 C 89.347656 39.703125 89.339844 39.605469 89.226562 39.359375 C 89.101562 39.089844 89.039062 39.0625 88.6875 39.042969 C 88.433594 39.027344 88.257812 39.0625 88.1875 39.148438 Z M 88.1875 39.148438 " fill-opacity="1" fill-rule="nonzero"/><path fill="#000000" d="M 91.78125 39.332031 C 91.625 39.4375 91.585938 39.542969 91.605469 39.78125 C 91.632812 40.113281 91.640625 40.121094 92.863281 40.691406 C 93.328125 40.910156 93.667969 41.175781 94.066406 41.605469 C 94.574219 42.164062 94.75 42.394531 94.75 42.5 C 94.75 42.558594 94.792969 42.613281 94.839844 42.613281 C 94.890625 42.613281 94.925781 42.683594 94.925781 42.769531 C 94.925781 42.859375 94.960938 42.964844 94.996094 43.015625 C 95.039062 43.058594 95.117188 43.269531 95.179688 43.488281 C 95.496094 44.644531 95.539062 44.714844 95.890625 44.714844 C 96.488281 44.714844 96.578125 44.042969 96.148438 42.894531 C 95.855469 42.15625 95.363281 41.394531 94.792969 40.824219 C 94.355469 40.386719 93.679688 39.894531 93.527344 39.894531 C 93.476562 39.894531 93.433594 39.867188 93.433594 39.824219 C 93.433594 39.753906 93.003906 39.542969 92.84375 39.542969 C 92.78125 39.542969 92.730469 39.507812 92.730469 39.464844 C 92.730469 39.421875 92.640625 39.367188 92.535156 39.34375 C 92.421875 39.316406 92.253906 39.273438 92.160156 39.238281 C 92.054688 39.210938 91.894531 39.246094 91.78125 39.332031 Z M 91.78125 39.332031 " fill-opacity="1" fill-rule="nonzero"/><path fill="#000000" d="M 28.300781 50.027344 C 27.613281 50.132812 26.789062 50.800781 26.417969 51.554688 C 26.148438 52.105469 26.15625 53.230469 26.4375 53.761719 C 26.65625 54.191406 27.246094 54.796875 27.613281 54.964844 C 27.746094 55.027344 27.929688 55.113281 28.007812 55.15625 C 28.097656 55.203125 28.464844 55.238281 28.824219 55.238281 C 29.1875 55.238281 29.554688 55.203125 29.644531 55.15625 C 29.722656 55.113281 29.90625 55.027344 30.046875 54.964844 C 30.441406 54.78125 31.003906 54.183594 31.222656 53.71875 C 31.488281 53.160156 31.496094 52.070312 31.242188 51.527344 C 31.039062 51.097656 30.46875 50.511719 30.003906 50.257812 C 29.679688 50.082031 28.789062 49.957031 28.300781 50.027344 Z M 29.175781 51.554688 C 29.292969 51.554688 29.503906 51.675781 29.652344 51.828125 C 29.890625 52.0625 29.925781 52.152344 29.925781 52.589844 C 29.925781 53.113281 29.765625 53.394531 29.335938 53.632812 C 29.089844 53.773438 28.570312 53.78125 28.316406 53.640625 C 27.902344 53.429688 27.726562 53.113281 27.726562 52.597656 C 27.726562 52.167969 27.753906 52.089844 28.019531 51.84375 C 28.289062 51.582031 28.605469 51.457031 28.851562 51.519531 C 28.921875 51.535156 29.0625 51.554688 29.175781 51.554688 Z M 29.175781 51.554688 " fill-opacity="1" fill-rule="nonzero"/><path fill="#000000" d="M 102.121094 103.445312 C 101.707031 103.777344 101.925781 104.496094 102.445312 104.503906 C 102.664062 104.503906 103.09375 104.101562 103.09375 103.890625 C 103.09375 103.679688 102.699219 103.277344 102.496094 103.277344 C 102.402344 103.277344 102.234375 103.347656 102.121094 103.445312 Z M 102.121094 103.445312 " fill-opacity="1" fill-rule="nonzero"/><path fill="#000000" d="M 119.925781 105.523438 C 119.707031 105.75 119.652344 105.960938 119.6875 106.433594 C 119.707031 106.722656 120.1875 107.132812 120.503906 107.132812 C 120.855469 107.132812 121.367188 106.828125 121.367188 106.617188 C 121.367188 106.566406 121.410156 106.441406 121.472656 106.34375 C 121.558594 106.214844 121.550781 106.125 121.453125 105.933594 C 121.101562 105.265625 120.382812 105.074219 119.925781 105.523438 Z M 119.925781 105.523438 " fill-opacity="1" fill-rule="nonzero"/><path fill="#000000" d="M 99.527344 105.75 C 99.097656 105.949219 99.054688 106.441406 99.433594 106.785156 C 99.6875 107.019531 99.949219 107.003906 100.230469 106.730469 C 100.546875 106.414062 100.539062 106.066406 100.203125 105.828125 C 99.925781 105.625 99.800781 105.609375 99.527344 105.75 Z M 99.527344 105.75 " fill-opacity="1" fill-rule="nonzero"/><path fill="#000000" d="M 102.085938 105.960938 C 101.953125 106.054688 101.910156 106.195312 101.910156 106.476562 C 101.910156 107.097656 102.417969 107.34375 102.875 106.941406 C 103.480469 106.414062 102.726562 105.476562 102.085938 105.960938 Z M 102.085938 105.960938 " fill-opacity="1" fill-rule="nonzero"/><path fill="#000000" d="M 104.183594 107.363281 C 103.910156 107.425781 103.550781 107.863281 103.535156 108.152344 C 103.5 108.710938 103.542969 108.878906 103.804688 109.140625 C 104.035156 109.371094 104.140625 109.414062 104.5 109.414062 C 104.871094 109.414062 104.964844 109.371094 105.238281 109.097656 C 105.511719 108.828125 105.554688 108.730469 105.554688 108.371094 C 105.554688 107.625 104.964844 107.195312 104.183594 107.363281 Z M 104.183594 107.363281 " fill-opacity="1" fill-rule="nonzero"/><path fill="#000000" d="M 91.605469 108.828125 C 91.21875 109.238281 91.5 109.941406 92.042969 109.941406 C 92.316406 109.941406 92.730469 109.546875 92.730469 109.28125 C 92.730469 109.011719 92.316406 108.625 92.027344 108.625 C 91.894531 108.625 91.710938 108.710938 91.605469 108.828125 Z M 91.605469 108.828125 " fill-opacity="1" fill-rule="nonzero"/><path fill="#000000" d="M 72.535156 110.011719 C 72.367188 110.089844 72.113281 110.308594 71.964844 110.492188 C 71.726562 110.789062 71.699219 110.886719 71.691406 111.472656 L 71.691406 112.121094 L 72.105469 112.507812 C 72.359375 112.753906 72.625 112.921875 72.835938 112.957031 C 73.203125 113.027344 73.933594 112.9375 73.933594 112.824219 C 73.933594 112.78125 73.976562 112.746094 74.019531 112.746094 C 74.125 112.746094 74.371094 112.5 74.511719 112.253906 C 74.609375 112.097656 74.800781 112.085938 79.675781 112.042969 C 85.175781 112 84.914062 112.027344 84.914062 111.519531 C 84.914062 110.894531 84.964844 110.902344 79.519531 110.902344 C 75.671875 110.902344 74.632812 110.878906 74.632812 110.789062 C 74.632812 110.625 74.265625 110.238281 73.90625 110.035156 C 73.511719 109.816406 72.949219 109.800781 72.535156 110.011719 Z M 72.535156 110.011719 " fill-opacity="1" fill-rule="nonzero"/><path fill="#000000" d="M 43.722656 110.78125 C 43.363281 111.078125 43.355469 111.4375 43.707031 111.683594 C 44.03125 111.921875 44.277344 111.914062 44.550781 111.675781 C 44.855469 111.414062 44.839844 111.0625 44.496094 110.78125 C 44.347656 110.660156 44.171875 110.554688 44.109375 110.554688 C 44.046875 110.554688 43.871094 110.660156 43.722656 110.78125 Z M 43.722656 110.78125 " fill-opacity="1" fill-rule="nonzero"/><path fill="#000000" d="M 47.746094 110.683594 C 47.4375 110.851562 47.28125 111.210938 47.421875 111.457031 C 47.570312 111.738281 47.765625 111.859375 48.070312 111.867188 C 48.738281 111.867188 48.855469 110.992188 48.222656 110.660156 C 47.992188 110.535156 48.027344 110.535156 47.746094 110.683594 Z M 47.746094 110.683594 " fill-opacity="1" fill-rule="nonzero"/><path fill="#000000" d="M 50.566406 110.675781 C 50.101562 110.878906 50.011719 111.203125 50.3125 111.613281 C 50.539062 111.9375 50.996094 111.964844 51.269531 111.675781 C 51.488281 111.4375 51.496094 111.167969 51.269531 110.886719 C 51.058594 110.613281 50.847656 110.554688 50.566406 110.675781 Z M 50.566406 110.675781 " fill-opacity="1" fill-rule="nonzero"/><path fill="#000000" d="M 56.546875 110.808594 C 56.214844 111.113281 56.207031 111.332031 56.503906 111.640625 C 56.792969 111.929688 57.144531 111.9375 57.402344 111.667969 C 57.714844 111.324219 57.621094 110.886719 57.179688 110.660156 C 56.910156 110.511719 56.855469 110.527344 56.546875 110.808594 Z M 56.546875 110.808594 " fill-opacity="1" fill-rule="nonzero"/><path fill="#000000" d="M 59.339844 110.683594 C 58.964844 110.894531 58.910156 111.5 59.253906 111.753906 C 59.464844 111.921875 59.921875 111.894531 60.078125 111.710938 C 60.308594 111.464844 60.265625 111.054688 60 110.78125 C 59.738281 110.519531 59.65625 110.511719 59.339844 110.683594 Z M 59.339844 110.683594 " fill-opacity="1" fill-rule="nonzero"/><path fill="#000000" d="M 86.0625 110.824219 C 85.871094 111.019531 85.789062 111.175781 85.789062 111.386719 C 85.789062 111.808594 86.222656 112.21875 86.652344 112.21875 C 87.414062 112.21875 87.777344 111.324219 87.230469 110.78125 C 86.886719 110.449219 86.421875 110.464844 86.0625 110.824219 Z M 86.0625 110.824219 " fill-opacity="1" fill-rule="nonzero"/><path fill="#000000" d="M 40.832031 110.78125 C 40.691406 110.878906 40.640625 111 40.640625 111.246094 C 40.640625 111.789062 41.027344 112.007812 41.5625 111.761719 C 41.746094 111.683594 41.78125 111.605469 41.78125 111.316406 C 41.78125 110.746094 41.289062 110.457031 40.832031 110.78125 Z M 40.832031 110.78125 " fill-opacity="1" fill-rule="nonzero"/><path fill="#000000" d="M 89.164062 110.886719 C 88.757812 111.210938 88.75 111.429688 89.121094 111.886719 C 89.285156 112.097656 89.761719 112.085938 89.945312 111.886719 C 90.164062 111.640625 90.136719 111.148438 89.890625 110.921875 C 89.648438 110.695312 89.410156 110.675781 89.164062 110.886719 Z M 89.164062 110.886719 " fill-opacity="1" fill-rule="nonzero"/><path fill="#000000" d="M 42.378906 112.289062 C 42.246094 112.308594 42.003906 112.457031 41.828125 112.632812 C 41.570312 112.886719 41.519531 113 41.519531 113.324219 C 41.519531 113.945312 41.730469 114.21875 42.351562 114.402344 C 42.679688 114.5 42.765625 114.488281 43.066406 114.347656 C 43.257812 114.261719 43.441406 114.105469 43.496094 113.988281 C 43.539062 113.886719 43.609375 113.796875 43.644531 113.796875 C 43.6875 113.796875 43.714844 113.605469 43.714844 113.375 C 43.714844 113.015625 43.671875 112.902344 43.433594 112.640625 C 43.144531 112.316406 42.84375 112.21875 42.378906 112.289062 Z M 42.378906 112.289062 " fill-opacity="1" fill-rule="nonzero"/><path fill="#000000" d="M 46.042969 112.289062 C 45.761719 112.386719 45.601562 112.507812 45.402344 112.808594 C 45.09375 113.246094 45.183594 113.734375 45.648438 114.164062 C 45.910156 114.410156 46.703125 114.429688 46.957031 114.199219 C 47.195312 113.980469 47.402344 113.558594 47.402344 113.296875 C 47.402344 112.667969 46.621094 112.097656 46.042969 112.289062 Z M 46.042969 112.289062 " fill-opacity="1" fill-rule="nonzero"/><path fill="#000000" d="M 65.78125 113.675781 C 65.632812 113.78125 65.585938 113.894531 65.585938 114.199219 C 65.585938 114.558594 65.613281 114.605469 65.886719 114.734375 C 66.175781 114.867188 66.191406 114.867188 66.457031 114.683594 C 66.675781 114.523438 66.730469 114.429688 66.730469 114.15625 C 66.730469 113.605469 66.238281 113.351562 65.78125 113.675781 Z M 65.78125 113.675781 " fill-opacity="1" fill-rule="nonzero"/><g clip-path="url(#d351c9748f)"><path fill="#000000" d="M 65.867188 116.191406 C 65.753906 116.242188 65.597656 116.402344 65.515625 116.53125 C 65.394531 116.734375 65.394531 116.796875 65.5 116.996094 C 65.570312 117.121094 65.753906 117.285156 65.914062 117.355469 C 66.175781 117.488281 66.210938 117.488281 66.457031 117.3125 C 66.886719 117.003906 66.914062 116.566406 66.527344 116.226562 C 66.316406 116.050781 66.148438 116.042969 65.867188 116.191406 Z M 65.867188 116.191406 " fill-opacity="1" fill-rule="nonzero"/></g><g clip-path="url(#3fdc079344)"><path fill="#000000" d="M 56.511719 116.226562 C 56.40625 116.332031 56.453125 116.925781 56.574219 117.03125 C 56.652344 117.101562 57.726562 117.121094 60.371094 117.109375 L 64.050781 117.085938 L 64.050781 116.207031 L 60.308594 116.183594 C 58.253906 116.171875 56.539062 116.191406 56.511719 116.226562 Z M 56.511719 116.226562 " fill-opacity="1" fill-rule="nonzero"/></g></svg>