<svg xmlns="http://www.w3.org/2000/svg" xmlns:xlink="http://www.w3.org/1999/xlink" width="200" zoomAndPan="magnify" viewBox="0 0 150 149.999998" height="200" preserveAspectRatio="xMidYMid meet" version="1.0"><defs><clipPath id="02a9c520c7"><path d="M 15 26.566406 L 131.25 26.566406 L 131.25 123 L 15 123 Z M 15 26.566406 " clip-rule="nonzero"/></clipPath></defs><rect x="-15" width="180" fill="#ffffff" y="-15" height="179.999997" fill-opacity="1"/><rect x="-15" width="180" fill="#ffffff" y="-15" height="179.999997" fill-opacity="1"/><g clip-path="url(#02a9c520c7)"><path fill="#000000" d="M 77.445312 26.792969 C 76.597656 26.988281 75.972656 27.40625 75.496094 28.097656 C 75.117188 28.648438 75.03125 28.945312 75.03125 29.703125 C 75.03125 30.234375 75.144531 30.851562 75.289062 31.136719 L 75.550781 31.636719 L 68.84375 35.648438 C 60.167969 40.84375 61.160156 40.3125 60.792969 39.980469 C 60.378906 39.601562 60.117188 39.628906 59.625 40.101562 C 59.285156 40.425781 58.777344 40.578125 56.851562 40.929688 C 55.550781 41.167969 53.871094 41.507812 53.113281 41.683594 C 51.683594 42.015625 51.3125 41.996094 51.3125 41.597656 C 51.3125 41.261719 50.546875 40.386719 50 40.105469 C 49.414062 39.800781 48.171875 39.796875 47.601562 40.097656 C 46.605469 40.617188 45.941406 41.707031 45.941406 42.816406 C 45.941406 43.050781 46.109375 43.570312 46.3125 43.976562 L 46.679688 44.707031 L 43.289062 47.636719 C 38.964844 51.367188 39.195312 51.199219 38.8125 50.957031 C 38.410156 50.707031 37.6875 50.890625 37.566406 51.269531 C 37.46875 51.578125 36.621094 51.667969 27.21875 52.375 C 25.5625 52.496094 23.714844 52.648438 23.121094 52.707031 L 22.035156 52.8125 L 21.699219 52.152344 C 20.796875 50.378906 18.769531 49.691406 17.011719 50.570312 C 15.769531 51.191406 15.007812 52.4375 15.007812 53.847656 C 15.007812 55.207031 15.757812 56.394531 17.027344 57.050781 C 17.964844 57.535156 19.628906 57.421875 20.414062 56.820312 L 20.984375 56.386719 L 21.554688 56.777344 C 22.761719 57.597656 32.859375 63.921875 37.515625 66.773438 L 40.566406 68.640625 L 40.566406 69.394531 C 40.566406 70.339844 41.0625 71.386719 41.820312 72.054688 C 42.140625 72.335938 42.335938 72.625 42.257812 72.695312 C 42.179688 72.769531 40.65625 73.972656 38.871094 75.371094 L 35.628906 77.917969 L 35.015625 77.359375 C 33.527344 76.011719 31.394531 76.738281 31.023438 78.722656 C 30.683594 80.523438 32.46875 81.988281 34.148438 81.285156 L 34.773438 81.023438 L 37.832031 84.089844 C 39.515625 85.777344 40.894531 87.269531 40.894531 87.40625 C 40.894531 87.839844 41.363281 88.355469 41.851562 88.460938 C 42.421875 88.589844 42.464844 88.785156 42.621094 92.183594 C 42.699219 93.820312 42.679688 94.59375 42.5625 94.59375 C 42.472656 94.59375 42.347656 94.777344 42.292969 95 C 42.234375 95.226562 42.117188 95.410156 42.027344 95.410156 C 41.859375 95.410156 36.773438 96.320312 35.988281 96.492188 C 35.621094 96.570312 35.519531 96.5 35.257812 95.964844 C 34.609375 94.65625 33.050781 94.425781 31.992188 95.488281 C 31.523438 95.957031 31.449219 96.140625 31.449219 96.851562 C 31.449219 97.851562 31.976562 98.582031 32.875 98.832031 C 33.957031 99.128906 34.910156 98.667969 35.355469 97.621094 L 35.640625 96.953125 L 39.019531 96.351562 C 41.398438 95.921875 42.484375 95.792969 42.691406 95.902344 C 42.855469 95.988281 43.101562 96.015625 43.242188 95.964844 C 43.382812 95.910156 43.5 95.933594 43.5 96.019531 C 43.5 96.105469 44.542969 98.300781 45.820312 100.898438 C 47.09375 103.496094 48.160156 105.664062 48.1875 105.71875 C 48.210938 105.777344 47.867188 105.855469 47.417969 105.898438 C 44.523438 106.179688 43.820312 110.28125 46.441406 111.621094 C 48.027344 112.433594 50.105469 111.566406 50.664062 109.855469 C 50.765625 109.546875 50.878906 109.296875 50.910156 109.296875 C 50.941406 109.296875 52.96875 110.132812 55.414062 111.152344 C 63.214844 114.410156 68.089844 116.429688 70.933594 117.582031 L 73.699219 118.707031 L 73.800781 119.527344 C 74.09375 121.894531 76.019531 123.320312 78.300781 122.847656 C 79.089844 122.683594 79.367188 122.523438 80.074219 121.816406 C 80.765625 121.117188 80.941406 120.816406 81.113281 120.042969 L 81.320312 119.105469 L 82.394531 118.703125 C 82.988281 118.480469 85.484375 117.5625 87.949219 116.667969 C 90.410156 115.773438 94.210938 114.375 96.390625 113.558594 C 98.574219 112.742188 100.414062 112.074219 100.480469 112.074219 C 100.546875 112.074219 100.792969 112.359375 101.023438 112.707031 C 101.851562 113.964844 103.789062 114.414062 105.117188 113.660156 C 106.621094 112.804688 107.226562 110.910156 106.46875 109.429688 L 106.078125 108.667969 L 108.613281 106.65625 C 110.007812 105.550781 111.664062 104.195312 112.289062 103.648438 L 113.433594 102.652344 L 115.464844 102.800781 L 116.199219 102.066406 C 116.867188 101.394531 116.929688 101.265625 116.929688 100.519531 C 116.929688 99.273438 116.164062 98.355469 114.800781 97.964844 C 114.628906 97.917969 113.964844 96.230469 112.800781 92.882812 C 111.839844 90.128906 110.875 87.46875 110.652344 86.964844 C 110.175781 85.886719 110.183594 85.933594 110.523438 85.933594 C 110.675781 85.933594 110.917969 85.824219 111.0625 85.691406 C 111.304688 85.476562 111.941406 85.652344 117.101562 87.378906 C 120.273438 88.4375 123.367188 89.449219 123.972656 89.621094 C 125.03125 89.921875 125.074219 89.953125 125.042969 90.425781 C 124.976562 91.46875 125.085938 91.949219 125.5625 92.667969 C 127.273438 95.265625 131.25 93.984375 131.25 90.835938 C 131.25 89.03125 129.984375 87.785156 127.894531 87.527344 C 127.691406 87.503906 125.480469 85.5 122.652344 82.777344 L 117.765625 78.070312 L 118.160156 77.320312 C 118.832031 76.054688 118.652344 74.335938 117.746094 73.382812 C 117.382812 73.003906 117.382812 73.003906 117.703125 72.648438 C 117.878906 72.453125 119.105469 70.675781 120.425781 68.699219 C 121.746094 66.722656 122.84375 65.085938 122.863281 65.0625 C 122.886719 65.039062 123.117188 65.128906 123.375 65.265625 C 124.828125 66.023438 126.679688 64.683594 126.476562 63.015625 C 126.328125 61.800781 125.445312 61.0625 124.109375 61.035156 L 123.394531 61.019531 L 122.761719 59.0625 C 121.503906 55.175781 120.023438 50.382812 120.023438 50.210938 C 120.023438 50.113281 120.230469 49.992188 120.488281 49.941406 C 121.113281 49.816406 121.96875 49.070312 122.242188 48.414062 C 122.710938 47.289062 122.296875 45.789062 121.324219 45.09375 C 120.6875 44.636719 119.414062 44.476562 118.722656 44.765625 C 117.929688 45.09375 117.128906 46.105469 117.003906 46.941406 C 116.945312 47.34375 116.945312 47.824219 117 48.007812 C 117.128906 48.414062 117.308594 48.386719 111.246094 48.871094 C 107.835938 49.140625 106.714844 49.183594 106.488281 49.039062 C 106.007812 48.738281 105.558594 48.820312 105.273438 49.257812 C 105.019531 49.644531 104.921875 49.667969 103.566406 49.667969 C 102.777344 49.667969 102.09375 49.609375 102.050781 49.535156 C 102.003906 49.460938 102.902344 47.828125 104.039062 45.898438 C 105.179688 43.972656 106.460938 41.804688 106.886719 41.078125 C 107.585938 39.886719 107.703125 39.765625 108.101562 39.820312 C 108.667969 39.894531 109.511719 39.371094 109.929688 38.683594 C 110.566406 37.636719 110.171875 36.164062 109.101562 35.589844 C 107.574219 34.765625 105.859375 35.792969 105.855469 37.53125 L 105.855469 38.148438 L 102.417969 38.679688 C 100.527344 38.96875 98.914062 39.167969 98.835938 39.117188 C 98.757812 39.070312 98.691406 38.886719 98.691406 38.714844 C 98.691406 38.542969 98.480469 38.160156 98.21875 37.867188 C 97.78125 37.375 97.664062 37.332031 96.753906 37.332031 C 95.859375 37.332031 95.71875 37.382812 95.234375 37.867188 C 94.769531 38.335938 94.703125 38.507812 94.703125 39.257812 C 94.703125 39.726562 94.761719 40.269531 94.832031 40.460938 C 94.945312 40.773438 94.757812 40.921875 92.957031 41.945312 C 91.859375 42.570312 90.582031 43.304688 90.121094 43.582031 L 89.285156 44.082031 L 85.484375 39.402344 C 83.394531 36.828125 81.214844 34.175781 80.640625 33.515625 C 79.757812 32.496094 79.636719 32.285156 79.859375 32.160156 C 80.402344 31.855469 80.945312 30.648438 80.945312 29.753906 C 80.945312 28.796875 80.699219 28.21875 80.023438 27.59375 C 79.226562 26.851562 78.355469 26.582031 77.445312 26.792969 Z M 76.277344 32.375 C 76.390625 32.554688 75.648438 34.785156 73.542969 40.585938 C 71.953125 44.96875 70.609375 48.710938 70.5625 48.90625 C 70.515625 49.101562 70.339844 49.433594 70.175781 49.648438 C 70.007812 49.863281 69.875 50.25 69.875 50.507812 C 69.875 51.0625 69.742188 51.082031 68.898438 50.648438 C 67.976562 50.175781 66.664062 50.210938 65.640625 50.730469 C 65.199219 50.953125 64.8125 51.136719 64.777344 51.136719 C 64.707031 51.136719 63.417969 48.402344 62.390625 46.074219 C 62.015625 45.21875 61.382812 43.835938 60.988281 42.996094 C 60.59375 42.15625 60.269531 41.441406 60.269531 41.402344 C 60.269531 41.367188 60.394531 41.335938 60.546875 41.335938 C 60.699219 41.335938 60.976562 41.160156 61.15625 40.945312 C 61.402344 40.65625 72.820312 33.703125 75.492188 32.214844 C 75.878906 32 76.066406 32.039062 76.277344 32.375 Z M 83.839844 38.128906 C 88.039062 43.238281 88.835938 44.253906 88.730469 44.363281 C 88.6875 44.40625 86.679688 45.574219 84.273438 46.953125 C 80.105469 49.347656 79.882812 49.453125 79.527344 49.222656 C 79.195312 49.003906 79.113281 49.003906 78.75 49.242188 C 78.324219 49.523438 78.207031 50.121094 78.519531 50.433594 C 78.644531 50.558594 78.539062 50.8125 78.152344 51.328125 C 77.851562 51.722656 77.492188 52.222656 77.351562 52.441406 L 77.09375 52.835938 L 74.5 51.640625 C 71.167969 50.105469 70.8125 49.875 70.914062 49.328125 C 70.980469 48.984375 75.238281 37.101562 76.539062 33.632812 L 76.886719 32.710938 L 77.492188 32.792969 C 77.824219 32.835938 78.351562 32.804688 78.667969 32.71875 C 79.199219 32.574219 79.269531 32.601562 79.726562 33.140625 C 79.992188 33.457031 81.847656 35.703125 83.839844 38.128906 Z M 106.320312 39.023438 C 106.558594 39.277344 106.859375 39.519531 106.992188 39.566406 C 107.179688 39.628906 107.027344 39.996094 106.328125 41.183594 C 105.828125 42.03125 104.636719 44.054688 103.679688 45.683594 C 102.460938 47.753906 101.746094 48.796875 101.292969 49.160156 C 100.648438 49.683594 100.644531 49.683594 99.671875 49.492188 C 99.136719 49.386719 98.597656 49.214844 98.472656 49.117188 C 98.320312 48.996094 98.09375 47.816406 97.804688 45.664062 C 97.566406 43.867188 97.332031 42.175781 97.285156 41.902344 C 97.214844 41.464844 97.269531 41.375 97.769531 41.136719 C 98.144531 40.957031 98.429688 40.652344 98.613281 40.234375 L 98.890625 39.601562 L 100.949219 39.300781 C 102.082031 39.136719 103.519531 38.910156 104.148438 38.796875 C 105.785156 38.503906 105.84375 38.511719 106.320312 39.023438 Z M 59.652344 41.402344 C 59.804688 41.613281 60.664062 43.414062 61.566406 45.40625 C 62.464844 47.394531 63.492188 49.609375 63.851562 50.320312 L 64.5 51.621094 L 64.175781 52.15625 C 64 52.449219 63.851562 52.847656 63.851562 53.042969 C 63.851562 53.371094 63.808594 53.382812 63.28125 53.21875 C 62.910156 53.105469 62.710938 52.941406 62.710938 52.753906 C 62.710938 52.371094 62.25 51.925781 61.917969 51.988281 C 61.757812 52.019531 61.226562 51.5625 60.5625 50.8125 C 59.46875 49.585938 59.46875 49.585938 59.820312 49.316406 C 60.121094 49.082031 60.144531 48.988281 59.988281 48.636719 C 59.867188 48.371094 59.613281 48.1875 59.261719 48.113281 C 58.964844 48.046875 57.917969 47.5 56.929688 46.890625 C 55.945312 46.285156 54.316406 45.292969 53.308594 44.6875 C 51.558594 43.640625 51.476562 43.566406 51.476562 43.046875 L 51.476562 42.503906 L 52.984375 42.164062 C 55.574219 41.578125 58.375 41.039062 58.886719 41.027344 C 59.21875 41.023438 59.460938 41.140625 59.652344 41.402344 Z M 96.140625 41.296875 C 96.667969 41.386719 96.808594 41.675781 96.964844 42.96875 C 97.023438 43.464844 97.226562 44.957031 97.410156 46.285156 C 97.722656 48.53125 97.726562 48.742188 97.484375 49.253906 C 97.246094 49.757812 97.140625 49.816406 96.308594 49.921875 C 95.804688 49.984375 95.125 50.042969 94.792969 50.054688 C 94.121094 50.070312 94.015625 49.972656 91.9375 47.386719 C 91.308594 46.605469 90.503906 45.613281 90.148438 45.179688 C 89.609375 44.53125 89.539062 44.367188 89.738281 44.246094 C 92.816406 42.386719 95.242188 41.0625 95.4375 41.128906 C 95.570312 41.179688 95.886719 41.253906 96.140625 41.296875 Z M 53.378906 45.246094 C 58.726562 48.566406 58.640625 48.503906 58.640625 49.066406 C 58.640625 49.488281 58.871094 49.808594 59.964844 50.914062 C 61.066406 52.023438 61.273438 52.316406 61.191406 52.632812 C 61.136719 52.84375 60.488281 53.53125 59.753906 54.160156 C 59.015625 54.789062 57.449219 56.148438 56.273438 57.183594 C 48.492188 64.023438 46.53125 65.679688 46.214844 65.671875 C 46.109375 65.667969 45.839844 65.558594 45.617188 65.433594 C 45.390625 65.304688 45.003906 65.195312 44.757812 65.191406 C 44.359375 65.1875 44.320312 65.140625 44.410156 64.777344 C 44.464844 64.550781 45.40625 60.160156 46.503906 55.015625 L 48.492188 45.664062 L 49.230469 45.480469 C 50.140625 45.25 50.703125 44.890625 50.988281 44.355469 C 51.109375 44.132812 51.226562 43.949219 51.246094 43.949219 C 51.269531 43.949219 52.230469 44.53125 53.378906 45.246094 Z M 89.277344 44.753906 C 89.328125 44.894531 91.84375 48.019531 93.191406 49.613281 C 93.558594 50.046875 93.757812 50.425781 93.699219 50.578125 C 93.644531 50.726562 93.773438 51.015625 94.011719 51.269531 C 94.546875 51.84375 94.785156 52.328125 94.785156 52.832031 C 94.785156 53.171875 94.449219 53.480469 92.871094 54.589844 C 89.300781 57.105469 89.40625 57.042969 88.871094 56.925781 C 87.867188 56.703125 78.457031 53.734375 77.988281 53.492188 C 77.675781 53.332031 77.535156 53.152344 77.589844 53.003906 C 77.824219 52.398438 79.058594 50.773438 79.410156 50.613281 C 79.625 50.515625 79.84375 50.300781 79.894531 50.136719 C 79.949219 49.960938 81.601562 48.921875 83.925781 47.601562 C 86.09375 46.367188 88.121094 45.191406 88.433594 44.980469 C 89.054688 44.566406 89.195312 44.527344 89.277344 44.753906 Z M 48.015625 45.496094 C 48.039062 45.511719 47.503906 48.132812 46.828125 51.3125 C 46.148438 54.496094 45.214844 58.917969 44.75 61.140625 C 44.285156 63.363281 43.824219 65.214844 43.722656 65.253906 C 43.53125 65.328125 42.796875 63.410156 40.34375 56.421875 C 39.109375 52.90625 38.976562 52.429688 39.152344 52.046875 C 39.257812 51.808594 40.960938 50.234375 42.933594 48.539062 C 44.902344 46.847656 46.613281 45.34375 46.734375 45.199219 C 46.933594 44.960938 46.992188 44.960938 47.464844 45.199219 C 47.746094 45.34375 47.992188 45.476562 48.015625 45.496094 Z M 117.085938 49.074219 C 116.804688 49.339844 111.296875 52.878906 110.285156 53.441406 L 109.585938 53.832031 L 109.085938 53.261719 C 108.808594 52.945312 108.066406 52.109375 107.433594 51.402344 C 105.832031 49.609375 105.589844 49.726562 111.960938 49.242188 C 113.84375 49.097656 115.414062 48.953125 115.449219 48.917969 C 115.488281 48.878906 115.921875 48.851562 116.421875 48.851562 C 117.195312 48.851562 117.289062 48.882812 117.085938 49.074219 Z M 116.980469 49.871094 C 116.800781 50.074219 115.710938 51.339844 114.5625 52.683594 C 113.332031 54.121094 112.234375 55.246094 111.898438 55.417969 L 111.324219 55.710938 L 110.625 55.023438 C 110.242188 54.644531 109.925781 54.296875 109.925781 54.25 C 109.925781 54.199219 110.238281 53.992188 110.621094 53.789062 C 111 53.585938 112.628906 52.546875 114.242188 51.476562 C 115.855469 50.40625 117.203125 49.527344 117.242188 49.519531 C 117.28125 49.511719 117.164062 49.667969 116.980469 49.871094 Z M 118.394531 49.832031 C 118.5625 49.921875 118.878906 50.011719 119.09375 50.027344 C 119.457031 50.058594 119.5625 50.296875 120.425781 53.089844 C 120.941406 54.757812 121.726562 57.296875 122.171875 58.734375 C 122.648438 60.265625 122.925781 61.421875 122.84375 61.527344 C 122.222656 62.359375 122.113281 62.625 122.113281 63.308594 C 122.113281 63.722656 122.222656 64.230469 122.355469 64.4375 C 122.589844 64.789062 122.566406 64.863281 122.027344 65.613281 C 121.710938 66.050781 120.507812 67.828125 119.351562 69.558594 C 118.195312 71.285156 117.214844 72.703125 117.171875 72.703125 C 117.125 72.703125 116.816406 72.554688 116.480469 72.375 C 115.671875 71.941406 114.207031 71.933594 113.367188 72.363281 L 112.75 72.679688 L 109.679688 69.597656 C 106.636719 66.539062 106.613281 66.507812 106.816406 66.054688 C 106.925781 65.800781 108.09375 63.667969 109.410156 61.308594 C 111.621094 57.34375 111.832031 57.023438 112.242188 57.019531 C 112.863281 57.019531 113.300781 56.347656 113.046875 55.785156 C 112.894531 55.453125 112.914062 55.324219 113.144531 55.082031 C 113.300781 54.917969 114.40625 53.632812 115.601562 52.226562 C 116.800781 50.820312 117.847656 49.667969 117.933594 49.667969 C 118.019531 49.667969 118.226562 49.742188 118.394531 49.832031 Z M 100.910156 50.203125 C 101.003906 50.300781 99.625 55.992188 99.476562 56.117188 C 99.449219 56.136719 99.113281 56.195312 98.730469 56.246094 C 98.078125 56.328125 98.019531 56.304688 97.773438 55.820312 C 97.632812 55.535156 97.230469 54.921875 96.882812 54.453125 C 96.480469 53.914062 96.25 53.425781 96.25 53.117188 C 96.25 52.742188 96.125 52.554688 95.679688 52.28125 C 95.050781 51.890625 94.785156 51.503906 94.785156 50.980469 C 94.785156 50.542969 94.882812 50.507812 97.003906 50.242188 C 98.796875 50.015625 100.703125 49.996094 100.910156 50.203125 Z M 105.878906 50.445312 C 106.265625 50.703125 109.113281 53.945312 109.113281 54.128906 C 109.113281 54.238281 102.761719 58.382812 102.710938 58.308594 C 102.117188 57.421875 101.609375 56.9375 100.921875 56.589844 C 100.457031 56.355469 100.054688 56.144531 100.027344 56.121094 C 100 56.097656 100.289062 54.910156 100.664062 53.484375 C 101.542969 50.167969 101.546875 50.160156 103.820312 50.160156 C 105.097656 50.160156 105.542969 50.222656 105.878906 50.445312 Z M 74.152344 51.960938 L 76.378906 52.96875 L 76.339844 53.582031 C 76.304688 54.082031 76.089844 54.421875 75.136719 55.476562 L 73.976562 56.761719 L 72.457031 56.375 C 71.617188 56.164062 70.882812 55.945312 70.824219 55.890625 C 70.761719 55.839844 70.816406 55.398438 70.941406 54.914062 C 71.210938 53.886719 71.042969 52.808594 70.5 52.058594 L 70.164062 51.589844 L 70.628906 51.199219 C 71.238281 50.691406 71.441406 50.734375 74.152344 51.960938 Z M 37.523438 52.175781 C 37.570312 52.296875 37.816406 52.441406 38.070312 52.496094 C 38.515625 52.589844 38.597656 52.773438 40.058594 56.96875 C 40.894531 59.378906 41.914062 62.226562 42.320312 63.296875 L 43.0625 65.25 L 42.675781 65.503906 C 41.796875 66.085938 41.316406 66.605469 40.976562 67.339844 L 40.617188 68.117188 L 39.25 67.28125 C 36.003906 65.300781 22.96875 57.125 22.046875 56.496094 L 21.355469 56.023438 L 21.691406 55.367188 C 21.875 55.007812 22.039062 54.386719 22.054688 53.992188 C 22.09375 53.128906 21.335938 53.273438 28.84375 52.691406 C 33.839844 52.304688 37.070312 52.03125 37.335938 51.976562 C 37.394531 51.964844 37.476562 52.054688 37.523438 52.175781 Z M 63.046875 53.589844 C 63.609375 53.742188 63.652344 53.800781 63.753906 54.554688 C 63.820312 55.082031 64.054688 55.648438 64.425781 56.1875 L 64.992188 57.011719 L 64.625 57.242188 C 64.421875 57.367188 60.933594 59.46875 56.867188 61.914062 C 52.804688 64.355469 49.105469 66.605469 48.652344 66.910156 C 47.902344 67.417969 47.808594 67.441406 47.675781 67.1875 C 47.59375 67.03125 47.332031 66.695312 47.097656 66.441406 C 46.703125 66.015625 46.695312 65.96875 46.964844 65.816406 C 47.246094 65.660156 50.160156 63.152344 56.363281 57.738281 C 58.019531 56.292969 59.847656 54.695312 60.429688 54.1875 C 61.5625 53.203125 61.59375 53.199219 63.046875 53.589844 Z M 96.753906 55.15625 L 97.671875 56.480469 L 96.9375 57.035156 C 96.378906 57.460938 95.617188 58.46875 95.511719 58.933594 C 95.503906 58.960938 92.042969 57.929688 89.992188 57.289062 C 89.90625 57.265625 90.96875 56.457031 92.351562 55.5 C 95.503906 53.3125 95.472656 53.316406 96.753906 55.15625 Z M 81.417969 55.15625 C 83.351562 55.746094 85.832031 56.503906 86.929688 56.839844 L 88.925781 57.445312 L 87.410156 58.449219 C 86.28125 59.199219 85.800781 59.429688 85.527344 59.359375 C 85.324219 59.304688 84.980469 59.359375 84.761719 59.476562 C 84.410156 59.664062 83.855469 59.546875 79.765625 58.410156 C 77.234375 57.707031 74.992188 57.066406 74.78125 56.992188 C 74.398438 56.851562 74.398438 56.84375 75.121094 56.070312 C 75.515625 55.644531 75.972656 55.09375 76.132812 54.851562 C 76.296875 54.597656 76.574219 54.402344 76.773438 54.402344 C 76.964844 54.402344 77.230469 54.328125 77.363281 54.242188 C 77.5 54.15625 77.675781 54.082031 77.753906 54.082031 C 77.835938 54.078125 79.484375 54.5625 81.417969 55.15625 Z M 110.625 55.570312 C 111.144531 56.121094 111.546875 56.621094 111.519531 56.683594 C 111.496094 56.742188 110.304688 58.867188 108.875 61.398438 L 106.273438 66.007812 L 104.75 64.492188 C 103.914062 63.660156 103.082031 62.777344 102.902344 62.53125 C 102.585938 62.09375 102.585938 62.054688 102.855469 61.34375 C 103.054688 60.816406 103.109375 60.355469 103.039062 59.699219 L 102.945312 58.789062 L 106.152344 56.679688 C 107.914062 55.519531 109.429688 54.570312 109.519531 54.570312 C 109.609375 54.570312 110.105469 55.019531 110.625 55.570312 Z M 71.980469 56.707031 C 72.65625 56.894531 73.265625 57.101562 73.335938 57.164062 C 73.460938 57.285156 71.722656 59.304688 71.492188 59.304688 C 71.421875 59.304688 70.996094 58.773438 70.546875 58.125 C 69.785156 57.027344 69.746094 56.925781 69.988281 56.65625 C 70.320312 56.285156 70.484375 56.292969 71.980469 56.707031 Z M 65.878906 57.535156 C 66.105469 57.640625 66.292969 57.769531 66.292969 57.820312 C 66.292969 57.875 66.074219 59.425781 65.8125 61.265625 C 65.273438 65.050781 64.964844 66.398438 64.53125 66.890625 C 64.363281 67.078125 63.785156 67.855469 63.238281 68.617188 C 62.695312 69.382812 62.148438 70.136719 62.03125 70.296875 C 61.820312 70.578125 61.585938 70.566406 56.601562 70.085938 C 53.738281 69.808594 50.71875 69.519531 49.894531 69.441406 C 49.070312 69.359375 48.316406 69.25 48.226562 69.191406 C 48.132812 69.136719 48.058594 68.804688 48.058594 68.457031 L 48.058594 67.828125 L 50.460938 66.34375 C 54.914062 63.59375 65.234375 57.359375 65.347656 57.351562 C 65.414062 57.347656 65.648438 57.429688 65.878906 57.535156 Z M 70.125 58.425781 C 70.546875 59.019531 70.902344 59.59375 70.914062 59.703125 C 70.941406 59.964844 66.296875 64.859375 66.023438 64.859375 C 65.746094 64.859375 65.726562 65.125 66.292969 61.183594 C 66.5625 59.320312 66.78125 57.785156 66.78125 57.769531 C 66.78125 57.753906 67.15625 57.726562 67.609375 57.707031 C 68.066406 57.6875 68.5625 57.601562 68.710938 57.511719 C 69.191406 57.230469 69.347656 57.332031 70.125 58.425781 Z M 79.316406 58.761719 C 82.140625 59.542969 84.46875 60.195312 84.492188 60.210938 C 84.519531 60.226562 83.816406 61.371094 82.929688 62.753906 C 82.046875 64.136719 80.910156 65.964844 80.40625 66.816406 L 79.488281 68.359375 L 78.539062 68.371094 L 77.59375 68.386719 L 75.320312 65.039062 C 74.070312 63.195312 72.730469 61.261719 72.339844 60.738281 L 71.632812 59.789062 L 72.746094 58.582031 C 73.363281 57.917969 73.9375 57.367188 74.027344 57.355469 C 74.117188 57.347656 76.496094 57.980469 79.316406 58.761719 Z M 92.449219 58.527344 L 95.402344 59.386719 L 95.46875 60.390625 C 95.515625 61.125 95.644531 61.566406 95.964844 62.046875 L 96.398438 62.703125 L 95.46875 63.570312 C 94.960938 64.042969 93.40625 65.507812 92.019531 66.824219 C 90.535156 68.234375 89.308594 69.265625 89.039062 69.332031 C 88.460938 69.476562 88.125 70.140625 88.402344 70.589844 C 88.714844 71.085938 88.632812 71.363281 88.152344 71.453125 C 87.90625 71.5 86.339844 71.589844 84.671875 71.648438 L 81.640625 71.753906 L 81.523438 71.132812 C 81.398438 70.457031 80.847656 69.273438 80.65625 69.265625 C 80.59375 69.261719 80.371094 69.121094 80.167969 68.949219 L 79.800781 68.640625 L 80.808594 66.953125 C 82.152344 64.710938 84.34375 61.25 84.632812 60.921875 C 84.765625 60.769531 85.019531 60.691406 85.234375 60.730469 C 85.617188 60.804688 85.914062 60.566406 86.015625 60.101562 C 86.070312 59.847656 88.972656 57.738281 89.332031 57.6875 C 89.421875 57.675781 90.824219 58.054688 92.449219 58.527344 Z M 74.515625 64.742188 C 75.902344 66.785156 77.039062 68.5 77.039062 68.542969 C 77.039062 68.589844 76.777344 68.855469 76.460938 69.136719 C 75.785156 69.730469 75.410156 70.390625 75.410156 70.984375 C 75.410156 71.214844 75.308594 71.445312 75.183594 71.492188 C 75.058594 71.539062 73.429688 71.464844 71.5625 71.324219 C 69.691406 71.183594 66.957031 70.988281 65.480469 70.886719 C 64 70.785156 62.730469 70.644531 62.65625 70.574219 C 62.578125 70.507812 63.011719 69.761719 63.621094 68.921875 C 64.226562 68.078125 64.875 67.15625 65.058594 66.867188 C 65.296875 66.503906 65.527344 66.34375 65.824219 66.335938 C 66.355469 66.328125 66.652344 65.992188 66.585938 65.476562 C 66.546875 65.164062 67.019531 64.578125 68.898438 62.609375 L 71.257812 60.136719 L 71.625 60.578125 C 71.828125 60.820312 73.128906 62.695312 74.515625 64.742188 Z M 104.550781 69.117188 C 103.734375 70.59375 103.007812 71.859375 102.9375 71.933594 C 102.722656 72.160156 100.523438 71.234375 100.234375 70.792969 C 100.042969 70.496094 99.871094 70.410156 99.617188 70.476562 L 99.261719 70.5625 L 99.367188 68.242188 C 99.425781 66.964844 99.480469 65.460938 99.488281 64.902344 C 99.503906 64.046875 99.554688 63.878906 99.792969 63.878906 C 100.203125 63.875 101.664062 63.164062 101.9375 62.832031 C 102.152344 62.574219 102.332031 62.714844 104.105469 64.492188 L 106.039062 66.433594 Z M 97.488281 63.472656 C 97.910156 63.695312 98.433594 63.878906 98.65625 63.878906 L 99.0625 63.878906 L 98.941406 67.433594 C 98.878906 69.386719 98.8125 71 98.796875 71.015625 C 98.738281 71.078125 91.855469 71.394531 90.519531 71.394531 C 89.730469 71.394531 89.085938 71.328125 89.085938 71.25 C 89.085938 71.171875 89.277344 70.980469 89.511719 70.828125 C 89.855469 70.601562 89.917969 70.460938 89.84375 70.082031 C 89.757812 69.644531 89.988281 69.386719 93.203125 66.339844 C 95.101562 64.539062 96.671875 63.066406 96.691406 63.066406 C 96.707031 63.0625 97.066406 63.246094 97.488281 63.472656 Z M 109.683594 70.253906 L 112.339844 72.953125 L 111.867188 73.59375 C 111.605469 73.945312 111.394531 74.363281 111.394531 74.527344 C 111.394531 74.691406 111.332031 74.824219 111.261719 74.824219 C 111.121094 74.824219 103.535156 72.226562 103.464844 72.152344 C 103.421875 72.109375 105.707031 67.839844 106.140625 67.160156 L 106.390625 66.761719 L 106.707031 67.160156 C 106.882812 67.375 108.222656 68.769531 109.683594 70.253906 Z M 54.894531 70.324219 C 62.109375 70.980469 61.410156 70.875 61.410156 71.3125 C 61.410156 71.628906 60.773438 72.664062 57.882812 77.089844 C 57.863281 77.121094 56.136719 76.210938 54.050781 75.0625 C 51.964844 73.914062 49.632812 72.644531 48.871094 72.242188 C 48.109375 71.835938 47.464844 71.484375 47.433594 71.464844 C 47.402344 71.441406 47.550781 71.039062 47.757812 70.574219 L 48.140625 69.726562 L 49.277344 69.820312 C 49.90625 69.875 52.433594 70.101562 54.894531 70.324219 Z M 69.113281 71.558594 C 71.601562 71.738281 74 71.886719 74.4375 71.886719 C 75.226562 71.886719 75.234375 71.890625 75.570312 72.648438 C 75.753906 73.070312 75.847656 73.460938 75.78125 73.523438 C 75.664062 73.625 64.863281 79.773438 64.0625 80.195312 C 63.75 80.359375 63.367188 80.199219 60.96875 78.890625 C 59.464844 78.070312 58.21875 77.386719 58.199219 77.371094 C 58.179688 77.355469 58.933594 76.167969 59.875 74.734375 C 61.417969 72.382812 61.628906 72.132812 62.019531 72.164062 C 62.53125 72.207031 63.035156 71.804688 63.035156 71.355469 C 63.035156 71.070312 63.121094 71.046875 63.808594 71.136719 C 64.234375 71.191406 66.621094 71.382812 69.113281 71.558594 Z M 98.691406 73.738281 C 98.691406 74.941406 98.644531 76.375 98.589844 76.925781 C 98.488281 77.898438 98.46875 77.929688 98.015625 77.929688 C 97.761719 77.929688 97.207031 78.089844 96.789062 78.289062 L 96.027344 78.648438 L 92.886719 75.386719 C 91.160156 73.597656 89.746094 72.074219 89.742188 72.007812 C 89.742188 71.941406 90.195312 71.875 90.757812 71.863281 C 91.316406 71.851562 92.910156 71.789062 94.296875 71.730469 C 95.683594 71.667969 97.242188 71.601562 97.757812 71.585938 L 98.691406 71.558594 Z M 101.664062 72.121094 C 102.179688 72.292969 102.601562 72.496094 102.601562 72.570312 C 102.601562 72.644531 102.132812 73.53125 101.5625 74.539062 C 100.992188 75.550781 100.332031 76.761719 100.09375 77.234375 C 99.777344 77.867188 99.574219 78.09375 99.316406 78.09375 C 98.984375 78.09375 98.976562 78.042969 99.078125 76.84375 C 99.132812 76.15625 99.179688 74.765625 99.179688 73.753906 C 99.179688 72.023438 99.199219 71.921875 99.492188 71.996094 C 99.664062 72.042969 99.941406 72 100.105469 71.902344 C 100.441406 71.703125 100.398438 71.699219 101.664062 72.121094 Z M 50.472656 73.660156 C 52.234375 74.632812 54.539062 75.898438 55.59375 76.464844 C 56.648438 77.035156 57.484375 77.578125 57.445312 77.675781 C 57.410156 77.773438 56.742188 78.824219 55.96875 80.015625 L 54.554688 82.179688 L 54.082031 81.933594 C 53.824219 81.796875 53.183594 81.683594 52.664062 81.683594 L 51.722656 81.679688 L 50.925781 80.335938 C 50.488281 79.597656 49.398438 77.703125 48.5 76.132812 C 47.601562 74.558594 46.726562 73.070312 46.550781 72.820312 C 46.300781 72.453125 46.277344 72.316406 46.433594 72.125 C 46.542969 71.992188 46.777344 71.886719 46.953125 71.886719 C 47.128906 71.886719 48.714844 72.683594 50.472656 73.660156 Z M 88.273438 72.027344 C 88.273438 72.105469 88.136719 72.492188 87.972656 72.886719 C 87.804688 73.277344 87.246094 74.683594 86.730469 76.011719 C 86.214844 77.335938 85.753906 78.417969 85.703125 78.417969 C 85.652344 78.417969 84.269531 77.519531 82.632812 76.417969 C 80.167969 74.761719 79.699219 74.390625 79.933594 74.253906 C 80.445312 73.953125 81.269531 73.011719 81.371094 72.609375 C 81.457031 72.257812 81.5625 72.210938 82.308594 72.191406 C 83.53125 72.160156 88.007812 71.949219 88.152344 71.914062 C 88.21875 71.898438 88.273438 71.949219 88.273438 72.027344 Z M 92.34375 75.480469 L 95.679688 78.914062 L 95.242188 79.582031 C 95.003906 79.949219 94.769531 80.285156 94.730469 80.328125 C 94.6875 80.371094 93.027344 80.125 91.039062 79.78125 C 87.695312 79.207031 87.410156 79.132812 87.28125 78.785156 C 87.191406 78.550781 86.953125 78.375 86.644531 78.3125 C 86.308594 78.246094 86.199219 78.15625 86.296875 78.03125 C 86.375 77.929688 86.9375 76.542969 87.546875 74.949219 C 88.152344 73.351562 88.730469 72.046875 88.828125 72.046875 C 88.925781 72.046875 90.507812 73.59375 92.34375 75.480469 Z M 46.394531 73.476562 C 46.660156 73.90625 47.699219 75.6875 48.703125 77.4375 C 49.710938 79.191406 50.707031 80.902344 50.925781 81.238281 L 51.320312 81.851562 L 50.601562 82.542969 C 49.929688 83.195312 49.527344 84.046875 49.523438 84.832031 C 49.523438 84.988281 49.484375 85.117188 49.433594 85.117188 C 49.382812 85.117188 48.011719 84.558594 46.378906 83.875 C 44.75 83.191406 43.316406 82.59375 43.195312 82.542969 C 43.03125 82.476562 43 82.261719 43.078125 81.703125 C 43.132812 81.289062 43.328125 79.191406 43.511719 77.035156 C 43.691406 74.882812 43.863281 73.097656 43.890625 73.070312 C 43.953125 73.007812 45.265625 72.746094 45.640625 72.71875 C 45.792969 72.710938 46.113281 73.03125 46.394531 73.476562 Z M 107.324219 73.980469 L 111.148438 75.25 L 111.195312 75.824219 L 111.246094 76.402344 L 106.589844 78.328125 C 104.03125 79.390625 101.917969 80.230469 101.894531 80.195312 C 101.875 80.164062 101.675781 79.859375 101.453125 79.527344 C 101.234375 79.191406 100.816406 78.789062 100.523438 78.632812 C 100.234375 78.472656 99.996094 78.324219 99.996094 78.300781 C 99.996094 78.25 102.066406 74.519531 102.71875 73.394531 C 102.9375 73.015625 103.203125 72.703125 103.308594 72.707031 C 103.410156 72.710938 105.21875 73.285156 107.324219 73.980469 Z M 43.335938 73.5625 C 43.335938 74.253906 42.949219 79.371094 42.753906 81.300781 L 42.652344 82.300781 L 39.207031 80.808594 C 34.808594 78.902344 34.878906 79.089844 37.710938 76.882812 C 38.835938 76.007812 40.425781 74.746094 41.246094 74.078125 C 43.011719 72.640625 43.335938 72.558594 43.335938 73.5625 Z M 76.667969 74.09375 C 76.996094 74.324219 77.007812 74.386719 76.8125 74.953125 C 76.699219 75.285156 76.398438 76.34375 76.148438 77.300781 C 75.726562 78.917969 75.664062 79.046875 75.25 79.128906 C 74.972656 79.183594 74.675781 79.425781 74.476562 79.757812 C 74.230469 80.167969 73.574219 80.617188 71.730469 81.628906 C 70.394531 82.359375 69.136719 83.007812 68.933594 83.070312 C 68.5625 83.183594 68.0625 82.945312 65.265625 81.324219 L 64.15625 80.679688 L 67.136719 78.992188 C 68.777344 78.0625 71.472656 76.527344 73.132812 75.578125 C 74.789062 74.632812 76.183594 73.851562 76.230469 73.851562 C 76.277344 73.847656 76.472656 73.957031 76.667969 74.09375 Z M 82.453125 76.757812 C 84.207031 77.933594 85.503906 78.910156 85.503906 79.054688 C 85.503906 79.328125 82.984375 86.835938 82.757812 87.238281 C 82.632812 87.464844 78.339844 89.960938 75.898438 91.230469 L 74.839844 91.777344 L 74.128906 91.144531 C 73.734375 90.792969 73.3125 90.507812 73.191406 90.507812 C 73.070312 90.507812 72.96875 90.421875 72.96875 90.316406 C 72.96875 89.878906 75.457031 81.25 75.671875 80.953125 C 75.796875 80.773438 76.011719 80.46875 76.148438 80.277344 C 76.347656 80 76.363281 79.847656 76.210938 79.519531 C 76.054688 79.175781 76.121094 78.777344 76.613281 77.082031 C 76.9375 75.96875 77.203125 74.941406 77.203125 74.796875 C 77.203125 74.574219 77.363281 74.550781 78.300781 74.621094 C 79.386719 74.707031 79.429688 74.730469 82.453125 76.757812 Z M 112.335938 78.460938 C 112.566406 78.707031 113 79 113.296875 79.105469 C 113.597656 79.214844 113.820312 79.34375 113.796875 79.394531 C 113.773438 79.441406 113.105469 80.566406 112.3125 81.890625 C 111.191406 83.765625 110.796875 84.300781 110.53125 84.300781 C 110.34375 84.300781 110.042969 84.441406 109.855469 84.609375 C 109.523438 84.914062 109.464844 84.902344 105.855469 83.9375 L 102.195312 82.957031 L 102.179688 81.789062 L 102.167969 80.625 L 104.132812 79.835938 C 105.214844 79.398438 107.273438 78.554688 108.707031 77.953125 L 111.308594 76.859375 L 111.613281 77.433594 C 111.777344 77.75 112.105469 78.214844 112.335938 78.460938 Z M 60.839844 79.363281 C 63.316406 80.695312 63.359375 80.722656 63.113281 80.8125 C 63.023438 80.84375 61.414062 81.75 59.539062 82.820312 L 56.128906 84.769531 L 55.941406 84.039062 C 55.839844 83.636719 55.558594 83.097656 55.3125 82.84375 L 54.871094 82.378906 L 56.363281 80.074219 C 57.761719 77.917969 57.878906 77.78125 58.207031 77.957031 C 58.402344 78.058594 59.585938 78.691406 60.839844 79.363281 Z M 125.230469 85.90625 C 126.550781 87.214844 127.03125 87.789062 126.859375 87.851562 C 126.726562 87.898438 126.273438 88.289062 125.851562 88.722656 L 125.089844 89.503906 L 118.300781 87.269531 C 114.503906 86.019531 111.441406 84.925781 111.359375 84.789062 C 111.25 84.609375 111.617188 83.855469 112.726562 81.980469 L 114.242188 79.414062 L 115.078125 79.40625 C 115.746094 79.402344 116.074219 79.292969 116.695312 78.867188 L 117.480469 78.335938 L 120.417969 81.191406 C 122.035156 82.761719 124.203125 84.882812 125.230469 85.90625 Z M 92.257812 80.421875 L 94.53125 80.796875 L 94.535156 81.910156 L 94.542969 83.027344 L 92.832031 83.683594 C 91.890625 84.046875 89.613281 84.90625 87.769531 85.601562 L 84.414062 86.859375 L 83.585938 86.179688 L 85.75 79.726562 L 86.265625 79.824219 C 86.546875 79.878906 86.902344 79.851562 87.054688 79.765625 C 87.332031 79.609375 87.460938 79.628906 92.257812 80.421875 Z M 42.5625 82.808594 C 42.671875 82.914062 42.527344 84.550781 42.261719 86.230469 C 42.183594 86.730469 42.136719 86.765625 41.625 86.71875 C 41.152344 86.675781 40.644531 86.242188 38.121094 83.734375 L 35.167969 80.800781 L 35.414062 80.277344 L 35.664062 79.757812 L 39.050781 81.222656 C 40.914062 82.03125 42.496094 82.742188 42.5625 82.808594 Z M 75.210938 80.746094 C 75.167969 80.859375 74.5625 83.011719 73.863281 85.527344 C 73.164062 88.042969 72.546875 90.148438 72.496094 90.207031 C 72.441406 90.265625 71.996094 90.339844 71.503906 90.371094 L 70.613281 90.425781 L 70.03125 87.53125 L 69.445312 84.640625 L 69.78125 84.304688 C 70.0625 84.023438 70.082031 83.917969 69.914062 83.648438 C 69.671875 83.261719 69.660156 83.15625 69.863281 83.15625 C 69.945312 83.15625 71.027344 82.574219 72.265625 81.859375 C 74.371094 80.640625 75.382812 80.261719 75.210938 80.746094 Z M 66.1875 82.410156 C 67.566406 83.191406 68.410156 83.765625 68.410156 83.925781 C 68.410156 84.066406 68.523438 84.269531 68.667969 84.371094 C 68.835938 84.496094 69.136719 85.601562 69.554688 87.65625 L 70.1875 90.753906 L 69.691406 91.261719 C 69.421875 91.542969 69.101562 92.058594 68.984375 92.402344 L 68.769531 93.03125 L 65.292969 93.886719 C 61.722656 94.761719 61.082031 94.871094 61.082031 94.597656 C 61.082031 94.28125 60.410156 94.058594 60.011719 94.242188 C 59.585938 94.4375 59.429688 94.230469 56.472656 89.539062 L 55.085938 87.34375 L 55.480469 86.828125 C 55.695312 86.546875 55.914062 86.09375 55.96875 85.824219 C 56.054688 85.378906 56.4375 85.117188 59.753906 83.199219 C 61.785156 82.023438 63.5625 81.085938 63.707031 81.109375 C 63.851562 81.132812 64.96875 81.71875 66.1875 82.410156 Z M 45.410156 83.945312 C 46.644531 84.46875 48.066406 85.0625 48.574219 85.265625 C 49.34375 85.574219 49.539062 85.734375 49.738281 86.234375 C 50.035156 86.976562 50.613281 87.613281 51.324219 87.980469 C 52.007812 88.335938 53.386719 88.335938 54.066406 87.984375 C 54.351562 87.835938 54.644531 87.757812 54.726562 87.808594 C 54.808594 87.859375 55.582031 89.019531 56.449219 90.386719 C 57.320312 91.757812 58.320312 93.304688 58.675781 93.828125 C 59.035156 94.347656 59.289062 94.8125 59.246094 94.859375 C 59.199219 94.902344 58.039062 95.074219 56.664062 95.234375 L 54.164062 95.53125 L 53.550781 94.980469 C 52.765625 94.269531 52.171875 94.257812 51.410156 94.929688 L 50.84375 95.425781 L 47.539062 92.625 C 45.71875 91.085938 43.832031 89.476562 43.339844 89.050781 L 42.453125 88.28125 L 42.652344 86.25 C 42.871094 84.039062 43.019531 82.992188 43.113281 82.992188 C 43.144531 82.992188 44.179688 83.421875 45.410156 83.945312 Z M 95.019531 83.773438 C 95.070312 83.933594 95.339844 84.3125 95.617188 84.621094 C 96.113281 85.164062 96.117188 85.1875 95.816406 85.433594 C 90.554688 89.765625 87.015625 92.691406 86.257812 93.339844 C 85.46875 94.019531 85.257812 94.125 85.039062 93.96875 C 84.890625 93.863281 84.5 93.613281 84.164062 93.410156 C 83.464844 92.988281 83.476562 93.058594 83.703125 89.878906 C 83.820312 88.21875 83.878906 87.980469 84.238281 87.621094 C 84.503906 87.355469 86.292969 86.589844 89.507812 85.363281 C 92.1875 84.34375 94.5 83.503906 94.652344 83.496094 C 94.804688 83.488281 94.96875 83.613281 95.019531 83.773438 Z M 105.410156 84.308594 C 107.132812 84.761719 108.816406 85.207031 109.152344 85.296875 C 109.488281 85.382812 109.765625 85.542969 109.765625 85.644531 C 109.765625 85.75 110.019531 86.5 110.332031 87.316406 C 110.644531 88.128906 111.625 90.871094 112.503906 93.40625 L 114.109375 98.019531 L 113.527344 98.308594 C 112.800781 98.667969 112.367188 99.40625 112.3125 100.398438 L 112.265625 101.167969 L 110.40625 101.148438 C 106.101562 101.101562 102.40625 100.910156 102.355469 100.734375 C 102.269531 100.441406 100.550781 92.8125 99.765625 89.214844 C 99.363281 87.378906 99.066406 85.828125 99.105469 85.765625 C 99.144531 85.703125 99.378906 85.609375 99.625 85.558594 C 100.285156 85.425781 101.386719 84.566406 101.644531 83.988281 C 101.765625 83.710938 101.960938 83.484375 102.074219 83.484375 C 102.1875 83.484375 103.691406 83.855469 105.410156 84.308594 Z M 97.246094 85.632812 C 97.546875 85.734375 97.820312 85.835938 97.84375 85.855469 C 97.886719 85.886719 93.378906 99.285156 93.078125 100.023438 C 93.011719 100.179688 92.898438 100.308594 92.828125 100.308594 C 92.683594 100.308594 88.355469 98.386719 86.726562 97.597656 L 85.75 97.125 L 85.800781 96.425781 C 85.832031 96.042969 85.765625 95.460938 85.65625 95.132812 C 85.476562 94.582031 85.488281 94.519531 85.855469 94.25 C 86.289062 93.933594 94.585938 87.089844 95.761719 86.074219 C 96.597656 85.359375 96.511719 85.382812 97.246094 85.632812 Z M 98.832031 87.242188 C 99.011719 88.003906 99.640625 90.796875 100.230469 93.449219 C 100.816406 96.097656 101.4375 98.855469 101.609375 99.574219 C 101.78125 100.292969 101.894531 100.910156 101.863281 100.941406 C 101.828125 100.976562 100.089844 100.949219 97.996094 100.886719 C 94.828125 100.785156 94.132812 100.71875 93.835938 100.492188 L 93.476562 100.222656 L 95.84375 93.199219 C 98.644531 84.898438 98.359375 85.710938 98.4375 85.789062 C 98.472656 85.824219 98.652344 86.476562 98.832031 87.242188 Z M 83.273438 88.796875 C 83.253906 89.335938 83.191406 90.484375 83.136719 91.351562 L 83.035156 92.929688 L 82.445312 93.039062 C 81.386719 93.238281 80.511719 93.910156 79.871094 95.015625 C 79.699219 95.316406 79.648438 95.3125 77.917969 94.957031 C 76.941406 94.753906 75.988281 94.589844 75.800781 94.589844 C 75.5 94.59375 75.445312 94.472656 75.367188 93.652344 C 75.316406 93.136719 75.234375 92.601562 75.175781 92.464844 C 75.101562 92.273438 75.75 91.832031 77.890625 90.625 C 79.4375 89.753906 81.179688 88.746094 81.761719 88.386719 C 83.164062 87.527344 83.316406 87.566406 83.273438 88.796875 Z M 46.847656 92.539062 C 50.015625 95.273438 50.75 95.988281 50.925781 96.5 C 51.171875 97.222656 51.679688 97.695312 52.207031 97.695312 C 52.550781 97.695312 53.445312 98.621094 56.488281 102.121094 L 57 102.707031 L 54.125 104.980469 C 52.546875 106.230469 51.125 107.34375 50.972656 107.457031 C 50.726562 107.632812 50.644531 107.589844 50.359375 107.125 C 50.175781 106.828125 49.75 106.429688 49.410156 106.238281 C 48.839844 105.917969 48.59375 105.492188 46.3125 100.898438 C 44.304688 96.855469 43.847656 95.816406 43.925781 95.4375 C 44 95.066406 43.933594 94.898438 43.605469 94.644531 C 43.222656 94.339844 43.183594 94.175781 43.023438 92.136719 C 42.832031 89.757812 42.8125 89.203125 42.914062 89.203125 C 42.953125 89.203125 44.722656 90.703125 46.847656 92.539062 Z M 69.171875 95.492188 C 69.316406 95.75 69.191406 96.414062 68.550781 98.757812 C 68.109375 100.375 67.578125 102.433594 67.371094 103.332031 L 66.992188 104.964844 L 65.082031 102.027344 C 64.027344 100.410156 62.664062 98.3125 62.042969 97.371094 C 61.054688 95.859375 60.953125 95.632812 61.183594 95.460938 C 61.324219 95.351562 62.847656 94.929688 64.558594 94.519531 C 66.273438 94.109375 67.898438 93.714844 68.164062 93.644531 C 68.648438 93.519531 68.65625 93.53125 68.824219 94.339844 C 68.917969 94.792969 69.074219 95.3125 69.171875 95.492188 Z M 78.042969 95.425781 C 78.90625 95.597656 79.65625 95.734375 79.710938 95.734375 C 79.761719 95.734375 79.804688 96.035156 79.804688 96.398438 C 79.804688 97.21875 80.109375 97.828125 80.851562 98.480469 C 81.636719 99.171875 82.808594 99.347656 83.878906 98.9375 C 84.058594 98.867188 84.601562 99.726562 86.039062 102.382812 C 87.09375 104.332031 87.917969 106.027344 87.871094 106.15625 C 87.796875 106.351562 86.824219 106.371094 81.394531 106.269531 C 77.878906 106.207031 74.953125 106.109375 74.894531 106.050781 C 74.832031 105.992188 74.386719 103.925781 73.90625 101.453125 L 73.027344 96.960938 L 73.542969 96.683594 C 74.082031 96.394531 75.085938 95.347656 75.085938 95.074219 C 75.085938 94.894531 75.734375 94.96875 78.042969 95.425781 Z M 59.675781 95.65625 C 59.726562 95.789062 59.941406 95.898438 60.148438 95.898438 C 60.449219 95.898438 60.769531 96.269531 61.726562 97.738281 C 62.390625 98.75 63.757812 100.84375 64.773438 102.394531 C 65.785156 103.941406 66.523438 105.210938 66.410156 105.210938 C 66.300781 105.210938 65.953125 105.050781 65.640625 104.855469 C 65.328125 104.660156 64.152344 103.980469 63.027344 103.34375 C 61.125 102.269531 60.992188 102.160156 61.085938 101.78125 C 61.355469 100.65625 60.613281 99.359375 59.488281 98.988281 C 58.253906 98.578125 56.855469 99.535156 56.695312 100.898438 L 56.605469 101.648438 L 55.058594 99.886719 C 54.207031 98.917969 53.382812 98 53.222656 97.851562 C 52.941406 97.589844 52.949219 97.566406 53.339844 97.308594 C 53.5625 97.164062 53.808594 96.800781 53.882812 96.511719 L 54.019531 95.980469 L 56.207031 95.714844 C 59.121094 95.363281 59.5625 95.355469 59.675781 95.65625 Z M 70.894531 96.792969 C 71.222656 96.929688 71.746094 97.042969 72.054688 97.042969 C 72.585938 97.042969 72.621094 97.078125 72.726562 97.738281 C 72.792969 98.117188 73.164062 100.074219 73.558594 102.082031 C 73.949219 104.085938 74.269531 105.824219 74.269531 105.945312 C 74.269531 106.117188 73.675781 106.140625 71.21875 106.066406 C 67.921875 105.972656 67.449219 105.847656 67.4375 105.078125 C 67.433594 104.683594 68.03125 102.1875 68.996094 98.59375 C 69.757812 95.753906 69.664062 95.96875 70.007812 96.28125 C 70.164062 96.421875 70.5625 96.652344 70.894531 96.792969 Z M 86.589844 98.042969 C 87.203125 98.320312 88.765625 99.023438 90.0625 99.605469 C 91.363281 100.1875 92.492188 100.726562 92.570312 100.804688 C 92.765625 100.992188 92.472656 101.421875 90.433594 103.925781 C 89.496094 105.082031 88.664062 105.988281 88.585938 105.9375 C 88.445312 105.851562 87.636719 104.414062 85.613281 100.660156 L 84.523438 98.644531 L 84.972656 98.101562 C 85.222656 97.800781 85.433594 97.550781 85.449219 97.542969 C 85.464844 97.539062 85.976562 97.761719 86.589844 98.042969 Z M 100.753906 101.394531 L 102.078125 101.5 L 102.273438 102.496094 C 102.378906 103.046875 102.675781 104.375 102.933594 105.445312 C 103.1875 106.519531 103.363281 107.449219 103.324219 107.511719 C 103.289062 107.574219 102.992188 107.675781 102.667969 107.734375 C 102.066406 107.847656 100.648438 109.078125 100.644531 109.496094 C 100.636719 110.0625 100.40625 110.109375 99.253906 109.792969 C 90.824219 107.464844 88.925781 106.890625 88.925781 106.679688 C 88.925781 106.597656 89.6875 105.578125 90.621094 104.414062 C 91.558594 103.253906 92.414062 102.15625 92.523438 101.972656 C 92.683594 101.71875 92.84375 101.667969 93.265625 101.734375 C 93.667969 101.800781 93.828125 101.753906 93.90625 101.554688 C 93.992188 101.324219 94.363281 101.289062 96.714844 101.292969 C 98.207031 101.292969 100.023438 101.339844 100.753906 101.394531 Z M 112.824219 101.992188 L 113.207031 102.347656 L 112.808594 102.675781 C 111.199219 104 106.058594 108.121094 105.890625 108.21875 C 105.773438 108.289062 105.5625 108.246094 105.417969 108.125 C 105.277344 108.003906 104.863281 107.796875 104.503906 107.660156 L 103.847656 107.417969 L 103.226562 104.640625 C 102.886719 103.113281 102.609375 101.757812 102.605469 101.632812 C 102.601562 101.4375 103.34375 101.417969 107.523438 101.515625 C 112.285156 101.628906 112.457031 101.644531 112.824219 101.992188 Z M 62.910156 103.851562 C 64.097656 104.539062 65.375 105.277344 65.742188 105.488281 C 66.21875 105.757812 66.445312 106.007812 66.511719 106.34375 C 66.566406 106.617188 66.742188 106.863281 66.925781 106.921875 C 67.117188 106.980469 67.90625 108.140625 68.910156 109.832031 C 69.828125 111.378906 71.328125 113.894531 72.242188 115.421875 C 73.160156 116.949219 73.890625 118.21875 73.867188 118.246094 C 73.824219 118.292969 62.832031 113.769531 55.222656 110.574219 C 54.371094 110.214844 53.035156 109.664062 52.25 109.34375 C 50.328125 108.5625 50.34375 108.457031 52.644531 106.679688 C 53.632812 105.917969 55.097656 104.78125 55.898438 104.160156 L 57.355469 103.027344 L 57.820312 103.300781 C 58.074219 103.453125 58.558594 103.578125 58.890625 103.578125 C 59.488281 103.578125 60.59375 103.039062 60.59375 102.746094 C 60.59375 102.664062 60.628906 102.597656 60.671875 102.597656 C 60.714844 102.597656 61.722656 103.160156 62.910156 103.851562 Z M 74.410156 106.609375 C 74.445312 106.636719 74.640625 107.566406 74.847656 108.671875 C 75.054688 109.777344 75.453125 111.742188 75.726562 113.039062 C 76 114.332031 76.226562 115.445312 76.226562 115.511719 C 76.226562 115.582031 75.914062 115.820312 75.53125 116.046875 C 75.152344 116.273438 74.695312 116.6875 74.515625 116.960938 C 74.335938 117.238281 74.140625 117.460938 74.085938 117.460938 C 73.941406 117.464844 73.417969 116.613281 70.378906 111.464844 C 68.9375 109.019531 67.757812 106.9375 67.757812 106.84375 C 67.757812 106.75 67.902344 106.617188 68.078125 106.550781 C 68.386719 106.4375 74.285156 106.492188 74.410156 106.609375 Z M 85.953125 106.78125 C 86.96875 106.832031 87.785156 106.949219 87.785156 107.035156 C 87.785156 107.203125 85.367188 110.089844 81.960938 113.980469 L 79.9375 116.292969 L 79.195312 115.898438 C 78.679688 115.621094 78.191406 115.503906 77.585938 115.503906 C 76.820312 115.503906 76.710938 115.460938 76.632812 115.136719 C 76.480469 114.472656 74.921875 106.773438 74.921875 106.683594 C 74.921875 106.574219 83.476562 106.648438 85.953125 106.78125 Z M 93.992188 108.703125 C 96.621094 109.453125 99.164062 110.15625 99.636719 110.269531 C 100.492188 110.472656 100.5 110.480469 100.453125 111.042969 L 100.402344 111.609375 L 97.554688 112.667969 C 90.359375 115.339844 81.414062 118.605469 81.289062 118.605469 C 81.210938 118.605469 81.109375 118.40625 81.058594 118.15625 C 81.011719 117.910156 80.785156 117.4375 80.5625 117.105469 C 80.339844 116.773438 80.210938 116.480469 80.277344 116.453125 C 80.414062 116.394531 83.164062 113.28125 86.125 109.832031 C 88.203125 107.410156 88.507812 107.132812 88.945312 107.265625 C 89.089844 107.308594 91.359375 107.957031 93.992188 108.703125 Z M 93.992188 108.703125 " fill-opacity="1" fill-rule="evenodd"/></g></svg>