<svg xmlns="http://www.w3.org/2000/svg" xmlns:xlink="http://www.w3.org/1999/xlink" width="200" zoomAndPan="magnify" viewBox="0 0 150 149.999998" height="200" preserveAspectRatio="xMidYMid meet" version="1.0"><defs><clipPath id="61c47725b2"><path d="M 10 7.625 L 136.691406 7.625 L 136.691406 145.625 L 10 145.625 Z M 10 7.625 " clip-rule="nonzero"/></clipPath></defs><rect x="-15" width="180" fill="#ffffff" y="-15" height="179.999997" fill-opacity="1"/><rect x="-15" width="180" fill="#ffffff" y="-15" height="179.999997" fill-opacity="1"/><g clip-path="url(#61c47725b2)"><path fill="#000000" d="M 67.75 8.03125 C 67.542969 8.285156 67.578125 8.867188 67.929688 11.011719 C 69.015625 17.550781 70.214844 28.691406 71.1875 41.269531 C 72.121094 53.261719 72.128906 53.328125 72.015625 48.6875 C 71.773438 38.730469 69.511719 8.695312 68.949219 7.980469 C 68.671875 7.625 68.066406 7.652344 67.75 8.03125 Z M 74.855469 14.199219 L 74.855469 15.242188 L 73.808594 15.242188 C 73.019531 15.242188 72.765625 15.320312 72.765625 15.558594 C 72.765625 15.792969 73.019531 15.871094 73.808594 15.871094 L 74.855469 15.871094 L 74.855469 16.917969 C 74.855469 17.707031 74.933594 17.960938 75.167969 17.960938 C 75.40625 17.960938 75.480469 17.707031 75.480469 16.917969 L 75.480469 15.871094 L 76.527344 15.871094 C 77.316406 15.871094 77.570312 15.792969 77.570312 15.558594 C 77.570312 15.320312 77.316406 15.242188 76.527344 15.242188 L 75.480469 15.242188 L 75.480469 14.199219 C 75.480469 13.410156 75.40625 13.152344 75.167969 13.152344 C 74.933594 13.152344 74.855469 13.410156 74.855469 14.199219 Z M 99.257812 16.65625 C 94.222656 24.144531 91.640625 28.207031 87.878906 34.578125 C 83.992188 41.164062 82.699219 43.460938 82.886719 43.460938 C 82.945312 43.460938 83.152344 43.15625 83.34375 42.785156 C 84.003906 41.503906 87.460938 36.046875 90.566406 31.375 C 93.742188 26.605469 97.382812 21.53125 100.570312 17.4375 C 101.554688 16.175781 102.429688 15.023438 102.511719 14.882812 C 102.765625 14.460938 102.261719 13.78125 101.703125 13.78125 C 101.28125 13.78125 100.863281 14.273438 99.257812 16.65625 Z M 50.105469 14.871094 C 49.925781 15.128906 49.777344 15.519531 49.777344 15.738281 C 49.777344 15.960938 50.535156 17.398438 51.457031 18.933594 C 56.53125 27.386719 63.59375 42.695312 67.453125 53.601562 C 68.066406 55.324219 68.570312 56.65625 68.574219 56.5625 C 68.640625 55.488281 63.21875 39.1875 60.507812 32.316406 C 57.960938 25.855469 54.277344 17.898438 52.632812 15.296875 C 52.128906 14.496094 51.988281 14.40625 51.25 14.40625 C 50.640625 14.40625 50.347656 14.527344 50.105469 14.871094 Z M 62.484375 15.804688 L 62.421875 16.8125 L 61.3125 16.875 C 59.859375 16.957031 59.960938 17.414062 61.445312 17.5 L 62.527344 17.566406 L 62.527344 18.597656 C 62.527344 19.378906 62.601562 19.632812 62.839844 19.632812 C 63.078125 19.632812 63.152344 19.378906 63.152344 18.589844 L 63.152344 17.542969 L 64.199219 17.542969 C 64.988281 17.542969 65.242188 17.464844 65.242188 17.230469 C 65.242188 16.992188 64.988281 16.917969 64.210938 16.917969 L 63.175781 16.917969 L 63.113281 15.941406 C 63.023438 14.597656 62.570312 14.5 62.484375 15.804688 Z M 79.15625 17.046875 C 79.082031 17.246094 78.691406 19.53125 78.292969 22.128906 C 77.890625 24.722656 76.949219 30.546875 76.199219 35.070312 C 74.871094 43.089844 74.488281 46.207031 75.449219 41.234375 C 76.242188 37.117188 79.425781 22.195312 79.996094 19.917969 C 80.632812 17.371094 80.609375 16.835938 79.84375 16.75 C 79.476562 16.707031 79.25 16.804688 79.15625 17.046875 Z M 37.796875 17.054688 C 37.410156 17.445312 37.808594 18.179688 39.277344 19.796875 C 46.347656 27.558594 54.320312 37.914062 59.070312 45.5 C 59.738281 46.5625 60.320312 47.433594 60.367188 47.433594 C 60.554688 47.433594 57.539062 42.367188 55.3125 38.945312 C 50.9375 32.222656 42.292969 20.554688 39.574219 17.699219 C 38.890625 16.980469 38.144531 16.710938 37.796875 17.054688 Z M 84.984375 20.460938 C 84.316406 20.730469 84.203125 20.964844 82.71875 25.171875 C 78.535156 37.039062 74.449219 54.058594 73.730469 62.589844 C 73.589844 64.28125 73.671875 64.003906 74.546875 59.871094 C 75.488281 55.429688 76.667969 50.707031 77.875 46.535156 C 79.578125 40.660156 83.371094 30.234375 86.046875 24.085938 C 86.558594 22.914062 86.976562 21.820312 86.976562 21.652344 C 86.976562 21.234375 86.328125 20.527344 85.824219 20.398438 C 85.597656 20.339844 85.214844 20.367188 84.984375 20.460938 Z M 63.199219 23.511719 C 62.605469 23.929688 62.59375 24.804688 63.164062 26.445312 C 65.394531 32.867188 69.050781 47.863281 70.246094 55.480469 L 70.671875 58.199219 L 70.566406 55.796875 C 70.265625 49.066406 68.339844 36.695312 66.261719 28.148438 C 65.417969 24.683594 65.117188 23.75 64.757812 23.5 C 64.191406 23.101562 63.78125 23.105469 63.199219 23.511719 Z M 102.734375 24.226562 C 102.28125 24.410156 97.84375 29.03125 95.5 31.757812 C 89.3125 38.960938 82.972656 48.152344 78.054688 57.050781 C 76.140625 60.507812 75.226562 62.273438 75.351562 62.273438 C 75.398438 62.273438 75.890625 61.546875 76.441406 60.65625 C 83.144531 49.800781 91.066406 39.765625 99.96875 30.851562 C 105.171875 25.640625 105.347656 25.371094 104.1875 24.457031 C 103.589844 23.988281 103.398438 23.957031 102.734375 24.226562 Z M 88.707031 26.78125 C 88.4375 27.121094 83.320312 38.105469 81.90625 41.371094 C 80.710938 44.144531 78.59375 49.574219 78.679688 49.65625 C 78.710938 49.6875 79.289062 48.519531 79.964844 47.058594 C 81.949219 42.777344 85.964844 34.867188 88.148438 30.941406 C 89.707031 28.136719 90.121094 27.226562 89.960938 26.96875 C 89.691406 26.539062 88.984375 26.433594 88.707031 26.78125 Z M 74.128906 28.675781 C 74.082031 28.816406 73.941406 32.179688 73.816406 36.148438 C 73.691406 40.113281 73.546875 44.535156 73.5 45.972656 C 73.386719 49.429688 73.488281 48.816406 74.128906 42.207031 C 74.421875 39.160156 74.847656 34.957031 75.070312 32.859375 C 75.292969 30.765625 75.417969 28.910156 75.351562 28.734375 C 75.203125 28.347656 74.25 28.304688 74.128906 28.675781 Z M 41.003906 31.339844 C 40.488281 31.855469 40.464844 32.621094 40.949219 33.164062 C 41.152344 33.390625 41.878906 34.035156 42.570312 34.597656 C 50.40625 40.976562 58.617188 49.667969 65.660156 59.035156 C 68.796875 63.207031 68.785156 63.199219 66.429688 59.453125 C 63.238281 54.378906 58.539062 47.835938 55.320312 43.984375 C 51.644531 39.585938 44.753906 32.542969 42.890625 31.273438 C 42.199219 30.804688 41.511719 30.828125 41.003906 31.339844 Z M 114.449219 32.726562 C 104.695312 37.851562 90.953125 48.746094 81.28125 59.019531 C 77.023438 63.539062 76.109375 64.730469 79.292969 61.601562 C 88.953125 52.121094 102.492188 42.203125 113.648438 36.429688 C 115.125 35.664062 116.5 34.894531 116.699219 34.722656 C 117.4375 34.089844 116.953125 32.597656 115.914062 32.300781 C 115.660156 32.226562 115.070312 32.398438 114.449219 32.726562 Z M 100.285156 35.460938 C 97.613281 37.875 92.074219 44.011719 89.382812 47.539062 C 87.75 49.683594 87.929688 49.554688 90.132812 47.015625 C 93.496094 43.140625 98.308594 38.527344 101.015625 36.585938 C 102.050781 35.84375 102.289062 35.5 102.101562 35.011719 C 101.855469 34.371094 101.351562 34.496094 100.285156 35.460938 Z M 56.246094 36.375 C 56.050781 36.746094 56.121094 36.988281 56.695312 37.890625 C 59.429688 42.179688 61.753906 46.34375 64.601562 52.03125 C 66.414062 55.652344 68.160156 59.300781 68.484375 60.132812 C 68.808594 60.96875 69.101562 61.621094 69.140625 61.582031 C 69.179688 61.542969 68.890625 60.578125 68.503906 59.4375 C 67.019531 55.085938 62.769531 45.878906 58.785156 38.394531 C 57.675781 36.3125 57.402344 35.9375 56.980469 35.9375 C 56.6875 35.9375 56.382812 36.121094 56.246094 36.375 Z M 35.988281 39.699219 C 35.472656 40.214844 35.445312 41.203125 35.933594 41.617188 C 36.136719 41.789062 37.476562 42.570312 38.914062 43.355469 C 48.652344 48.671875 58.304688 55.710938 65.855469 63.007812 L 68.449219 65.515625 L 66.792969 63.53125 C 63.097656 59.105469 56.117188 52.515625 50.546875 48.199219 C 44.824219 43.761719 37.96875 39.28125 36.898438 39.28125 C 36.628906 39.28125 36.21875 39.46875 35.988281 39.699219 Z M 120.109375 42.535156 C 119.878906 42.765625 119.78125 43.265625 119.78125 44.210938 L 119.78125 45.554688 L 118.363281 45.554688 C 116.847656 45.554688 116.4375 45.757812 116.4375 46.511719 C 116.4375 47.101562 116.792969 47.226562 118.441406 47.226562 L 119.78125 47.226562 L 119.78125 48.648438 C 119.78125 50.160156 119.988281 50.570312 120.742188 50.570312 C 121.328125 50.570312 121.453125 50.21875 121.453125 48.566406 L 121.453125 47.226562 L 122.875 47.226562 C 124.339844 47.226562 124.796875 47.019531 124.796875 46.355469 C 124.796875 45.804688 124.140625 45.554688 122.722656 45.554688 L 121.453125 45.554688 L 121.453125 44.097656 C 121.453125 42.871094 121.390625 42.605469 121.050781 42.425781 C 120.527344 42.144531 120.5 42.148438 120.109375 42.535156 Z M 74.679688 44.300781 C 74.679688 44.585938 74.726562 44.703125 74.785156 44.558594 C 74.84375 44.417969 74.84375 44.179688 74.785156 44.039062 C 74.726562 43.894531 74.679688 44.011719 74.679688 44.300781 Z M 26.28125 44.972656 C 25.484375 46.113281 25.992188 46.886719 27.894531 47.4375 C 40.40625 51.066406 55.964844 58.28125 64.667969 64.492188 C 66.238281 65.613281 65.828125 65.164062 63.832031 63.574219 C 61.335938 61.585938 54.898438 57.261719 51.347656 55.183594 C 45.179688 51.574219 36.03125 47.269531 30.480469 45.359375 C 27.613281 44.375 26.757812 44.296875 26.28125 44.972656 Z M 97.726562 49.019531 C 95.558594 50.078125 86.699219 57.210938 82.777344 61.054688 C 81.445312 62.355469 80.648438 63.179688 81 62.882812 C 85.058594 59.464844 92.152344 54.496094 97.359375 51.421875 C 99.121094 50.382812 99.386719 50.113281 99.203125 49.535156 C 98.992188 48.867188 98.4375 48.671875 97.726562 49.019531 Z M 101.289062 50.742188 C 95.640625 53.695312 90.273438 57.070312 83.371094 62.023438 C 82.019531 62.992188 80.914062 63.816406 80.914062 63.859375 C 80.914062 63.902344 81.832031 63.339844 82.953125 62.605469 C 87.464844 59.660156 97.027344 54.558594 102.542969 52.15625 C 103.808594 51.605469 104.910156 51.046875 104.996094 50.914062 C 105.414062 50.257812 104.921875 49.300781 104.175781 49.320312 C 104.082031 49.320312 102.785156 49.960938 101.289062 50.742188 Z M 112.886719 51.507812 C 108.835938 52.703125 103.332031 54.777344 98.46875 56.949219 C 94.023438 58.929688 85.046875 63.558594 88.332031 62.171875 C 96.585938 58.691406 107.621094 54.964844 113.800781 53.574219 C 116.511719 52.964844 117.066406 52.675781 117.066406 51.859375 C 117.066406 50.5625 116.304688 50.5 112.886719 51.507812 Z M 130.746094 52.976562 C 125.9375 53.878906 117.984375 55.738281 118.167969 55.925781 C 118.207031 55.960938 119.265625 55.800781 120.523438 55.574219 C 123.902344 54.964844 128.445312 54.394531 132.113281 54.121094 C 133.894531 53.988281 135.554688 53.839844 135.808594 53.792969 C 136.355469 53.6875 136.632812 52.964844 136.28125 52.546875 C 135.921875 52.109375 135.003906 52.183594 130.746094 52.976562 Z M 30.429688 54.074219 C 29.949219 54.394531 29.695312 55.152344 29.925781 55.582031 C 30.269531 56.226562 30.671875 56.363281 34.871094 57.238281 C 42.542969 58.84375 51.273438 61.214844 57.6875 63.441406 C 59.8125 64.179688 61.578125 64.757812 61.609375 64.726562 C 61.640625 64.695312 60.332031 64.066406 58.699219 63.328125 C 50.589844 59.664062 43.089844 56.996094 34.882812 54.859375 C 31.113281 53.875 30.808594 53.820312 30.429688 54.074219 Z M 112.46875 56.78125 C 105.996094 57.925781 96.324219 60.851562 87.960938 64.191406 C 84.351562 65.636719 83.132812 66.269531 85.636719 65.402344 C 92.15625 63.140625 103.179688 60.445312 110.378906 59.34375 C 112.046875 59.089844 113.777344 58.773438 114.222656 58.644531 C 115.191406 58.363281 115.519531 57.738281 115.054688 57.074219 C 114.742188 56.628906 113.875 56.53125 112.46875 56.78125 Z M 24.816406 57.085938 C 24.761719 57.238281 24.691406 57.785156 24.65625 58.304688 L 24.597656 59.246094 L 23.5 59.308594 C 22.734375 59.351562 22.40625 59.457031 22.40625 59.664062 C 22.40625 59.867188 22.734375 59.972656 23.5 60.015625 L 24.597656 60.082031 L 24.660156 61.296875 C 24.714844 62.308594 24.785156 62.5 25.078125 62.441406 C 25.355469 62.390625 25.449219 62.109375 25.496094 61.214844 C 25.558594 60.070312 25.566406 60.058594 26.183594 60.101562 C 26.992188 60.15625 27.894531 59.914062 27.996094 59.609375 C 28.042969 59.460938 27.613281 59.320312 26.816406 59.230469 L 25.558594 59.089844 L 25.496094 58.03125 C 25.4375 57.027344 25.03125 56.464844 24.816406 57.085938 Z M 117.589844 60.929688 C 111.679688 61.429688 101.617188 62.777344 101.878906 63.039062 C 101.917969 63.078125 103.167969 62.976562 104.652344 62.808594 C 109.667969 62.238281 114.015625 62.035156 119.863281 62.101562 C 125.230469 62.164062 125.710938 62.140625 125.921875 61.804688 C 126.089844 61.539062 126.089844 61.339844 125.921875 61.074219 C 125.730469 60.761719 125.332031 60.703125 123.3125 60.675781 C 122.003906 60.660156 119.425781 60.773438 117.589844 60.929688 Z M 100.9375 63.253906 C 101.085938 63.316406 101.269531 63.308594 101.335938 63.238281 C 101.40625 63.167969 101.28125 63.117188 101.0625 63.128906 C 100.820312 63.136719 100.769531 63.1875 100.9375 63.253906 Z M 28.378906 63.539062 C 27.65625 63.753906 27.425781 64.0625 27.421875 64.832031 C 27.421875 65.199219 27.589844 65.515625 27.902344 65.71875 C 28.320312 65.992188 28.78125 66.003906 31.300781 65.804688 C 33.105469 65.660156 37.109375 65.613281 41.839844 65.683594 C 49.277344 65.789062 53.152344 66.050781 57.929688 66.769531 C 60.6875 67.183594 61.296875 67.136719 59.496094 66.648438 C 55.109375 65.460938 47.292969 64.179688 41.085938 63.632812 C 37.292969 63.300781 29.375 63.238281 28.378906 63.539062 Z M 103.273438 63.96875 C 101.496094 64.167969 95.960938 65.019531 95.960938 65.09375 C 95.960938 65.121094 98.242188 65.097656 101.027344 65.042969 C 104.871094 64.96875 106.167969 64.878906 106.390625 64.667969 C 106.632812 64.4375 106.636719 64.328125 106.417969 64.0625 C 106.125 63.710938 105.683594 63.699219 103.273438 63.96875 Z M 13.957031 64.277344 C 13.726562 64.507812 13.628906 65.003906 13.628906 65.9375 L 13.628906 67.273438 L 12.136719 67.335938 C 11.015625 67.382812 10.585938 67.484375 10.421875 67.746094 C 10.003906 68.410156 10.605469 68.753906 12.183594 68.753906 L 13.609375 68.753906 L 13.671875 70.25 C 13.71875 71.398438 13.816406 71.796875 14.097656 71.972656 C 14.363281 72.140625 14.5625 72.140625 14.828125 71.972656 C 15.113281 71.796875 15.210938 71.398438 15.257812 70.25 L 15.320312 68.753906 L 16.863281 68.753906 C 18.183594 68.753906 18.425781 68.699219 18.53125 68.367188 C 18.804688 67.496094 18.480469 67.292969 16.84375 67.292969 L 15.300781 67.292969 L 15.300781 65.949219 C 15.300781 64.664062 15 63.949219 14.464844 63.949219 C 14.367188 63.949219 14.136719 64.09375 13.957031 64.277344 Z M 65.871094 65.28125 C 65.871094 65.324219 66.035156 65.488281 66.234375 65.644531 C 66.566406 65.90625 66.574219 65.898438 66.3125 65.566406 C 66.042969 65.21875 65.871094 65.109375 65.871094 65.28125 Z M 102.542969 66.390625 C 98.277344 66.605469 89.09375 67.5 86.871094 67.917969 C 85.917969 68.097656 85.964844 68.105469 87.394531 68.015625 C 91.800781 67.742188 102.441406 67.679688 107.453125 67.894531 C 115.269531 68.238281 123.238281 69.019531 127.984375 69.90625 C 129.066406 70.109375 129.769531 70.144531 130.113281 70.015625 C 131.167969 69.613281 131.324219 68.230469 130.382812 67.621094 C 129.152344 66.828125 120.867188 66.242188 111.425781 66.289062 C 107.230469 66.308594 103.234375 66.355469 102.542969 66.390625 Z M 61.21875 67.222656 C 61.363281 67.28125 61.597656 67.28125 61.742188 67.222656 C 61.886719 67.164062 61.769531 67.117188 61.480469 67.117188 C 61.195312 67.117188 61.078125 67.164062 61.21875 67.222656 Z M 55.421875 68.128906 C 49.316406 68.371094 43.121094 69.128906 38.117188 70.242188 C 36.480469 70.609375 36.132812 70.757812 35.941406 71.179688 C 35.660156 71.796875 35.976562 72.621094 36.554688 72.769531 C 36.769531 72.828125 38.164062 72.558594 39.652344 72.175781 C 47.277344 70.203125 55.144531 68.953125 64.199219 68.273438 C 64.714844 68.234375 64.199219 68.183594 63.046875 68.164062 C 61.898438 68.140625 60.628906 68.089844 60.226562 68.046875 C 59.824219 68.003906 57.664062 68.042969 55.421875 68.128906 Z M 34.734375 68.675781 C 30.464844 69.375 24.121094 70.761719 22.769531 71.296875 C 22.140625 71.546875 22.015625 72.109375 22.503906 72.511719 C 22.753906 72.71875 23.105469 72.648438 24.332031 72.144531 C 27.496094 70.839844 32.085938 69.527344 36.824219 68.570312 C 38.347656 68.265625 36.78125 68.34375 34.734375 68.675781 Z M 101.082031 71.078125 C 101.886719 71.175781 103.765625 71.40625 105.257812 71.585938 C 110.300781 72.207031 116.714844 73.398438 121.703125 74.644531 C 123.90625 75.195312 124.40625 75.261719 124.679688 75.039062 C 125.09375 74.691406 125.097656 74.109375 124.691406 73.769531 C 123.695312 72.941406 106.332031 70.792969 101.289062 70.871094 L 99.617188 70.898438 Z M 60.398438 71.195312 C 60.546875 71.257812 60.726562 71.25 60.796875 71.179688 C 60.867188 71.109375 60.742188 71.0625 60.523438 71.070312 C 60.28125 71.082031 60.230469 71.128906 60.398438 71.195312 Z M 58.136719 71.402344 C 57.851562 71.449219 56.253906 71.675781 54.585938 71.910156 C 46.367188 73.070312 38.609375 74.835938 29.71875 77.570312 C 26.3125 78.621094 18.867188 81.28125 17.757812 81.847656 C 16.878906 82.296875 16.664062 83.523438 17.335938 84.273438 C 17.851562 84.851562 18.507812 84.722656 21.328125 83.46875 C 32.21875 78.632812 44.949219 74.496094 56.660156 71.992188 C 59.351562 71.417969 60.203125 71.078125 58.136719 71.402344 Z M 82.691406 71.671875 C 92.660156 73.226562 104.132812 76.441406 113.515625 80.308594 C 115.179688 80.996094 116.839844 81.601562 117.203125 81.65625 C 118.417969 81.839844 119.15625 80.527344 118.425781 79.480469 C 117.859375 78.671875 108.160156 75.652344 100.855469 74.011719 C 95.023438 72.699219 87.53125 71.625 82.585938 71.390625 L 80.183594 71.277344 Z M 69.617188 73.050781 C 65.628906 76.035156 59.71875 81.871094 56.019531 86.472656 C 53.839844 89.1875 53.617188 89.734375 54.375 90.492188 C 55.3125 91.429688 56.03125 90.957031 57.890625 88.167969 C 60.898438 83.652344 66.117188 77.140625 69.394531 73.808594 C 70.433594 72.753906 71.257812 71.890625 71.226562 71.890625 C 71.195312 71.890625 70.46875 72.410156 69.617188 73.050781 Z M 61.898438 73.949219 C 56.742188 75.5625 53.6875 76.640625 49.257812 78.421875 C 43.121094 80.882812 32.949219 85.851562 32.175781 86.765625 C 31.425781 87.644531 32.03125 89.03125 33.164062 89.03125 C 33.449219 89.03125 35.289062 88.0625 37.289062 86.863281 C 46.195312 81.507812 55.21875 77.042969 63.570312 73.851562 C 65.46875 73.125 66.878906 72.535156 66.707031 72.539062 C 66.53125 72.542969 64.371094 73.175781 61.898438 73.949219 Z M 72.167969 77.847656 C 71.171875 93.539062 71.570312 124.5625 73.023438 144.632812 C 73.074219 145.316406 73.03125 145.371094 72.347656 145.492188 C 71.914062 145.570312 72.386719 145.621094 73.496094 145.617188 C 74.53125 145.613281 75.058594 145.570312 74.664062 145.523438 L 73.953125 145.4375 L 74.089844 141.535156 C 74.558594 128.121094 74.683594 120.347656 74.570312 111.917969 C 74.40625 99.949219 74.125 94.507812 72.894531 79.3125 L 72.433594 73.667969 Z M 75.691406 74.261719 C 75.691406 74.34375 76.171875 75.367188 76.761719 76.539062 C 80.519531 84.03125 86.097656 96.21875 88.867188 102.988281 C 90.738281 107.570312 90.664062 107.425781 91.230469 107.425781 C 91.910156 107.425781 92.277344 106.933594 92.109375 106.253906 C 91.867188 105.289062 84.003906 89.71875 78.558594 79.414062 C 75.832031 74.257812 75.691406 74.003906 75.691406 74.261719 Z M 86.035156 75.941406 C 95.929688 80.742188 105.976562 86.777344 113.722656 92.5625 C 115.910156 94.195312 116.695312 94.667969 117.210938 94.671875 C 118.5 94.675781 118.972656 93.140625 117.953125 92.257812 C 115.972656 90.542969 107.015625 85.257812 100.453125 81.933594 C 95.464844 79.402344 83.773438 74.351562 83.039062 74.410156 C 82.960938 74.414062 84.3125 75.105469 86.035156 75.941406 Z M 90.070312 74.75 C 90.222656 74.8125 90.402344 74.804688 90.472656 74.734375 C 90.539062 74.664062 90.417969 74.617188 90.195312 74.625 C 89.953125 74.632812 89.902344 74.683594 90.070312 74.75 Z M 79.441406 75.378906 C 86.128906 80.828125 89.804688 84.25 95.324219 90.179688 C 99.59375 94.769531 101.71875 97.1875 105 101.207031 C 107.261719 103.976562 107.582031 104.289062 108.164062 104.285156 C 108.519531 104.285156 108.921875 104.210938 109.058594 104.125 C 109.417969 103.898438 109.71875 102.988281 109.566406 102.582031 C 109.316406 101.90625 103.957031 96.238281 100.027344 92.5 C 94.019531 86.78125 88.226562 81.777344 83.214844 77.972656 C 80.703125 76.0625 78.015625 74.21875 79.441406 75.378906 Z M 94.707031 76.261719 C 102.011719 78.816406 107.117188 80.90625 113.515625 83.957031 C 116.871094 85.558594 122.421875 88.503906 124.121094 89.585938 C 125.292969 90.328125 125.8125 90.441406 126.21875 90.035156 C 126.546875 89.707031 126.539062 88.929688 126.207031 88.65625 C 125.773438 88.292969 117.769531 84.351562 114.871094 83.070312 C 110.503906 81.140625 106.230469 79.496094 101.300781 77.84375 C 97.199219 76.472656 91.40625 74.800781 90.839844 74.828125 C 90.726562 74.835938 92.464844 75.480469 94.707031 76.261719 Z M 45.390625 77.09375 C 36.9375 80.101562 26.847656 84.964844 18.710938 89.945312 C 14.667969 92.421875 14.046875 92.898438 14.046875 93.523438 C 14.046875 94.402344 14.9375 94.445312 16.101562 93.625 C 18.996094 91.582031 22.996094 88.996094 26.601562 86.84375 C 31.21875 84.082031 40.527344 79.394531 44.867188 77.644531 C 48.472656 76.191406 48.679688 76.101562 48.421875 76.097656 C 48.304688 76.09375 46.941406 76.542969 45.390625 77.09375 Z M 57.5625 79.308594 C 47.992188 84.316406 37.113281 91.480469 29.21875 97.976562 C 26.257812 100.410156 25.539062 101.160156 25.539062 101.808594 C 25.539062 102.449219 26.378906 103.246094 27.058594 103.246094 C 27.296875 103.246094 28.414062 102.371094 29.667969 101.207031 C 34.792969 96.449219 40.355469 91.832031 46.226562 87.464844 C 49.375 85.125 57.351562 79.773438 59.445312 78.597656 C 60.449219 78.03125 60.859375 77.730469 60.59375 77.746094 C 60.566406 77.75 59.199219 78.453125 57.5625 79.308594 Z M 66.054688 80.195312 C 62.46875 85.027344 57.582031 92.617188 53.894531 99.082031 C 52.304688 101.871094 52.140625 102.4375 52.839844 102.707031 C 53.390625 102.917969 53.9375 102.425781 54.414062 101.304688 C 56.292969 96.851562 62.410156 86.007812 66.195312 80.410156 C 67.03125 79.171875 67.679688 78.160156 67.640625 78.160156 C 67.597656 78.160156 66.882812 79.074219 66.054688 80.195312 Z M 90.003906 81.097656 C 91.382812 82.527344 92.652344 83.699219 92.824219 83.699219 C 93.640625 83.699219 93.132812 82.960938 91.316406 81.507812 C 87.605469 78.53125 87.503906 78.5 90.003906 81.097656 Z M 89.167969 78.929688 C 89.285156 79.042969 90.082031 79.636719 90.945312 80.25 C 93.140625 81.8125 95.253906 83.558594 97.300781 85.496094 C 98.507812 86.636719 99.15625 87.113281 99.386719 87.023438 C 99.972656 86.800781 99.75 86.15625 98.832031 85.421875 C 97.601562 84.4375 93.171875 81.296875 91.78125 80.421875 C 90.035156 79.324219 88.9375 78.699219 89.167969 78.929688 Z M 83.648438 80.851562 C 91.113281 89.414062 99.183594 100.140625 104.8125 108.992188 C 107.242188 112.8125 107.59375 113.277344 108.054688 113.277344 C 108.539062 113.277344 108.917969 112.871094 108.914062 112.347656 C 108.914062 111.652344 101.609375 101.875 94.929688 93.632812 C 90.617188 88.308594 89.574219 87.089844 86.265625 83.492188 C 83.148438 80.105469 81.871094 78.816406 83.648438 80.851562 Z M 66.273438 83.113281 C 64.386719 86.445312 60.457031 94.382812 59.023438 97.761719 C 57.726562 100.816406 55.21875 107.683594 55.066406 108.589844 C 54.925781 109.4375 55.453125 109.980469 56.328125 109.890625 C 57.167969 109.808594 57.230469 109.667969 58.675781 104.707031 C 60.703125 97.734375 63.601562 89.910156 66.554688 83.4375 C 67.300781 81.800781 67.882812 80.460938 67.84375 80.460938 C 67.804688 80.460938 67.097656 81.652344 66.273438 83.113281 Z M 82.371094 83.230469 C 85.125 87.425781 87.996094 92.445312 92.449219 100.839844 C 93.410156 102.652344 93.636719 102.941406 94.144531 103 C 94.871094 103.082031 95.332031 102.722656 95.332031 102.070312 C 95.332031 101.265625 90.765625 94.03125 86.902344 88.71875 C 85.132812 86.28125 81.132812 81.085938 81.027344 81.085938 C 80.992188 81.085938 81.597656 82.050781 82.371094 83.230469 Z M 69.132812 82.664062 C 68.933594 83.1875 68.992188 83.324219 69.238281 82.902344 C 69.359375 82.691406 69.417969 82.476562 69.363281 82.421875 C 69.308594 82.367188 69.207031 82.476562 69.132812 82.664062 Z M 52.496094 85.953125 C 48.613281 89.300781 40.519531 97.265625 37.164062 101.042969 C 34.945312 103.542969 34.613281 104.175781 35.246094 104.699219 C 35.738281 105.109375 36.242188 104.777344 37.242188 103.398438 C 41 98.199219 45.691406 93.015625 53.101562 85.871094 C 54.757812 84.273438 56.074219 82.972656 56.027344 82.976562 C 55.980469 82.980469 54.390625 84.320312 52.496094 85.953125 Z M 67.257812 87.464844 C 63.890625 96.03125 61.019531 105.519531 59.75 112.277344 C 59.484375 113.675781 59.484375 113.945312 59.742188 114.316406 C 60.089844 114.804688 61.296875 114.902344 61.65625 114.46875 C 61.78125 114.320312 62.082031 112.886719 62.324219 111.28125 C 63.539062 103.246094 65.9375 93 68.375 85.417969 C 68.710938 84.367188 68.957031 83.480469 68.925781 83.445312 C 68.890625 83.410156 68.136719 85.21875 67.257812 87.464844 Z M 78.089844 85.570312 C 80.535156 93.523438 81.949219 98.625 84.136719 107.421875 C 85.789062 114.0625 85.839844 114.214844 86.410156 114.417969 C 87.042969 114.636719 87.511719 114.457031 87.898438 113.84375 C 88.160156 113.425781 87.824219 112.03125 86.207031 106.835938 C 84.847656 102.472656 82.878906 96.976562 80.800781 91.746094 C 79.433594 88.304688 77.757812 84.488281 78.089844 85.570312 Z M 75.691406 86.585938 C 75.691406 86.660156 76.0625 88.957031 76.511719 91.691406 C 77.722656 99.007812 78.59375 105.148438 79.042969 109.515625 C 79.363281 112.617188 79.511719 113.433594 79.800781 113.644531 C 80.269531 113.988281 80.363281 113.976562 80.929688 113.515625 L 81.410156 113.128906 L 81.039062 110.539062 C 80.4375 106.355469 78.742188 98.125 77.25 92.167969 C 76.03125 87.292969 75.691406 86.078125 75.691406 86.585938 Z M 52.808594 88.457031 C 50.5 91.007812 45.183594 98.445312 45.183594 99.128906 C 45.183594 99.542969 45.691406 99.929688 46.054688 99.792969 C 46.21875 99.730469 46.617188 99.140625 46.9375 98.480469 C 48.496094 95.285156 51.507812 90.421875 53.269531 88.261719 C 53.765625 87.648438 54.132812 87.148438 54.082031 87.148438 C 54.035156 87.148438 53.460938 87.738281 52.808594 88.457031 Z M 69.035156 89.238281 C 69.035156 89.527344 69.085938 89.644531 69.140625 89.5 C 69.199219 89.359375 69.199219 89.121094 69.140625 88.976562 C 69.085938 88.835938 69.035156 88.953125 69.035156 89.238281 Z M 68.835938 90.597656 C 68.839844 90.941406 68.886719 91.058594 68.941406 90.855469 C 68.992188 90.652344 68.988281 90.371094 68.933594 90.230469 C 68.875 90.085938 68.832031 90.253906 68.835938 90.597656 Z M 54.1875 94.257812 C 49.15625 100.984375 41.941406 112.507812 42.09375 113.570312 C 42.167969 114.074219 42.722656 114.429688 43.171875 114.257812 C 43.359375 114.183594 44.0625 112.96875 44.730469 111.558594 C 47.15625 106.425781 51.429688 99.007812 55.132812 93.492188 C 56.085938 92.074219 56.828125 90.910156 56.777344 90.910156 C 56.726562 90.910156 55.5625 92.417969 54.1875 94.257812 Z M 68.402344 92.953125 C 67.140625 100.886719 65.035156 117.917969 65.035156 120.179688 C 65.035156 121.019531 65.707031 121.382812 66.253906 120.835938 C 66.597656 120.492188 66.648438 120.074219 66.675781 117.4375 C 66.742188 111.503906 67.300781 104.058594 68.296875 95.855469 C 68.828125 91.484375 68.882812 89.925781 68.402344 92.953125 Z M 107.664062 92.679688 C 109.8125 94.664062 114.097656 98.976562 116.25 101.320312 C 117.523438 102.707031 118.128906 103.226562 118.367188 103.132812 C 118.789062 102.972656 118.996094 102.460938 118.789062 102.101562 C 118.460938 101.527344 112.195312 96.035156 108.707031 93.257812 C 105.976562 91.082031 105.863281 91.019531 107.664062 92.679688 Z M 99.867188 113.414062 C 99.785156 113.492188 99.722656 113.992188 99.722656 114.519531 L 99.722656 115.484375 L 98.9375 115.417969 C 98.507812 115.382812 98.023438 115.441406 97.867188 115.546875 C 97.371094 115.878906 97.828125 116.203125 98.78125 116.203125 L 99.699219 116.203125 L 99.761719 117.195312 C 99.808594 117.910156 99.914062 118.191406 100.140625 118.191406 C 100.367188 118.191406 100.472656 117.910156 100.515625 117.195312 L 100.582031 116.203125 L 101.613281 116.203125 C 103.039062 116.203125 103.039062 115.683594 101.613281 115.492188 L 100.582031 115.355469 L 100.515625 114.386719 C 100.457031 113.476562 100.195312 113.082031 99.867188 113.414062 Z M 53.75 116.832031 L 53.75 117.875 L 52.703125 117.875 C 51.914062 117.875 51.660156 117.953125 51.660156 118.191406 C 51.660156 118.425781 51.914062 118.503906 52.695312 118.503906 L 53.726562 118.503906 L 53.789062 119.585938 C 53.882812 121.132812 54.375 121.207031 54.375 119.671875 L 54.375 118.503906 L 55.421875 118.503906 C 56.210938 118.503906 56.464844 118.425781 56.464844 118.191406 C 56.464844 117.953125 56.210938 117.875 55.421875 117.875 L 54.375 117.875 L 54.375 116.832031 C 54.375 116.042969 54.300781 115.785156 54.0625 115.785156 C 53.828125 115.785156 53.75 116.042969 53.75 116.832031 Z M 53.75 116.832031 " fill-opacity="1" fill-rule="evenodd"/></g></svg>