<svg xmlns="http://www.w3.org/2000/svg" xmlns:xlink="http://www.w3.org/1999/xlink" width="200" zoomAndPan="magnify" viewBox="0 0 150 149.999998" height="200" preserveAspectRatio="xMidYMid meet" version="1.0"><defs><clipPath id="b19c29c096"><path d="M 94 65 L 140.816406 65 L 140.816406 129.679688 L 94 129.679688 Z M 94 65 " clip-rule="nonzero"/></clipPath><clipPath id="551b0dfac0"><path d="M 8.816406 27.679688 L 111 27.679688 L 111 90 L 8.816406 90 Z M 8.816406 27.679688 " clip-rule="nonzero"/></clipPath></defs><rect x="-15" width="180" fill="#ffffff" y="-15" height="179.999997" fill-opacity="1"/><rect x="-15" width="180" fill="#ffffff" y="-15" height="179.999997" fill-opacity="1"/><path fill="#000000" d="M 75.566406 100.203125 L 70.382812 100.203125 L 70.382812 93.085938 L 48.511719 93.085938 L 48.511719 100.203125 L 43.304688 100.203125 C 43.0625 100.203125 42.832031 100.25 42.609375 100.339844 C 42.386719 100.433594 42.1875 100.566406 42.019531 100.738281 C 41.847656 100.910156 41.714844 101.105469 41.625 101.332031 C 41.53125 101.554688 41.484375 101.789062 41.484375 102.03125 C 41.484375 102.273438 41.53125 102.507812 41.625 102.730469 C 41.714844 102.957031 41.847656 103.152344 42.019531 103.324219 C 42.1875 103.496094 42.386719 103.628906 42.609375 103.71875 C 42.832031 103.8125 43.0625 103.859375 43.304688 103.859375 L 75.566406 103.859375 C 75.808594 103.859375 76.039062 103.8125 76.261719 103.71875 C 76.484375 103.625 76.679688 103.492188 76.847656 103.320312 C 77.019531 103.152344 77.148438 102.953125 77.242188 102.730469 C 77.332031 102.503906 77.378906 102.273438 77.378906 102.03125 C 77.378906 101.789062 77.332031 101.554688 77.242188 101.332031 C 77.148438 101.109375 77.019531 100.910156 76.847656 100.738281 C 76.679688 100.566406 76.484375 100.4375 76.261719 100.34375 C 76.039062 100.25 75.808594 100.203125 75.566406 100.203125 Z M 75.566406 100.203125 " fill-opacity="1" fill-rule="nonzero"/><g clip-path="url(#b19c29c096)"><path fill="#000000" d="M 139.484375 65.566406 L 95.546875 65.566406 C 95.015625 65.566406 94.214844 66.519531 94.214844 67.980469 L 94.214844 127.011719 C 94.214844 128.453125 95.015625 129.425781 95.546875 129.425781 L 138.585938 129.425781 C 139.582031 129.425781 140.695312 127.988281 140.695312 125.941406 L 140.816406 100.082031 L 140.816406 67.980469 C 140.816406 66.519531 140.015625 65.566406 139.484375 65.566406 Z M 108.894531 115.214844 L 103.539062 121.871094 C 103.175781 122.308594 102.707031 122.535156 102.136719 122.554688 L 102.113281 122.554688 C 101.550781 122.550781 101.089844 122.332031 100.730469 121.894531 L 97.800781 118.359375 C 97.644531 118.175781 97.527344 117.96875 97.453125 117.734375 C 97.378906 117.503906 97.351562 117.265625 97.375 117.023438 C 97.394531 116.78125 97.460938 116.550781 97.570312 116.335938 C 97.683594 116.121094 97.832031 115.933594 98.019531 115.777344 C 98.207031 115.625 98.414062 115.511719 98.644531 115.441406 C 98.875 115.371094 99.113281 115.347656 99.351562 115.371094 C 99.59375 115.390625 99.820312 115.460938 100.03125 115.574219 C 100.246094 115.6875 100.429688 115.835938 100.585938 116.019531 L 102.085938 117.847656 L 106.058594 112.925781 C 106.214844 112.738281 106.394531 112.585938 106.609375 112.472656 C 106.820312 112.355469 107.046875 112.285156 107.289062 112.261719 C 107.527344 112.234375 107.765625 112.257812 107.996094 112.324219 C 108.230469 112.394531 108.4375 112.503906 108.628906 112.65625 C 108.8125 112.808594 108.964844 112.992188 109.078125 113.203125 C 109.191406 113.414062 109.261719 113.640625 109.285156 113.882812 C 109.3125 114.121094 109.289062 114.355469 109.222656 114.589844 C 109.152344 114.820312 109.042969 115.027344 108.894531 115.214844 Z M 108.894531 93.769531 L 103.539062 100.398438 C 103.179688 100.847656 102.710938 101.074219 102.136719 101.078125 L 102.113281 101.078125 C 101.550781 101.078125 101.089844 100.859375 100.730469 100.421875 L 97.800781 96.886719 C 97.644531 96.703125 97.527344 96.5 97.453125 96.269531 C 97.378906 96.039062 97.351562 95.804688 97.375 95.5625 C 97.394531 95.320312 97.460938 95.09375 97.574219 94.878906 C 97.683594 94.664062 97.832031 94.480469 98.019531 94.328125 C 98.203125 94.171875 98.410156 94.054688 98.640625 93.980469 C 98.871094 93.90625 99.105469 93.878906 99.347656 93.898438 C 99.589844 93.917969 99.816406 93.984375 100.03125 94.097656 C 100.246094 94.210938 100.429688 94.359375 100.585938 94.546875 L 102.085938 96.375 L 106.058594 91.453125 C 106.210938 91.265625 106.394531 91.113281 106.609375 90.996094 C 106.820312 90.878906 107.046875 90.808594 107.289062 90.785156 C 107.527344 90.761719 107.765625 90.78125 107.996094 90.851562 C 108.226562 90.921875 108.4375 91.03125 108.625 91.1875 C 108.8125 91.339844 108.964844 91.523438 109.078125 91.738281 C 109.195312 91.953125 109.265625 92.179688 109.289062 92.421875 C 109.316406 92.664062 109.292969 92.902344 109.226562 93.132812 C 109.15625 93.367188 109.046875 93.578125 108.894531 93.769531 Z M 108.894531 75.414062 L 103.539062 82.042969 C 103.179688 82.496094 102.710938 82.722656 102.136719 82.726562 L 102.113281 82.726562 C 101.550781 82.726562 101.089844 82.503906 100.730469 82.070312 L 97.800781 78.535156 C 97.644531 78.351562 97.527344 78.144531 97.453125 77.914062 C 97.378906 77.683594 97.351562 77.449219 97.375 77.207031 C 97.394531 76.96875 97.460938 76.742188 97.574219 76.527344 C 97.683594 76.3125 97.832031 76.128906 98.019531 75.976562 C 98.203125 75.816406 98.410156 75.699219 98.640625 75.625 C 98.871094 75.550781 99.105469 75.523438 99.347656 75.546875 C 99.589844 75.566406 99.816406 75.632812 100.03125 75.746094 C 100.246094 75.859375 100.429688 76.007812 100.585938 76.195312 L 102.085938 78.023438 L 106.058594 73.097656 C 106.210938 72.910156 106.394531 72.757812 106.609375 72.640625 C 106.820312 72.523438 107.046875 72.453125 107.289062 72.429688 C 107.53125 72.402344 107.765625 72.425781 108 72.496094 C 108.230469 72.5625 108.441406 72.675781 108.628906 72.828125 C 108.816406 72.984375 108.96875 73.167969 109.082031 73.382812 C 109.199219 73.597656 109.269531 73.824219 109.292969 74.066406 C 109.316406 74.308594 109.296875 74.546875 109.226562 74.78125 C 109.15625 75.015625 109.046875 75.226562 108.894531 75.414062 Z M 131.417969 121.554688 L 112.164062 121.554688 C 111.921875 121.554688 111.6875 121.507812 111.464844 121.417969 C 111.242188 121.324219 111.046875 121.191406 110.875 121.019531 C 110.703125 120.847656 110.570312 120.652344 110.480469 120.425781 C 110.386719 120.203125 110.339844 119.96875 110.339844 119.726562 C 110.339844 119.484375 110.386719 119.25 110.480469 119.023438 C 110.570312 118.800781 110.703125 118.601562 110.875 118.429688 C 111.046875 118.257812 111.242188 118.128906 111.464844 118.035156 C 111.6875 117.941406 111.921875 117.898438 112.164062 117.898438 L 131.417969 117.898438 C 131.660156 117.898438 131.890625 117.945312 132.113281 118.039062 C 132.332031 118.132812 132.527344 118.265625 132.699219 118.433594 C 132.867188 118.605469 133 118.804688 133.089844 119.027344 C 133.183594 119.25 133.230469 119.484375 133.230469 119.726562 C 133.230469 119.96875 133.183594 120.199219 133.089844 120.425781 C 133 120.648438 132.867188 120.84375 132.699219 121.015625 C 132.527344 121.1875 132.332031 121.320312 132.113281 121.414062 C 131.890625 121.507812 131.660156 121.554688 131.417969 121.554688 Z M 135.027344 116.898438 L 112.164062 116.898438 C 111.921875 116.898438 111.691406 116.851562 111.46875 116.757812 C 111.246094 116.667969 111.050781 116.535156 110.878906 116.363281 C 110.707031 116.191406 110.578125 115.992188 110.484375 115.769531 C 110.394531 115.546875 110.347656 115.3125 110.347656 115.070312 C 110.347656 114.828125 110.394531 114.59375 110.484375 114.371094 C 110.578125 114.148438 110.707031 113.949219 110.878906 113.777344 C 111.050781 113.605469 111.246094 113.472656 111.46875 113.382812 C 111.691406 113.289062 111.921875 113.242188 112.164062 113.242188 L 135.027344 113.242188 C 135.269531 113.242188 135.5 113.289062 135.722656 113.382812 C 135.945312 113.472656 136.140625 113.605469 136.3125 113.777344 C 136.480469 113.949219 136.613281 114.148438 136.707031 114.371094 C 136.796875 114.59375 136.84375 114.828125 136.84375 115.070312 C 136.84375 115.3125 136.796875 115.546875 136.707031 115.769531 C 136.613281 115.992188 136.480469 116.191406 136.3125 116.363281 C 136.140625 116.535156 135.945312 116.667969 135.722656 116.757812 C 135.5 116.851562 135.269531 116.898438 135.027344 116.898438 Z M 110.347656 98.253906 C 110.347656 98.011719 110.390625 97.777344 110.484375 97.550781 C 110.578125 97.328125 110.707031 97.128906 110.878906 96.960938 C 111.046875 96.789062 111.246094 96.65625 111.46875 96.5625 C 111.691406 96.46875 111.921875 96.425781 112.164062 96.425781 L 131.417969 96.425781 C 131.660156 96.425781 131.890625 96.472656 132.113281 96.566406 C 132.335938 96.65625 132.53125 96.789062 132.699219 96.960938 C 132.871094 97.132812 133 97.332031 133.09375 97.554688 C 133.183594 97.777344 133.230469 98.011719 133.230469 98.253906 C 133.230469 98.496094 133.183594 98.726562 133.09375 98.953125 C 133 99.175781 132.871094 99.371094 132.699219 99.542969 C 132.53125 99.714844 132.335938 99.847656 132.113281 99.941406 C 131.890625 100.035156 131.660156 100.082031 131.417969 100.082031 L 112.164062 100.082031 C 111.921875 100.082031 111.691406 100.035156 111.46875 99.941406 C 111.246094 99.847656 111.046875 99.71875 110.878906 99.546875 C 110.707031 99.375 110.578125 99.175781 110.484375 98.953125 C 110.390625 98.726562 110.347656 98.496094 110.347656 98.253906 Z M 135.027344 95.449219 L 112.164062 95.449219 C 111.921875 95.449219 111.691406 95.402344 111.46875 95.308594 C 111.246094 95.21875 111.050781 95.085938 110.878906 94.914062 C 110.707031 94.742188 110.578125 94.546875 110.484375 94.320312 C 110.394531 94.097656 110.347656 93.863281 110.347656 93.621094 C 110.347656 93.378906 110.394531 93.144531 110.484375 92.921875 C 110.578125 92.699219 110.707031 92.5 110.878906 92.328125 C 111.050781 92.15625 111.246094 92.027344 111.46875 91.933594 C 111.691406 91.839844 111.921875 91.792969 112.164062 91.792969 L 135.027344 91.792969 C 135.269531 91.792969 135.5 91.839844 135.722656 91.933594 C 135.945312 92.027344 136.140625 92.15625 136.3125 92.328125 C 136.480469 92.5 136.613281 92.699219 136.707031 92.921875 C 136.796875 93.144531 136.84375 93.378906 136.84375 93.621094 C 136.84375 93.863281 136.796875 94.097656 136.707031 94.320312 C 136.613281 94.546875 136.480469 94.742188 136.3125 94.914062 C 136.140625 95.085938 135.945312 95.21875 135.722656 95.308594 C 135.5 95.402344 135.269531 95.449219 135.027344 95.449219 Z M 110.347656 79.898438 C 110.34375 79.65625 110.390625 79.421875 110.480469 79.195312 C 110.570312 78.972656 110.703125 78.773438 110.875 78.601562 C 111.042969 78.429688 111.242188 78.296875 111.464844 78.207031 C 111.6875 78.113281 111.921875 78.070312 112.164062 78.070312 L 131.417969 78.070312 C 131.660156 78.070312 131.890625 78.117188 132.113281 78.210938 C 132.335938 78.304688 132.53125 78.433594 132.703125 78.605469 C 132.871094 78.777344 133.003906 78.976562 133.097656 79.199219 C 133.1875 79.421875 133.234375 79.65625 133.234375 79.898438 C 133.234375 80.140625 133.1875 80.375 133.097656 80.597656 C 133.003906 80.824219 132.871094 81.019531 132.703125 81.191406 C 132.53125 81.363281 132.335938 81.496094 132.113281 81.589844 C 131.890625 81.679688 131.660156 81.726562 131.417969 81.726562 L 112.164062 81.726562 C 111.921875 81.726562 111.691406 81.679688 111.46875 81.589844 C 111.246094 81.496094 111.046875 81.363281 110.878906 81.191406 C 110.707031 81.019531 110.578125 80.824219 110.484375 80.597656 C 110.390625 80.375 110.347656 80.140625 110.347656 79.898438 Z M 135.027344 77.070312 L 112.164062 77.070312 C 111.921875 77.070312 111.691406 77.027344 111.46875 76.933594 C 111.246094 76.839844 111.050781 76.707031 110.878906 76.535156 C 110.707031 76.363281 110.578125 76.167969 110.484375 75.945312 C 110.394531 75.71875 110.347656 75.488281 110.347656 75.242188 C 110.347656 75 110.394531 74.769531 110.484375 74.542969 C 110.578125 74.320312 110.707031 74.121094 110.878906 73.953125 C 111.050781 73.78125 111.246094 73.648438 111.46875 73.554688 C 111.691406 73.460938 111.921875 73.414062 112.164062 73.414062 L 135.027344 73.414062 C 135.269531 73.414062 135.5 73.460938 135.722656 73.554688 C 135.945312 73.648438 136.140625 73.78125 136.3125 73.953125 C 136.480469 74.121094 136.613281 74.320312 136.707031 74.542969 C 136.796875 74.769531 136.84375 75 136.84375 75.242188 C 136.84375 75.488281 136.796875 75.71875 136.707031 75.945312 C 136.613281 76.167969 136.480469 76.363281 136.3125 76.535156 C 136.140625 76.707031 135.945312 76.839844 135.722656 76.933594 C 135.5 77.027344 135.269531 77.070312 135.027344 77.070312 Z M 135.027344 77.070312 " fill-opacity="1" fill-rule="nonzero"/></g><g clip-path="url(#551b0dfac0)"><path fill="#000000" d="M 110.054688 61.910156 L 110.054688 32.199219 C 110.058594 31.921875 110.03125 31.644531 109.976562 31.371094 C 109.925781 31.09375 109.84375 30.828125 109.738281 30.570312 C 109.632812 30.3125 109.503906 30.066406 109.351562 29.835938 C 109.199219 29.601562 109.023438 29.386719 108.828125 29.1875 C 108.632812 28.988281 108.417969 28.8125 108.1875 28.65625 C 107.957031 28.5 107.714844 28.371094 107.457031 28.261719 C 107.203125 28.15625 106.9375 28.074219 106.667969 28.019531 C 106.394531 27.964844 106.121094 27.933594 105.839844 27.933594 L 13.054688 27.933594 C 12.777344 27.933594 12.5 27.960938 12.226562 28.015625 C 11.953125 28.070312 11.6875 28.148438 11.429688 28.257812 C 11.171875 28.363281 10.929688 28.496094 10.695312 28.648438 C 10.464844 28.804688 10.25 28.984375 10.054688 29.179688 C 9.855469 29.378906 9.679688 29.59375 9.527344 29.828125 C 9.371094 30.0625 9.242188 30.308594 9.136719 30.566406 C 9.027344 30.824219 8.949219 31.09375 8.894531 31.367188 C 8.839844 31.640625 8.816406 31.917969 8.816406 32.199219 L 8.816406 85.164062 C 8.816406 85.445312 8.839844 85.722656 8.894531 85.996094 C 8.949219 86.273438 9.027344 86.539062 9.136719 86.796875 C 9.242188 87.058594 9.371094 87.304688 9.527344 87.535156 C 9.679688 87.769531 9.855469 87.984375 10.054688 88.183594 C 10.25 88.382812 10.464844 88.558594 10.695312 88.714844 C 10.929688 88.871094 11.171875 89 11.429688 89.109375 C 11.6875 89.214844 11.953125 89.296875 12.226562 89.347656 C 12.5 89.402344 12.777344 89.429688 13.054688 89.429688 L 90.582031 89.429688 L 90.582031 67.980469 C 90.550781 67.617188 90.554688 67.253906 90.59375 66.894531 C 90.632812 66.53125 90.703125 66.175781 90.8125 65.828125 C 90.917969 65.480469 91.058594 65.148438 91.230469 64.828125 C 91.402344 64.507812 91.601562 64.207031 91.832031 63.925781 C 92.0625 63.644531 92.316406 63.386719 92.597656 63.15625 C 92.875 62.925781 93.175781 62.722656 93.492188 62.550781 C 93.8125 62.378906 94.144531 62.238281 94.488281 62.128906 C 94.835938 62.023438 95.1875 61.949219 95.546875 61.910156 Z M 55.949219 60.179688 C 55.949219 60.609375 55.816406 60.992188 55.550781 61.328125 C 55.28125 61.660156 54.9375 61.871094 54.519531 61.960938 L 51.660156 62.546875 C 51.398438 63.351562 51.074219 64.128906 50.691406 64.886719 L 52.292969 67.347656 C 52.410156 67.519531 52.492188 67.710938 52.542969 67.914062 C 52.59375 68.121094 52.609375 68.328125 52.585938 68.539062 C 52.566406 68.746094 52.507812 68.945312 52.414062 69.136719 C 52.324219 69.324219 52.199219 69.492188 52.046875 69.636719 L 49.019531 72.683594 C 48.71875 72.988281 48.351562 73.164062 47.925781 73.210938 C 47.5 73.253906 47.105469 73.160156 46.746094 72.929688 L 44.324219 71.320312 C 43.574219 71.707031 42.796875 72.03125 41.996094 72.292969 L 41.417969 75.144531 C 41.324219 75.570312 41.113281 75.921875 40.777344 76.195312 C 40.441406 76.46875 40.054688 76.609375 39.625 76.609375 L 35.335938 76.609375 C 34.90625 76.609375 34.519531 76.46875 34.183594 76.195312 C 33.847656 75.921875 33.636719 75.570312 33.542969 75.144531 L 32.964844 72.292969 C 32.171875 72.03125 31.402344 71.707031 30.664062 71.320312 L 28.242188 72.929688 C 28.066406 73.042969 27.878906 73.128906 27.675781 73.175781 C 27.472656 73.226562 27.265625 73.242188 27.058594 73.21875 C 26.851562 73.195312 26.652344 73.140625 26.464844 73.046875 C 26.277344 72.957031 26.109375 72.835938 25.964844 72.683594 L 22.910156 69.636719 C 22.761719 69.492188 22.640625 69.324219 22.550781 69.132812 C 22.460938 68.945312 22.402344 68.746094 22.382812 68.535156 C 22.359375 68.328125 22.375 68.121094 22.421875 67.917969 C 22.472656 67.710938 22.554688 67.523438 22.667969 67.347656 L 24.269531 64.886719 C 23.886719 64.128906 23.5625 63.351562 23.300781 62.546875 L 20.464844 61.960938 C 20.261719 61.921875 20.066406 61.847656 19.886719 61.738281 C 19.707031 61.632812 19.554688 61.496094 19.421875 61.335938 C 19.289062 61.171875 19.1875 60.992188 19.117188 60.792969 C 19.046875 60.59375 19.011719 60.390625 19.011719 60.179688 L 19.011719 55.867188 C 19.011719 55.65625 19.046875 55.449219 19.113281 55.25 C 19.183594 55.050781 19.285156 54.867188 19.417969 54.703125 C 19.550781 54.539062 19.707031 54.402344 19.886719 54.292969 C 20.066406 54.183594 20.257812 54.105469 20.464844 54.0625 L 23.300781 53.476562 C 23.5625 52.671875 23.886719 51.894531 24.269531 51.136719 L 22.667969 48.699219 C 22.433594 48.335938 22.335938 47.933594 22.382812 47.5 C 22.429688 47.066406 22.605469 46.695312 22.910156 46.386719 L 25.964844 43.339844 C 26.109375 43.191406 26.277344 43.070312 26.46875 42.980469 C 26.65625 42.890625 26.855469 42.835938 27.0625 42.816406 C 27.269531 42.796875 27.476562 42.8125 27.679688 42.863281 C 27.878906 42.917969 28.066406 43 28.242188 43.121094 L 30.664062 44.726562 C 31.398438 44.332031 32.167969 44.007812 32.964844 43.753906 L 33.542969 40.878906 C 33.636719 40.453125 33.847656 40.101562 34.183594 39.828125 C 34.519531 39.554688 34.90625 39.417969 35.335938 39.414062 L 39.625 39.414062 C 40.054688 39.417969 40.441406 39.554688 40.777344 39.828125 C 41.113281 40.101562 41.324219 40.453125 41.417969 40.878906 L 41.996094 43.753906 C 42.800781 44.007812 43.578125 44.332031 44.324219 44.726562 L 46.746094 43.121094 C 46.917969 43 47.105469 42.917969 47.308594 42.863281 C 47.507812 42.8125 47.714844 42.796875 47.921875 42.816406 C 48.128906 42.835938 48.328125 42.890625 48.515625 42.980469 C 48.707031 43.070312 48.875 43.191406 49.019531 43.339844 L 52.046875 46.410156 C 52.199219 46.554688 52.324219 46.722656 52.414062 46.914062 C 52.507812 47.101562 52.566406 47.300781 52.585938 47.511719 C 52.609375 47.71875 52.59375 47.929688 52.542969 48.132812 C 52.492188 48.335938 52.410156 48.527344 52.289062 48.699219 L 50.691406 51.136719 C 51.074219 51.894531 51.398438 52.671875 51.660156 53.476562 L 54.519531 54.0625 C 54.722656 54.105469 54.914062 54.183594 55.09375 54.292969 C 55.273438 54.402344 55.425781 54.542969 55.554688 54.707031 C 55.6875 54.871094 55.785156 55.054688 55.851562 55.253906 C 55.921875 55.453125 55.953125 55.65625 55.949219 55.867188 Z M 81.621094 70.464844 C 81.160156 70.957031 80.625 71.332031 80.011719 71.597656 C 79.394531 71.867188 78.753906 72 78.085938 72.003906 L 77.820312 72.003906 C 77.15625 71.96875 76.53125 71.800781 75.9375 71.503906 C 75.34375 71.207031 74.832031 70.804688 74.402344 70.296875 L 65.953125 60.351562 C 65.746094 60.105469 65.566406 59.84375 65.414062 59.566406 C 65.257812 59.285156 65.132812 58.992188 65.035156 58.6875 C 64.941406 58.382812 64.875 58.070312 64.835938 57.753906 C 64.800781 57.4375 64.796875 57.117188 64.820312 56.800781 C 64.847656 56.480469 64.902344 56.167969 64.992188 55.859375 C 65.078125 55.550781 65.195312 55.253906 65.339844 54.972656 C 65.484375 54.6875 65.652344 54.417969 65.851562 54.167969 C 66.046875 53.914062 66.265625 53.6875 66.507812 53.476562 C 66.75 53.269531 67.007812 53.085938 67.285156 52.929688 C 67.558594 52.773438 67.847656 52.644531 68.148438 52.546875 C 68.453125 52.445312 68.761719 52.378906 69.074219 52.339844 C 69.390625 52.300781 69.707031 52.296875 70.023438 52.320312 C 70.339844 52.34375 70.648438 52.402344 70.953125 52.488281 C 71.261719 52.574219 71.554688 52.691406 71.835938 52.835938 C 72.117188 52.980469 72.382812 53.152344 72.632812 53.351562 C 72.882812 53.550781 73.109375 53.769531 73.3125 54.015625 L 78.253906 59.816406 L 91.480469 45.558594 C 91.699219 45.324219 91.9375 45.117188 92.195312 44.929688 C 92.457031 44.746094 92.730469 44.589844 93.019531 44.457031 C 93.3125 44.328125 93.609375 44.226562 93.921875 44.152344 C 94.230469 44.082031 94.542969 44.039062 94.863281 44.03125 C 95.179688 44.019531 95.496094 44.042969 95.808594 44.09375 C 96.121094 44.144531 96.429688 44.226562 96.726562 44.339844 C 97.023438 44.453125 97.308594 44.589844 97.578125 44.757812 C 97.847656 44.925781 98.101562 45.121094 98.332031 45.335938 C 98.566406 45.554688 98.773438 45.792969 98.957031 46.054688 C 99.144531 46.3125 99.300781 46.589844 99.433594 46.878906 C 99.5625 47.171875 99.664062 47.472656 99.738281 47.785156 C 99.808594 48.09375 99.847656 48.410156 99.859375 48.730469 C 99.871094 49.046875 99.847656 49.363281 99.796875 49.679688 C 99.746094 49.996094 99.664062 50.300781 99.550781 50.601562 C 99.4375 50.898438 99.296875 51.183594 99.128906 51.457031 C 98.960938 51.726562 98.769531 51.976562 98.550781 52.210938 Z M 81.621094 70.464844 " fill-opacity="1" fill-rule="nonzero"/></g><path fill="#000000" d="M 94.144531 48.066406 L 79.515625 63.8125 C 79.152344 64.21875 78.699219 64.414062 78.15625 64.398438 C 77.617188 64.382812 77.164062 64.171875 76.800781 63.765625 L 70.554688 56.378906 C 70.308594 56.105469 70 55.964844 69.632812 55.964844 C 69.339844 55.964844 69.078125 56.0625 68.859375 56.257812 C 68.738281 56.363281 68.640625 56.484375 68.570312 56.628906 C 68.496094 56.769531 68.453125 56.921875 68.441406 57.082031 C 68.425781 57.238281 68.441406 57.394531 68.492188 57.546875 C 68.539062 57.703125 68.613281 57.839844 68.710938 57.964844 L 77.164062 67.933594 C 77.398438 68.210938 77.699219 68.347656 78.0625 68.347656 L 78.085938 70.175781 L 78.085938 68.347656 C 78.4375 68.339844 78.738281 68.210938 78.980469 67.957031 L 95.910156 49.726562 C 96.140625 49.476562 96.246094 49.183594 96.226562 48.847656 C 96.222656 48.507812 96.09375 48.222656 95.839844 47.996094 C 95.722656 47.886719 95.589844 47.804688 95.4375 47.746094 C 95.289062 47.691406 95.136719 47.667969 94.976562 47.675781 C 94.816406 47.679688 94.664062 47.71875 94.519531 47.785156 C 94.375 47.855469 94.25 47.949219 94.144531 48.066406 Z M 94.144531 48.066406 " fill-opacity="1" fill-rule="nonzero"/><path fill="#000000" d="M 48.441406 55.453125 C 48.148438 54.242188 47.679688 53.105469 47.035156 52.039062 C 46.851562 51.742188 46.761719 51.414062 46.765625 51.0625 C 46.769531 50.710938 46.867188 50.386719 47.058594 50.089844 L 48.441406 47.945312 L 47.519531 46.996094 L 45.386719 48.382812 C 45.09375 48.589844 44.769531 48.695312 44.410156 48.699219 C 44.054688 48.703125 43.726562 48.605469 43.425781 48.410156 C 42.371094 47.757812 41.238281 47.289062 40.035156 46.996094 C 39.691406 46.917969 39.398438 46.757812 39.152344 46.503906 C 38.90625 46.25 38.746094 45.953125 38.679688 45.605469 L 38.144531 43.070312 L 36.8125 43.070312 L 36.304688 45.582031 C 36.238281 45.933594 36.078125 46.238281 35.824219 46.496094 C 35.574219 46.753906 35.273438 46.917969 34.925781 46.996094 C 33.726562 47.285156 32.605469 47.753906 31.558594 48.410156 C 31.257812 48.605469 30.929688 48.703125 30.574219 48.699219 C 30.214844 48.695312 29.890625 48.589844 29.597656 48.382812 L 27.464844 46.996094 L 26.519531 47.945312 L 27.925781 50.066406 C 28.117188 50.371094 28.214844 50.703125 28.21875 51.0625 C 28.222656 51.421875 28.132812 51.757812 27.949219 52.066406 C 27.277344 53.109375 26.808594 54.238281 26.542969 55.453125 C 26.457031 55.796875 26.289062 56.089844 26.035156 56.335938 C 25.78125 56.582031 25.484375 56.742188 25.140625 56.816406 L 22.644531 57.355469 L 22.644531 58.695312 L 25.140625 59.207031 C 25.488281 59.285156 25.789062 59.445312 26.039062 59.699219 C 26.292969 59.949219 26.460938 60.246094 26.542969 60.59375 C 26.808594 61.808594 27.277344 62.9375 27.949219 63.984375 C 28.132812 64.289062 28.222656 64.617188 28.21875 64.972656 C 28.214844 65.332031 28.117188 65.65625 27.925781 65.957031 L 26.519531 68.101562 L 27.464844 69.054688 L 29.597656 67.640625 C 29.894531 67.445312 30.21875 67.347656 30.574219 67.34375 C 30.929688 67.339844 31.257812 67.429688 31.558594 67.613281 C 32.597656 68.289062 33.71875 68.761719 34.925781 69.027344 C 35.273438 69.109375 35.570312 69.277344 35.820312 69.53125 C 36.070312 69.789062 36.234375 70.089844 36.304688 70.441406 L 36.8125 72.953125 L 38.144531 72.953125 L 38.679688 70.441406 C 38.746094 70.09375 38.902344 69.789062 39.148438 69.535156 C 39.394531 69.277344 39.691406 69.109375 40.035156 69.027344 C 41.25 68.757812 42.378906 68.285156 43.425781 67.613281 C 43.730469 67.429688 44.058594 67.339844 44.410156 67.34375 C 44.765625 67.347656 45.089844 67.445312 45.386719 67.640625 L 47.519531 69.054688 L 48.441406 68.101562 L 47.058594 65.957031 C 46.867188 65.664062 46.769531 65.339844 46.765625 64.984375 C 46.761719 64.632812 46.851562 64.308594 47.035156 64.007812 C 47.683594 62.9375 48.152344 61.792969 48.441406 60.570312 C 48.523438 60.226562 48.691406 59.929688 48.945312 59.683594 C 49.199219 59.4375 49.5 59.277344 49.84375 59.207031 L 52.316406 58.695312 L 52.316406 57.355469 L 49.84375 56.816406 C 49.496094 56.75 49.195312 56.59375 48.941406 56.34375 C 48.6875 56.097656 48.519531 55.800781 48.441406 55.453125 Z M 38.871094 62.324219 C 38.425781 62.476562 37.964844 62.546875 37.492188 62.546875 C 37.195312 62.546875 36.902344 62.519531 36.613281 62.460938 C 36.320312 62.402344 36.039062 62.316406 35.765625 62.203125 C 35.492188 62.089844 35.230469 61.949219 34.984375 61.785156 C 34.738281 61.621094 34.507812 61.433594 34.300781 61.222656 C 34.089844 61.011719 33.902344 60.78125 33.738281 60.535156 C 33.574219 60.285156 33.433594 60.023438 33.320312 59.75 C 33.207031 59.472656 33.121094 59.191406 33.0625 58.898438 C 33.003906 58.605469 32.976562 58.308594 32.976562 58.011719 C 32.976562 57.714844 33.003906 57.417969 33.0625 57.125 C 33.121094 56.832031 33.207031 56.550781 33.320312 56.273438 C 33.433594 56 33.574219 55.738281 33.738281 55.488281 C 33.902344 55.242188 34.089844 55.011719 34.300781 54.800781 C 34.507812 54.59375 34.738281 54.402344 34.984375 54.238281 C 35.230469 54.074219 35.492188 53.933594 35.765625 53.820312 C 36.039062 53.707031 36.320312 53.621094 36.613281 53.5625 C 36.902344 53.507812 37.195312 53.476562 37.492188 53.476562 C 37.984375 53.484375 38.460938 53.574219 38.921875 53.746094 C 39.367188 53.898438 39.777344 54.113281 40.15625 54.394531 C 40.53125 54.675781 40.859375 55.007812 41.132812 55.390625 C 41.40625 55.773438 41.613281 56.191406 41.757812 56.640625 C 41.902344 57.089844 41.972656 57.550781 41.972656 58.023438 C 41.972656 58.496094 41.902344 58.957031 41.757812 59.40625 C 41.613281 59.855469 41.40625 60.273438 41.132812 60.65625 C 40.859375 61.039062 40.53125 61.371094 40.15625 61.652344 C 39.777344 61.933594 39.367188 62.152344 38.921875 62.300781 C 38.898438 62.300781 38.898438 62.300781 38.871094 62.324219 Z M 38.871094 62.324219 " fill-opacity="1" fill-rule="nonzero"/></svg>